<svg xmlns="http://www.w3.org/2000/svg" width="17.999" height="17.999" viewBox="0 0 17.999 17.999"><defs><style>.a{fill:#515151;}</style></defs><path class="a" d="M1.6,144H1.279a.964.964,0,0,0-.951.8l1.272.886Zm0,0" transform="translate(-0.315 -138.214)"/><path class="a" d="M56.9,11.571l5.244-3.649V2.571H60.535a.964.964,0,0,1-.964-.964V0H48.643A.643.643,0,0,0,48,.643V7.922l5.244,3.649Zm3.637-8.357a.321.321,0,0,1,0,.643H49.607a.321.321,0,1,1,0-.643Zm.321,2.25a.321.321,0,0,1-.321.321H49.607a.321.321,0,1,1,0-.643H60.535A.321.321,0,0,1,60.857,5.464ZM52.178,1.285h5.786a.321.321,0,1,1,0,.643H52.178a.321.321,0,1,1,0-.643ZM48.964,2.571a.321.321,0,0,1-.321-.321V1.607a.964.964,0,0,1,.964-.964h.643a.321.321,0,1,1,0,.643h-.643a.321.321,0,0,0-.321.321V2.25A.321.321,0,0,1,48.964,2.571Zm.321,4.821a.321.321,0,0,1,.321-.321H60.535a.321.321,0,0,1,0,.643H49.607A.321.321,0,0,1,49.286,7.392Zm1.929,1.929A.321.321,0,0,1,51.536,9h7.071a.321.321,0,1,1,0,.643H51.536A.321.321,0,0,1,51.214,9.321Zm0,0" transform="translate(-46.071 0)"/><path class="a" d="M352.321,12.787h1.153L352,11.313v1.153A.321.321,0,0,0,352.321,12.787Zm0,0" transform="translate(-337.858 -10.858)"/><path class="a" d="M0,183.3v9.67a.964.964,0,0,0,.836.956l5.745-6.048Zm0,0" transform="translate(0 -175.94)"/><path class="a" d="M48.136,304l-5.5,5.786H57.213L51.717,304Zm0,0" transform="translate(-40.927 -291.786)"/><path class="a" d="M289.96,193.931a.964.964,0,0,0,.836-.956V183.3l-6.58,4.578Zm0,0" transform="translate(-272.796 -175.94)"/><path class="a" d="M416.321,144H416v1.69l1.272-.885A.964.964,0,0,0,416.321,144Zm0,0" transform="translate(-399.286 -138.214)"/></svg>