<svg id="Group_1732" data-name="Group 1732" xmlns="http://www.w3.org/2000/svg" width="19.488" height="17.864" viewBox="0 0 19.488 17.864">
  <g id="Group_858" data-name="Group 858" transform="translate(0 0)">
    <path id="Path_743" data-name="Path 743" d="M17.736,28.529a.41.41,0,0,0-.446.088l-2.524,2.506a1.224,1.224,0,0,1-.626.333l-2.044.406a1.226,1.226,0,0,1-1.108-.333,1.211,1.211,0,0,1-.335-1.1l.361-1.791H4.5a.406.406,0,1,1,0-.812H11.36c.014-.016.022-.035.038-.05L12.982,26.2H4.5a.406.406,0,1,1,0-.812h8.994a.4.4,0,0,1,.23.079l2.653-2.634a2.364,2.364,0,0,1,.8-.52.405.405,0,0,0,.073-.716,1.641,1.641,0,0,0-.9-.268H1.635A1.632,1.632,0,0,0,0,22.954V38.788a.409.409,0,0,0,.7.287l3.969-3.941H16.353a1.632,1.632,0,0,0,1.635-1.624V28.9A.406.406,0,0,0,17.736,28.529ZM9.4,31.074H4.5a.406.406,0,1,1,0-.812H9.4a.406.406,0,1,1,0,.812Z" transform="translate(0 -21.33)" fill="#515151"/>
    <path id="Path_744" data-name="Path 744" d="M304.727,64a1.444,1.444,0,0,0-1.015.42l-4.563,4.563a.374.374,0,0,0-.1.191l-.375,1.875a.375.375,0,0,0,.368.448.383.383,0,0,0,.073-.007l1.874-.375a.373.373,0,0,0,.192-.1l4.564-4.563h0A1.435,1.435,0,0,0,304.727,64Zm-.595,3-.97-.97.53-.53.97.97Z" transform="translate(-286.674 -62.5)" fill="#515151"/>
  </g>
</svg>
