<svg width="32" height="32" viewBox="0 0 32 32" fill="none" xmlns="http://www.w3.org/2000/svg">
<rect x="0.5" y="0.5" width="31" height="31" rx="4.5" fill="white"/>
<rect x="0.5" y="0.5" width="31" height="31" rx="4.5" stroke="#C0D9D8"/>
<path d="M10.2853 16.3626L11.279 17.359L13.1669 15.2665M14.8561 16.3626H18.6319M10.2853 12.7755L11.279 13.7719L13.1669 11.6795M14.8561 12.7755H18.6319M21.0167 17.8572C19.0411 17.8572 17.4395 19.4632 17.4395 21.4442C17.4395 23.4253 19.0411 25.0312 21.0167 25.0312C22.9922 25.0312 24.5938 23.4253 24.5938 21.4442C24.5938 19.4632 22.9922 17.8572 21.0167 17.8572ZM21.0167 17.8572V6H8V22.5403H17.4395M21.0167 19.4514V21.4442L20.023 22.5403M10.4841 9.38775L11.4778 10.3842L13.3656 8.29172M15.0548 9.38775H18.8307" stroke="black"/>
</svg>
