<svg width="" height="" viewBox="0 0 32 32" fill="none" xmlns="http://www.w3.org/2000/svg">
<rect x="1" y="1" width="30" height="30" rx="4.5" stroke="#000"/>
<path d="M23 20C23.55 20 24 20.45 24 21V23C24 23.0343 23.9985 23.0682 23.9951 23.1016C23.9472 23.5709 23.5709 23.9472 23.1016 23.9951L23 24H9C8.48426 24 8.05618 23.6043 8.00488 23.1016L8 23V21C8 20.45 8.45 20 9 20C9.55 20 10 20.45 10 21V22H22V21C22 20.45 22.45 20 23 20ZM16 7C16.553 7 17 7.448 17 8V15.999L19.4004 14.2002C19.8424 13.8674 20.4688 13.9584 20.7998 14.4004C21.1317 14.8424 21.0416 15.4688 20.5996 15.7998L16.5996 18.7998C16.4226 18.9327 16.2109 19 16 19C15.799 19 15.5978 18.9393 15.4248 18.8184L11.4248 16.0039C10.9731 15.686 10.864 15.0622 11.1816 14.6113C11.4996 14.1593 12.1232 14.0502 12.5752 14.3682L15.0029 16.0752C15.0011 16.0504 15 16.0253 15 16V8C15 7.448 15.447 7 16 7Z" fill="#223345"/>
<mask id="mask0_2011_377" style="mask-type:luminance" maskUnits="userSpaceOnUse" x="8" y="7" width="16" height="17">
<path d="M23 20C23.55 20 24 20.45 24 21V23C24 23.0343 23.9985 23.0682 23.9951 23.1016C23.9472 23.5709 23.5709 23.9472 23.1016 23.9951L23 24H9C8.48426 24 8.05618 23.6043 8.00488 23.1016L8 23V21C8 20.45 8.45 20 9 20C9.55 20 10 20.45 10 21V22H22V21C22 20.45 22.45 20 23 20ZM16 7C16.553 7 17 7.448 17 8V15.999L19.4004 14.2002C19.8424 13.8674 20.4688 13.9584 20.7998 14.4004C21.1317 14.8424 21.0416 15.4688 20.5996 15.7998L16.5996 18.7998C16.4226 18.9327 16.2109 19 16 19C15.799 19 15.5978 18.9393 15.4248 18.8184L11.4248 16.0039C10.9731 15.686 10.864 15.0622 11.1816 14.6113C11.4996 14.1593 12.1232 14.0502 12.5752 14.3682L15.0029 16.0752C15.0011 16.0504 15 16.0253 15 16V8C15 7.448 15.447 7 16 7Z" fill="white"/>
</mask>
<g mask="url(#mask0_2011_377)">
</g>
</svg>
