<svg
                xmlns="http://www.w3.org/2000/svg"
                width="24.025"
                height="13.104"
                viewBox="0 0 24.025 13.104"
              >
                <path
                  id="ic_timeline_24px"
                  d="M25.025,8.184a2.19,2.19,0,0,1-2.184,2.184,1.856,1.856,
                  0,0,1-.557-.076L18.4,14.168a1.929,1.929,0,0,1,.076.568,2.184,
                  2.184,0,0,1-4.368,0,1.929,1.929,0,0,1,.076-.568L11.4,11.384a2.147,
                  2.147,0,0,1-1.136,0l-4.969,4.98a1.856,1.856,0,0,1,.076.557,2.184,
                  2.184,0,1,1-2.184-2.184,1.856,1.856,0,0,1,.557.076l4.98-4.969a1.929,
                  1.929,0,0,1-.076-.568,2.184,2.184,0,0,1,4.368,0,1.929,1.929,0,0,1-.
                  076.568l2.785,2.785a2.147,2.147,0,0,1,1.136,0l3.877-3.888a1.856,
                  1.856,0,0,1-.076-.557,2.184,2.184,0,1,1,4.368,0Z"
                  transform="translate(-1 -6)"
                  fill=""
                /></svg>