<svg xmlns="http://www.w3.org/2000/svg" width="90" height="90" viewBox="0 0 90 90"><defs><style>.a{fill:#646464;}</style></defs><g transform="translate(-536 -277)"><g transform="translate(536 277)"><path class="a" d="M61.5,0h-33A4.5,4.5,0,0,0,24,4.5v54A4.5,4.5,0,0,0,28.5,63h9V60h-9A1.5,1.5,0,0,1,27,58.5V4.5A1.5,1.5,0,0,1,28.5,3h33A1.5,1.5,0,0,1,63,4.5v54A1.5,1.5,0,0,1,61.5,60h-9v3h9A4.5,4.5,0,0,0,66,58.5V4.5A4.5,4.5,0,0,0,61.5,0Zm0,0"/><path class="a" d="M4.5,57H21V54H4.5A1.5,1.5,0,0,1,3,52.5v-42A1.5,1.5,0,0,1,4.5,9H21V6H4.5A4.5,4.5,0,0,0,0,10.5v42A4.5,4.5,0,0,0,4.5,57Zm0,0"/><path class="a" d="M36,7.5h3v3H36Zm0,0"/><path class="a" d="M42,7.5H54v3H42Zm0,0"/><path class="a" d="M31.5,15h3v6h-3Zm0,0"/><path class="a" d="M37.5,15h3v6h-3Zm0,0"/><path class="a" d="M43.5,15h3v6h-3Zm0,0"/><path class="a" d="M49.5,15h3v6h-3Zm0,0"/><path class="a" d="M55.5,15h3v6h-3Zm0,0"/><path class="a" d="M43.5,25.5H54v3H43.5Zm0,0"/><path class="a" d="M40.5,52.5h9a4.5,4.5,0,0,0,0-9h-9a4.5,4.5,0,0,0,0,9Zm0-6h9a1.5,1.5,0,0,1,0,3h-9a1.5,1.5,0,0,1,0-3Zm0,0"/><path class="a" d="M16.5,12H21v3H16.5Zm0,0"/><path class="a" d="M6,19.5H9V24H6Zm0,0"/><path class="a" d="M12,19.5h3V24H12Zm0,0"/><path class="a" d="M18,19.5h3V24H18Zm0,0"/><path class="a" d="M10.5,12h3v3h-3Zm0,0"/><path class="a" d="M12,49.5h9v-3H12a1.5,1.5,0,1,1,0-3h9v-3H12a4.5,4.5,0,0,0,0,9Zm0,0"/><path class="a" d="M85.5,6H69V9H85.5A1.5,1.5,0,0,1,87,10.5v42A1.5,1.5,0,0,1,85.5,54H69v3H85.5A4.5,4.5,0,0,0,90,52.5v-42A4.5,4.5,0,0,0,85.5,6Zm0,0"/><path class="a" d="M69,12H79.5v3H69Zm0,0"/><path class="a" d="M81,19.5h3V24H81Zm0,0"/><path class="a" d="M75,19.5h3V24H75Zm0,0"/><path class="a" d="M69,19.5h3V24H69Zm0,0"/><path class="a" d="M69,40.5v3h9a1.5,1.5,0,0,1,0,3H69v3h9a4.5,4.5,0,0,0,0-9Zm0,0"/><path class="a" d="M67.5,88.5V72.16a4.626,4.626,0,0,0-3.75-4.6,4.522,4.522,0,0,0-3.658,1.011c-.03.024-.06.05-.089.077a4.49,4.49,0,0,0-6,0,4.673,4.673,0,0,0-4.5-.893V60.16a4.626,4.626,0,0,0-3.75-4.6A4.5,4.5,0,0,0,40.5,60V78.351l-3.981-2.388a4.118,4.118,0,0,0-3.989-.15l-.239.119a4.149,4.149,0,0,0-.554,7.086l9.391,6.706A1.494,1.494,0,0,0,42,90H66A1.5,1.5,0,0,0,67.5,88.5Zm-3-1.5H42.48l-9-6.428a1.151,1.151,0,0,1,.15-1.964l.239-.116a1.139,1.139,0,0,1,1.1.042l6.253,3.75A1.5,1.5,0,0,0,43.5,81V60a1.5,1.5,0,0,1,1.762-1.477A1.624,1.624,0,0,1,46.5,60.16V72a1.5,1.5,0,0,0,3,0,1.5,1.5,0,0,1,3,0,1.5,1.5,0,0,0,3,0,1.5,1.5,0,0,1,3,0,1.5,1.5,0,1,0,3,0,1.5,1.5,0,0,1,1.762-1.477A1.624,1.624,0,0,1,64.5,72.16Zm0,0"/><path class="a" d="M36,25.5h4.5v3H36Zm0,0"/><path class="a" d="M36,31.5H54v3H36Zm0,0"/><path class="a" d="M39,37.5H51v3H39Zm0,0"/><path class="a" d="M12,28.5h9v3H12Zm0,0"/><path class="a" d="M15,34.5h6v3H15Zm0,0"/><path class="a" d="M69,28.5h7.5v3H69Zm0,0"/><path class="a" d="M69,34.5h4.5v3H69Zm0,0"/></g></g></svg>