<svg xmlns="http://www.w3.org/2000/svg" width="174.038" height="71.017" viewBox="0 0 174.038 71.017"><defs><style>.a,.b{opacity:0.8;}.b,.c,.d,.e,.f{fill:#494299;}.b,.c{fill-rule:evenodd;}.d{font-size:14px;font-family:OpenSans-Extrabold, Open Sans;font-weight:800;}.e{font-size:6px;font-family:Helvetica;}</style></defs><g transform="translate(-8.107 -15.136)"><g class="a" transform="translate(8.107 15.136)"><path class="b" d="M74.041,219.96a30.61,30.61,0,0,1,.406-5.761,36.136,36.136,0,0,1,2.49-8.379,35.669,35.669,0,0,1,5.333-8.636,35.142,35.142,0,0,1,12.088-9.32,34.141,34.141,0,0,1,10.089-3.067,20.669,20.669,0,0,1,5.077-.3.722.722,0,0,1,.224.47c.011,2.063.128,4.157-.064,6.22a1.477,1.477,0,0,1-1.379.513,25.866,25.866,0,0,0-10.356,2.4,28.731,28.731,0,0,0-12.141,10.431,27.623,27.623,0,0,0-3.719,8.272,24.113,24.113,0,0,0-.8,5.867c0,.524.075,1.1-.513,1.411a58.032,58.032,0,0,1-6.242.085A.537.537,0,0,1,74.041,219.96Z" transform="translate(-73.996 -184.439)"/><path class="c" d="M406.211,191.713c0-2.287-.011-4.574-.011-6.861a27.286,27.286,0,0,1,6.188.481,35.668,35.668,0,0,1,26.6,21.332,43.8,43.8,0,0,1,1.528,4.745,34.04,34.04,0,0,1,1.176,8.272,5.808,5.808,0,0,1-.053.62.685.685,0,0,1-.556.235,58.54,58.54,0,0,1-6.124-.075c-.566-.353-.524-.962-.524-1.507a24.762,24.762,0,0,0-1.379-7.492,28.436,28.436,0,0,0-15.615-17.111,26.949,26.949,0,0,0-7.984-2.159A7.836,7.836,0,0,1,406.211,191.713Z" transform="translate(-370.673 -184.781)"/><path class="b" d="M432.208,516.711q3.447-.016,6.872-.011a28.817,28.817,0,0,1-.481,6.209,33.975,33.975,0,0,1-2.48,8.058,34.8,34.8,0,0,1-9.854,13.082,35.626,35.626,0,0,1-8.924,5.429,32.433,32.433,0,0,1-9.875,2.5,22.951,22.951,0,0,1-3.826.192.707.707,0,0,1-.267-.577c-.011-2.031-.118-4.093.075-6.135.139-.3.427-.321.695-.363a26.736,26.736,0,0,1,2.768-.31A26.72,26.72,0,0,0,418.153,541a27.649,27.649,0,0,0,6.306-5.194,28.517,28.517,0,0,0,5.91-9.833,26.135,26.135,0,0,0,1.539-8.678C431.9,517.074,431.791,516.753,432.208,516.711Z" transform="translate(-368.113 -481.189)"/><g transform="translate(0 35.564)"><path class="c" d="M109.314,552.619a29.071,29.071,0,0,1-5.814-.417,35.025,35.025,0,0,1-8.4-2.5,35.759,35.759,0,0,1-8.785-5.472,36.806,36.806,0,0,1-8.935-11.436,42.3,42.3,0,0,1-1.774-4.222,1.269,1.269,0,0,1-.128-.727,9.488,9.488,0,0,1-.962-3.88c-.064-.128-.075-.246-.118-.321a3.065,3.065,0,0,1-.278-1.539v-.011a32.976,32.976,0,0,1-.3-4.895h6.872a.127.127,0,0,1,.1.053.654.654,0,0,1,.064.438,10.163,10.163,0,0,1,.064,1.8,26.81,26.81,0,0,0,.363,2.9,2.751,2.751,0,0,1,.31.844,28.365,28.365,0,0,0,10.292,16.213,27.925,27.925,0,0,0,11.82,5.483,32.121,32.121,0,0,0,4.168.481,2.006,2.006,0,0,1,1.421.363C109.314,548.055,109.314,550.342,109.314,552.619Z" transform="translate(-73.787 -517.2)"/></g></g><text class="d" transform="translate(90.537 47.858)"><tspan x="0" y="0">HealthThink</tspan></text><text class="e" transform="translate(149.145 58.728)"><tspan x="0" y="0">ANALYTICS</tspan></text><rect class="f" width="53.908" height="4.339" transform="translate(90.777 56.364)"/><path class="c" d="M241.362,661.69H224.39a5.4,5.4,0,0,1-1.678-.1,1.581,1.581,0,0,1-.834-.994c-.043-.224.449-.695.77-.8a3.777,3.777,0,0,1,1.475-.117h34.788c1.753,0,2.522.342,2.341,1.069-.321,1.282-1.432.9-2.287.919C253.1,661.7,247.229,661.69,241.362,661.69Z" transform="translate(-197.941 -593.74)"/><path class="f" d="M256.116,367.113H249.8V355.025h6.316Zm9.01.011H258.81V347.683h6.316Zm-1.357-24.945a2.674,2.674,0,0,1-3.057.353.52.52,0,0,0-.406.085q-2.341,1.892-4.67,3.826a.654.654,0,0,0-.086.524,2.682,2.682,0,0,1-1.657,3.089,2.631,2.631,0,0,1-3.292-1.283,2.671,2.671,0,0,1,.438-3.014,2.617,2.617,0,0,1,2.982-.588.617.617,0,0,0,.77-.1c1.453-1.218,2.918-2.4,4.382-3.591a.583.583,0,0,0,.235-.684,2.521,2.521,0,0,1,1.026-2.725,2.631,2.631,0,0,1,4.157,2.373.5.5,0,0,0,.289.566c1.336.769,2.672,1.56,4,2.351a.487.487,0,0,0,.641,0,2.542,2.542,0,0,1,2.394-.31.709.709,0,0,0,.566-.128c1.646-1.6,3.27-3.238,4.927-4.841a.527.527,0,0,0,.128-.673,2.593,2.593,0,0,1,1.079-3.057,2.634,2.634,0,0,1,3.27.353,2.683,2.683,0,0,1,.363,3.324,2.571,2.571,0,0,1-3.014,1.058.649.649,0,0,0-.8.192c-1.582,1.582-3.163,3.142-4.756,4.713-.182.182-.331.331-.2.652a2.459,2.459,0,0,1-.673,2.822,2.627,2.627,0,0,1-4.414-2.052.717.717,0,0,0-.438-.78C266.537,343.814,265.158,342.991,263.769,342.179Zm10.4,24.945h-6.306V352.952h6.306Zm9.02,0h-6.316V344.038h6.316Z" transform="translate(-222.881 -302.829)"/></g></svg>