<svg xmlns="http://www.w3.org/2000/svg" width="277" height="103.948" viewBox="0 0 277 103.948"><defs><style>.a,.b{opacity:0.8;}.b,.c,.d,.e,.f{fill:#fff;}.b,.c{fill-rule:evenodd;}.d{font-size:22px;font-family:OpenSans-Extrabold, Open Sans;font-weight:800;}.e{font-size:13px;font-family:Helvetica;}</style></defs><g transform="translate(-8.107 -15.136)"><g class="a" transform="translate(8.107 15.136)"><path class="b" d="M74.05,237.505a45.73,45.73,0,0,1,.607-8.606,53.985,53.985,0,0,1,3.72-12.518,53.287,53.287,0,0,1,7.967-12.9A52.5,52.5,0,0,1,104.4,189.558a51,51,0,0,1,15.072-4.582,30.876,30.876,0,0,1,7.584-.447,1.078,1.078,0,0,1,.335.7c.016,3.082.192,6.211-.1,9.293a2.207,2.207,0,0,1-2.06.766,38.641,38.641,0,0,0-15.472,3.592,42.922,42.922,0,0,0-18.138,15.583,41.266,41.266,0,0,0-5.556,12.358,36.022,36.022,0,0,0-1.2,8.766c0,.782.112,1.645-.766,2.108a86.7,86.7,0,0,1-9.324.128A.8.8,0,0,1,74.05,237.505Z" transform="translate(-73.984 -184.439)"/><path class="c" d="M406.216,195.117c0-3.417-.016-6.834-.016-10.25a40.762,40.762,0,0,1,9.245.719,53.285,53.285,0,0,1,39.741,31.869,65.441,65.441,0,0,1,2.283,7.089,50.856,50.856,0,0,1,1.756,12.358,8.687,8.687,0,0,1-.08.926,1.024,1.024,0,0,1-.83.351,87.45,87.45,0,0,1-9.149-.112c-.846-.527-.782-1.437-.782-2.251a36.994,36.994,0,0,0-2.06-11.193A42.481,42.481,0,0,0,423,199.061a40.26,40.26,0,0,0-11.927-3.225C409.441,195.708,407.749,195.931,406.216,195.117Z" transform="translate(-353.125 -184.761)"/><path class="b" d="M446.469,516.716q5.149-.024,10.266-.016a43.052,43.052,0,0,1-.719,9.276,50.754,50.754,0,0,1-3.7,12.039,51.992,51.992,0,0,1-14.721,19.543,53.222,53.222,0,0,1-13.332,8.111,48.453,48.453,0,0,1-14.753,3.736,34.287,34.287,0,0,1-5.716.288,1.056,1.056,0,0,1-.4-.862c-.016-3.034-.176-6.115.112-9.165.207-.447.639-.479,1.038-.543a39.95,39.95,0,0,1,4.135-.463,39.918,39.918,0,0,0,16.8-5.652,41.308,41.308,0,0,0,9.42-7.76,42.6,42.6,0,0,0,8.829-14.689,39.045,39.045,0,0,0,2.3-12.965C446.006,517.259,445.847,516.78,446.469,516.716Z" transform="translate(-350.716 -465.797)"/><g transform="translate(0 50.983)"><path class="c" d="M126.861,570.113a43.433,43.433,0,0,1-8.686-.623,52.323,52.323,0,0,1-12.55-3.736A53.42,53.42,0,0,1,92.5,557.579a54.986,54.986,0,0,1-13.348-17.084,63.182,63.182,0,0,1-2.65-6.307,1.9,1.9,0,0,1-.192-1.086,14.174,14.174,0,0,1-1.437-5.8c-.1-.192-.112-.367-.176-.479a4.579,4.579,0,0,1-.415-2.3v-.016c-.16-2.443-.655-4.918-.447-7.313H84.1a.19.19,0,0,1,.144.08.977.977,0,0,1,.1.655,15.184,15.184,0,0,1,.1,2.682,40.053,40.053,0,0,0,.543,4.327,4.111,4.111,0,0,1,.463,1.261,42.375,42.375,0,0,0,15.376,24.221,41.72,41.72,0,0,0,17.659,8.191,48.006,48.006,0,0,0,6.227.719,3,3,0,0,1,2.124.543C126.861,563.3,126.861,566.712,126.861,570.113Z" transform="translate(-73.787 -517.2)"/></g></g><text class="d" transform="translate(125.551 61.95)"><tspan x="0" y="0">HealthThink</tspan></text><text class="e" transform="translate(213.107 78.529)"><tspan x="0" y="0">ANALYTICS</tspan></text><rect class="f" width="80.535" height="6.482" transform="translate(128.11 75.401)"/><path class="c" d="M250.986,662.689H225.632a8.075,8.075,0,0,1-2.507-.144,2.362,2.362,0,0,1-1.245-1.485c-.064-.335.671-1.038,1.15-1.2a5.642,5.642,0,0,1,2.2-.176H277.2c2.619,0,3.768.511,3.5,1.6-.479,1.916-2.139,1.341-3.417,1.373C268.518,662.705,259.752,662.689,250.986,662.689Z" transform="translate(-190.124 -570.234)"/><path class="f" d="M259.236,383.5H249.8V365.438h9.436Zm13.46.016H263.26V354.469H272.7Zm-2.028-37.266a4,4,0,0,1-4.566.527.776.776,0,0,0-.607.128q-3.5,2.826-6.977,5.716a.977.977,0,0,0-.128.782,4.006,4.006,0,0,1-2.475,4.614A3.931,3.931,0,0,1,251,356.1a3.99,3.99,0,0,1,.655-4.5,3.909,3.909,0,0,1,4.455-.878.921.921,0,0,0,1.15-.144c2.171-1.82,4.359-3.592,6.546-5.365a.872.872,0,0,0,.351-1.022,3.766,3.766,0,0,1,1.533-4.071,3.931,3.931,0,0,1,6.211,3.545.753.753,0,0,0,.431.846c2,1.15,3.992,2.331,5.971,3.513a.728.728,0,0,0,.958,0,3.8,3.8,0,0,1,3.577-.463,1.06,1.06,0,0,0,.846-.192c2.459-2.395,4.886-4.838,7.361-7.233a.788.788,0,0,0,.192-1.006,3.874,3.874,0,0,1,1.613-4.566,3.934,3.934,0,0,1,4.886.527,4.008,4.008,0,0,1,.543,4.966,3.841,3.841,0,0,1-4.5,1.581.969.969,0,0,0-1.2.287c-2.363,2.363-4.726,4.694-7.105,7.041-.271.271-.5.5-.3.974a3.673,3.673,0,0,1-1.006,4.215,3.924,3.924,0,0,1-6.594-3.066,1.072,1.072,0,0,0-.655-1.165C274.8,348.689,272.744,347.46,270.668,346.246ZM286.2,383.512h-9.42V362.341h9.42Zm13.476,0h-9.436V349.024h9.436Z" transform="translate(-213.59 -295.843)"/></g></svg>