<svg xmlns="http://www.w3.org/2000/svg" xmlns:xlink="http://www.w3.org/1999/xlink" width="77" height="39" viewBox="0 0 77 39"><defs><style>.a,.i{fill:#fff;}.a{stroke:#707070;}.b{clip-path:url(#a);}.c{fill:#ffb600;}.d{fill:#f7981d;}.e{fill:#ff8500;}.f{fill:#ff5050;}.g{fill:#e52836;}.h{fill:#cb2026;}.j{fill:#dce5e5;}</style><clipPath id="a"><rect class="a" width="77" height="39" transform="translate(212 1120)"/></clipPath></defs><g class="b" transform="translate(-212 -1120)"><g transform="translate(218 1107)"><path class="c" d="M65,32.5a19.5,19.5,0,1,1-39,0h0a19.5,19.5,0,1,1,39,0Z"/><path class="d" d="M45.5,13A19.551,19.551,0,0,1,65,32.5h0a19.5,19.5,0,1,1-39,0"/><path class="e" d="M45.5,13A19.551,19.551,0,0,1,65,32.5h0A19.484,19.484,0,0,1,45.5,52"/><path class="f" d="M19.294,13A19.5,19.5,0,0,0,19.5,52a19.727,19.727,0,0,0,13.1-5.056h0a18.54,18.54,0,0,0,1.96-2.063H30.54a23.8,23.8,0,0,1-1.444-1.96h6.913a13.217,13.217,0,0,0,1.135-2.063H27.96a12.3,12.3,0,0,1-.825-2.063h10.73A20.487,20.487,0,0,0,38.9,32.6a26.632,26.632,0,0,0-.413-4.127H26.516a15.084,15.084,0,0,1,.516-2.063h10.73a12.3,12.3,0,0,0-.825-2.063H27.857a20.461,20.461,0,0,1,1.135-2.063H35.9a9.812,9.812,0,0,0-1.548-2.063H30.54a17.586,17.586,0,0,1,1.96-1.96,19.039,19.039,0,0,0-13.1-5.056C19.4,13,19.4,13,19.294,13Z"/><path class="g" d="M0,32.5A19.484,19.484,0,0,0,19.5,52a19.727,19.727,0,0,0,13.1-5.056h0a18.54,18.54,0,0,0,1.96-2.063H30.54a23.8,23.8,0,0,1-1.444-1.96h6.913a13.217,13.217,0,0,0,1.135-2.063H27.96a12.3,12.3,0,0,1-.825-2.063h10.73A20.487,20.487,0,0,0,38.9,32.6a26.632,26.632,0,0,0-.413-4.127H26.516a15.084,15.084,0,0,1,.516-2.063h10.73a12.3,12.3,0,0,0-.825-2.063H27.857a20.461,20.461,0,0,1,1.135-2.063H35.9a9.812,9.812,0,0,0-1.548-2.063H30.54a17.586,17.586,0,0,1,1.96-1.96,19.039,19.039,0,0,0-13.1-5.056h-.1"/><path class="h" d="M19.5,52a19.727,19.727,0,0,0,13.1-5.056h0a18.54,18.54,0,0,0,1.96-2.063H30.54a23.8,23.8,0,0,1-1.444-1.96h6.913a13.217,13.217,0,0,0,1.135-2.063H27.96a12.3,12.3,0,0,1-.825-2.063h10.73A20.487,20.487,0,0,0,38.9,32.6a26.632,26.632,0,0,0-.413-4.127H26.516a15.084,15.084,0,0,1,.516-2.063h10.73a12.3,12.3,0,0,0-.825-2.063H27.857a20.461,20.461,0,0,1,1.135-2.063H35.9a9.812,9.812,0,0,0-1.548-2.063H30.54a17.586,17.586,0,0,1,1.96-1.96,19.039,19.039,0,0,0-13.1-5.056h-.1"/><path class="i" d="M26.413,37.452l.31-1.754a4.469,4.469,0,0,1-.516.1c-.722,0-.825-.413-.722-.619l.619-3.611h1.135l.31-1.96H26.516l.206-1.238H24.659s-1.238,6.81-1.238,7.635a1.549,1.549,0,0,0,1.651,1.754A3.167,3.167,0,0,0,26.413,37.452Z"/><path class="i" d="M27.135,34.151a3.282,3.282,0,0,0,3.611,3.611,5.357,5.357,0,0,0,2.167-.31l.413-1.96a6.185,6.185,0,0,1-2.167.516c-2.27,0-1.857-1.651-1.857-1.651h4.23a13.377,13.377,0,0,0,.31-1.857,2.8,2.8,0,0,0-2.992-2.992C28.683,29.3,27.135,31.571,27.135,34.151Zm3.611-2.992c1.135,0,.929,1.341.929,1.444H29.4C29.4,32.5,29.611,31.159,30.746,31.159Z"/><path class="i" d="M43.849,37.452l.413-2.27a5.071,5.071,0,0,1-1.754.516c-1.444,0-2.063-1.135-2.063-2.373,0-2.476,1.238-3.817,2.683-3.817a3.445,3.445,0,0,1,1.857.619l.31-2.167a7.254,7.254,0,0,0-2.373-.516c-2.373,0-4.746,2.063-4.746,5.984,0,2.579,1.238,4.333,3.714,4.333A9.26,9.26,0,0,0,43.849,37.452Z"/><path class="i" d="M15.063,29.3a7.307,7.307,0,0,0-2.476.413l-.31,1.754a6.1,6.1,0,0,1,2.27-.413c.722,0,1.341.1,1.341.722,0,.413-.1.516-.1.516h-.929c-1.754,0-3.714.722-3.714,3.1,0,1.857,1.238,2.27,1.96,2.27a3.1,3.1,0,0,0,2.167-.929l-.1.825h1.857l.825-5.675A2.445,2.445,0,0,0,15.063,29.3Zm.413,4.643c0,.31-.206,1.96-1.444,1.96a.805.805,0,0,1-.825-.825c0-.516.31-1.238,1.857-1.238A1.627,1.627,0,0,0,15.476,33.944Z"/><path class="i" d="M19.81,37.659c.516,0,3.1.1,3.1-2.683,0-2.579-2.476-2.063-2.476-3.1,0-.516.413-.722,1.135-.722.31,0,1.444.1,1.444.1l.31-1.857a7.837,7.837,0,0,0-1.96-.206c-1.548,0-3.1.619-3.1,2.683,0,2.373,2.579,2.167,2.579,3.1,0,.619-.722.722-1.238.722a6.747,6.747,0,0,1-1.857-.31l-.31,1.857C17.54,37.452,18.056,37.659,19.81,37.659Z"/><path class="i" d="M60.976,27.651l-.413,2.786A2.861,2.861,0,0,0,58.6,29.4c-1.857,0-3.508,2.27-3.508,4.952,0,1.651.825,3.4,2.579,3.4a2.754,2.754,0,0,0,1.96-.825l-.1.722H61.6l1.548-9.9Zm-.929,5.468c0,1.135-.516,2.579-1.651,2.579-.722,0-1.135-.619-1.135-1.651,0-1.651.722-2.683,1.651-2.683C59.635,31.365,60.048,31.881,60.048,33.119Z"/><path class="i" d="M3.817,37.556l1.238-7.429.206,7.429H6.706l2.683-7.429L8.254,37.556h2.167l1.651-9.9h-3.4L6.6,33.738l-.1-6.087H3.508l-1.651,9.9Z"/><path class="i" d="M35.8,37.556c.619-3.4.722-6.19,2.167-5.675a8.1,8.1,0,0,1,.722-2.373h-.413c-.929,0-1.651,1.238-1.651,1.238l.206-1.135h-1.96l-1.341,8.048H35.8Z"/><path class="i" d="M48.6,29.3a7.307,7.307,0,0,0-2.476.413l-.31,1.754a6.1,6.1,0,0,1,2.27-.413c.722,0,1.341.1,1.341.722,0,.413-.1.516-.1.516h-.929c-1.754,0-3.714.722-3.714,3.1,0,1.857,1.238,2.27,1.96,2.27A3.1,3.1,0,0,0,48.8,36.73l-.1.825h1.857l.825-5.675C51.484,29.4,49.317,29.3,48.6,29.3Zm.516,4.643c0,.31-.206,1.96-1.444,1.96a.805.805,0,0,1-.825-.825c0-.516.31-1.238,1.857-1.238C49.008,33.944,49.008,33.944,49.111,33.944Z"/><path class="i" d="M53.135,37.556c.619-3.4.722-6.19,2.167-5.675a8.1,8.1,0,0,1,.722-2.373h-.413c-.929,0-1.651,1.238-1.651,1.238l.206-1.135h-1.96l-1.341,8.048h2.27Z"/><path class="j" d="M23.214,36.008a1.549,1.549,0,0,0,1.651,1.754,3.927,3.927,0,0,0,1.548-.31l.31-1.754a4.469,4.469,0,0,1-.516.1c-.722,0-.825-.413-.722-.619l.619-3.611h1.135l.31-1.96H26.516l.206-1.238"/><path class="j" d="M28.167,34.151c0,2.889.929,3.611,2.579,3.611a5.357,5.357,0,0,0,2.167-.31l.413-1.96a6.185,6.185,0,0,1-2.167.516c-2.27,0-1.857-1.651-1.857-1.651h4.23a13.377,13.377,0,0,0,.31-1.857,2.8,2.8,0,0,0-2.992-2.992C28.683,29.3,28.167,31.571,28.167,34.151Zm2.579-2.992c1.135,0,1.341,1.341,1.341,1.444H29.4C29.4,32.5,29.611,31.159,30.746,31.159Z"/><path class="j" d="M43.849,37.452l.413-2.27a5.071,5.071,0,0,1-1.754.516c-1.444,0-2.063-1.135-2.063-2.373,0-2.476,1.238-3.817,2.683-3.817a3.445,3.445,0,0,1,1.857.619l.31-2.167a7.254,7.254,0,0,0-2.373-.516c-2.373,0-3.714,2.063-3.714,5.984,0,2.579.206,4.333,2.683,4.333A9.26,9.26,0,0,0,43.849,37.452Z"/><path class="j" d="M12.278,31.571a6.1,6.1,0,0,1,2.27-.413c.722,0,1.341.1,1.341.722,0,.413-.1.516-.1.516h-.929c-1.754,0-3.714.722-3.714,3.1,0,1.857,1.238,2.27,1.96,2.27a3.1,3.1,0,0,0,2.167-.929l-.1.825h1.857l.825-5.675c0-2.373-2.063-2.476-2.889-2.476m1.548,4.437a3.378,3.378,0,0,1-2.476,1.96.805.805,0,0,1-.825-.825c0-.516.31-1.238,1.857-1.238A8.429,8.429,0,0,0,16.508,33.944Z"/><path class="j" d="M17.54,37.452a8.732,8.732,0,0,0,2.373.206c.516,0,3.1.1,3.1-2.683,0-2.579-2.476-2.063-2.476-3.1,0-.516.413-.722,1.135-.722.31,0,1.444.1,1.444.1l.31-1.857a7.837,7.837,0,0,0-1.96-.206c-1.548,0-2.063.619-2.063,2.683,0,2.373,1.548,2.167,1.548,3.1,0,.619-.722.722-1.238.722"/><path class="j" d="M60.563,30.437A2.861,2.861,0,0,0,58.6,29.4c-1.857,0-2.476,2.27-2.476,4.952,0,1.651-.206,3.4,1.548,3.4a2.754,2.754,0,0,0,1.96-.825l-.1.722H61.6l1.548-9.9M60.46,33.119c0,1.135-.929,2.579-2.063,2.579-.722,0-1.135-.619-1.135-1.651,0-1.651.722-2.683,1.651-2.683A1.577,1.577,0,0,1,60.46,33.119Z"/><path class="j" d="M3.817,37.556l1.238-7.429.206,7.429H6.706l2.683-7.429L8.254,37.556h2.167l1.651-9.9H9.492L6.6,33.738l-.1-6.087H5.365l-3.508,9.9Z"/><path class="j" d="M33.635,37.556H35.8c.619-3.4.722-6.19,2.167-5.675a8.1,8.1,0,0,1,.722-2.373h-.413c-.929,0-1.651,1.238-1.651,1.238l.206-1.135"/><path class="j" d="M45.81,31.571a6.1,6.1,0,0,1,2.27-.413c.722,0,1.341.1,1.341.722,0,.413-.1.516-.1.516h-.929c-1.754,0-3.714.722-3.714,3.1,0,1.857,1.238,2.27,1.96,2.27a3.1,3.1,0,0,0,2.167-.929l-.1.825h1.857l.825-5.675c0-2.373-2.063-2.476-2.889-2.476m1.548,4.437a3.378,3.378,0,0,1-2.476,1.96.805.805,0,0,1-.825-.825c0-.516.31-1.238,1.857-1.238A9.077,9.077,0,0,0,50.04,33.944Z"/><path class="j" d="M50.968,37.556h2.167c.619-3.4.722-6.19,2.167-5.675a8.1,8.1,0,0,1,.722-2.373h-.413c-.929,0-1.651,1.238-1.651,1.238l.206-1.135"/></g></g></svg>