<svg xmlns="http://www.w3.org/2000/svg" width="1381.608" height="428.426" viewBox="0 0 1381.608 428.426">
  <g id="Group_3126" data-name="Group 3126" transform="translate(-269.667 -170.735)">
    <g id="Group_1864" data-name="Group 1864" transform="translate(2229 2401.402)" opacity="0.34">
      <g id="Group_377" data-name="Group 377" transform="translate(-935 -2081.515)">
        <path id="Path_201" data-name="Path 201" d="M243.135,301.888c0,49.186-29.24,66.359-65.309,66.359s-65.31-17.174-65.31-66.359,65.31-111.757,65.31-111.757S243.135,252.7,243.135,301.888Z" transform="translate(-112.516 -139.553)" fill="#f2f2f2"/>
        <path id="Path_202" data-name="Path 202" d="M118.434,297.7l.668-41.164,27.837-50.925-27.731,44.468.3-18.509,19.185-36.844-19.106,31.946h0l.541-33.289,20.543-29.333-20.458,24.1.338-61.041-2.123,80.806.174-3.333L97.716,172.612l20.552,38.37-1.946,37.178-.058-.987L92.185,213.529l24.006,37.13-.244,4.65-.043.07.02.382-4.938,94.324h6.6l.791-48.72,23.947-37.039Z" transform="translate(-55.504 -76.532)" fill="#273b35"/>
        <path id="Path_203" data-name="Path 203" d="M685.707,199.552c0,60.088-35.722,81.069-79.787,81.069s-79.787-20.981-79.787-81.069S605.92,63.021,605.92,63.021,685.707,139.463,685.707,199.552Z" transform="translate(-361.551 -63.021)" fill="#f2f2f2"/>
        <path id="Path_204" data-name="Path 204" d="M558.3,208.409l.817-50.289,34.007-62.215-33.879,54.326.368-22.612,23.438-45.011-23.34,39.028h0l.66-40.669,25.1-35.835-24.994,29.44L560.891,0,558.3,98.719l.213-4.073L532.993,55.589,558.1,102.465l-2.378,45.42-.07-1.205-29.416-41.1,29.327,45.361-.3,5.68-.053.086.024.466L549.2,272.4h8.059l.967-59.521,29.255-45.25Z" transform="translate(-316.842 0)" fill="#273b35"/>
        <ellipse id="Ellipse_2" data-name="Ellipse 2" cx="122.556" cy="4.377" rx="122.556" ry="4.377" transform="translate(36.595 268.174)" fill="#273b35"/>
        <rect id="Rectangle_1266" data-name="Rectangle 1266" width="14.325" height="134.493" transform="translate(151.988 138.058)" fill="#131716"/>
        <path id="Path_205" data-name="Path 205" d="M431.9,386.628H343.967v-24.67H431.9l25.466,12.335Z" transform="translate(-207.099 -217.932)" fill="#50645d"/>
        <path id="Path_206" data-name="Path 206" d="M431.9,401.8H343.967v1.99H431.9l25.466-12.335-2.054-.995Z" transform="translate(-207.099 -235.091)" opacity="0.1"/>
        <path id="Path_207" data-name="Path 207" d="M197.433,468.628h87.938v-24.67H197.433l-25.466,12.335Z" transform="translate(-103.54 -267.303)" fill="#50645d"/>
        <path id="Path_208" data-name="Path 208" d="M174.021,472.458l-2.054.995,25.466,12.335h87.938V483.8H197.433Z" transform="translate(-103.54 -284.463)" opacity="0.1"/>
        <rect id="Rectangle_1267" data-name="Rectangle 1267" width="15.121" height="15.121" transform="translate(186.208 148.801)" fill="#348f71"/>
        <ellipse id="Ellipse_4" data-name="Ellipse 4" cx="7.56" cy="7.56" rx="7.56" ry="7.56" transform="translate(117.768 181.43)" fill="#348f71"/>
        <ellipse id="Ellipse_5" data-name="Ellipse 5" cx="4.377" cy="4.377" rx="4.377" ry="4.377" transform="translate(154.773 151.189)" fill="#2f2e41"/>
        <ellipse id="Ellipse_6" data-name="Ellipse 6" cx="4.377" cy="4.377" rx="4.377" ry="4.377" transform="translate(154.773 183.817)" fill="#2f2e41"/>
        <path id="Path_209" data-name="Path 209" d="M402.558,679.577c0,8.94-5.315,12.062-11.871,12.062q-.228,0-.455,0c-.3-.007-.6-.021-.9-.041-5.917-.419-10.514-3.7-10.514-12.016,0-8.6,11-19.463,11.822-20.266v0l.048-.046S402.558,670.636,402.558,679.577Z" transform="translate(-272.852 -422.013)" fill="#348f71"/>
        <path id="Path_210" data-name="Path 210" d="M400.343,690.271l4.342-6.067-4.353,6.733-.012.7c-.3-.007-.6-.021-.9-.041l.468-8.945,0-.069.008-.013.044-.845-4.364-6.75,4.377,6.116.01.179.354-6.758-3.736-6.975,3.781,5.788.368-14.011v0l-.061,11.049,3.719-4.38-3.734,5.332-.1,6.051,3.473-5.807-3.487,6.7-.055,3.364,5.041-8.083-5.06,9.257Z" transform="translate(-282.941 -422.013)" fill="#3f3d56"/>
      </g>
      <g id="Group_1862" data-name="Group 1862" transform="translate(-700.924 -2201.667)">
        <g id="Group_1838" data-name="Group 1838" transform="translate(54.973 325.22)">
          <path id="Path_316" data-name="Path 316" d="M879.348,738.609l7.963-7.355a15.686,15.686,0,0,1,6.735-1.961,3.811,3.811,0,0,1,3.351,1.571,3.86,3.86,0,0,1,.361,3.546,4.784,4.784,0,0,1-.692,1.12h0l0,0c-.238.3-.5.579-.755.856-.164.177-.346.367-.538.564a45.814,45.814,0,0,1-5.505,5.352c-1.607.964-5.144,3.537-9.325.643l.049-.041A4.031,4.031,0,0,1,879.348,738.609Z" transform="translate(-879.247 -673.869)" fill="#3b455a"/>
          <path id="Path_317" data-name="Path 317" d="M890.8,629.193l.643,9.23,3.155,44.935-3.155,5.228s-.643,4.18,4.181,3.859c1.435-.1,6.517-6.557,6.517-6.557l-.735-2.961,3.576-33.74-.033-9.8,1.711-10.881Z" transform="translate(-884.445 -628.507)" fill="#9f616a"/>
        </g>
        <g id="Group_1839" data-name="Group 1839" transform="translate(99.819 378.266)">
          <path id="Path_318" data-name="Path 318" d="M972.78,725.252a4.117,4.117,0,0,1,3.97.483,4.17,4.17,0,0,1,1.566,3.519,7.6,7.6,0,0,1-.821,2.521c-1.923,4.168-7.316,13.591-13.5,11.865a4.648,4.648,0,0,1-3.057-5.726C961.729,734.38,967.824,726.811,972.78,725.252Z" transform="translate(-960.797 -724.968)" fill="#3b455a"/>
        </g>
        <path id="Path_319" data-name="Path 319" d="M925.872,617.159l1.077,13.29,26.089,46.973s-3.751,6.551-1.372,7.12,9.353-1.415,9.368-8.813c-2.743-8.959-13.525-39.381-13.525-39.381l-5.048-7.85.074-14.753Z" transform="translate(-845.259 -296.642)" fill="#9f616a"/>
        <path id="Path_320" data-name="Path 320" d="M932.792,453.927c.206-3.918-1.047-14.14-2.334-17.8-4.694-13.356-5.6-19.938-5.6-30.809s-2.1-44.84-2.1-44.84l-9.838-10.557-20.087.564-11.154,3.678s-2.361,43.366-3.032,57.343c-.478,9.974-1.171,18.613-2.083,30.17a262.373,262.373,0,0,0,1.393,54.619s.882,9.383,1.277,10.205c.052.279.081.428.081.428H924.15v-16.1q2.23-7.754,4.252-15.566C930.122,468.641,932.409,461.2,932.792,453.927Z" transform="translate(-822.703 -177.899)" fill="#2f2e41"/>
        <path id="Path_321" data-name="Path 321" d="M934.523,353.029l3.814,4.552s-1.99,40.88-2.3,47.807S944.656,440,944.656,440l-36.979,4.823s-5.439-29.564-7-44.251,20.808-50.49,20.808-50.49Z" transform="translate(-833.882 -177.972)" fill="#348f71"/>
        <path id="Path_322" data-name="Path 322" d="M883.263,352.858l-7.547,3.582s1.062,44.13-.873,55.339c-1.18,6.832-5.772,28.958-5.772,28.958l11.942,4.086s7.352-27.676,8.812-42.362-.13-51.21-.13-51.21Z" transform="translate(-819.694 -178.499)" fill="#348f71"/>
        <g id="Group_1841" data-name="Group 1841" transform="translate(58.552 132.618)">
          <path id="Path_326" data-name="Path 326" d="M913.813,345.228q.282,1.3.565,2.606c.086.4.054,1.539.4,1.811a.912.912,0,0,0,.679.092c.67-.082,6.676-.847,6.611-1.229a21.067,21.067,0,0,0-.691-3.005c-.258-.79-.356-2.277-.833-2.876a10.817,10.817,0,0,1-3.276,1.47q-1.739.492-3.495.928Z" transform="translate(-898.364 -307.236)" fill="#8f575f"/>
          <g id="Group_1840" data-name="Group 1840">
            <path id="Path_323" data-name="Path 323" d="M892.237,311.811c-.98,3.792,1.269,7.537,3.238,10.735.8,1.307,2.05,3.125,1.012,4.616-1.162,1.67-4.046,1.335-5.316.086a7.749,7.749,0,0,1-1.719-3.242c-1.714-5.222-4.106-12.537-3.638-18.026.375-4.4,5.773-12.218,11.333-9.421a5.775,5.775,0,0,1,2.21,2.4,4.531,4.531,0,0,1,.716,1.786c.262,2.549-2.2,3.2-3.81,4.574A12.87,12.87,0,0,0,892.237,311.811Z" transform="translate(-885.756 -286.236)" fill="#3b455a"/>
            <path id="Path_324" data-name="Path 324" d="M905.839,328.261a11.589,11.589,0,0,1-8.48-6.193,20.817,20.817,0,0,1-1.992-10.228c.217-11.669,15.69-12.317,21.706-3.931C922.316,315.218,916.636,329.633,905.839,328.261Z" transform="translate(-890.078 -289.065)" fill="#9f616a"/>
            <path id="Path_325" data-name="Path 325" d="M917.187,302.622c.128,1.413.847,2.912,1.045,4.364.365,2.672-.234,6.14.745,8.581A16.454,16.454,0,0,0,927,311.636c2.053-1.9,1.684-4.729,2.143-7.531a36.07,36.07,0,0,0,.818-7.816c-.811-14.351-15.132-22.2-27.75-15.726-4.774,2.449-6.861,8.674-3.35,12.764,3.776,4.4,11.45,2.492,15.973,5.755A7.725,7.725,0,0,1,917.187,302.622Z" transform="translate(-890.864 -278.269)" fill="#3b455a"/>
          </g>
        </g>
        <path id="Path_327" data-name="Path 327" d="M870.162,242.949l3.676-10.852,9.767-3.187,1.25,6.526-5.6,5.946-1.179,5.588Z" transform="translate(-820.185 -123.435)" fill="#9f616a"/>
        <path id="Path_328" data-name="Path 328" d="M873.028,316.3l-20.71-19.09,12.512-46.892-10.535-2.163-21.922,47.027,2.434,15.013L866.3,335.5Z" transform="translate(-803.177 -132.095)" fill="#348f71"/>
        <g id="Group_1853" data-name="Group 1853" transform="translate(0 0)">
          <g id="Group_1852" data-name="Group 1852">
            <g id="Group_1846" data-name="Group 1846" transform="translate(0 141.38)">
              <path id="Path_333" data-name="Path 333" d="M800.143,294.714a16.867,16.867,0,1,0-7.9,32.794,17.422,17.422,0,0,0,5.288.475,16.887,16.887,0,0,0,2.613-33.269Z" transform="translate(-779.281 -294.201)" fill="#ebb044"/>
            </g>
            <g id="Group_1848" data-name="Group 1848" transform="translate(9.492 141.383)" opacity="0.1">
              <g id="Group_1847" data-name="Group 1847">
                <path id="Path_334" data-name="Path 334" d="M818.388,302.287a16.358,16.358,0,0,0-10.477-7.57,17.766,17.766,0,0,0-4.322-.509,16.917,16.917,0,0,1-6.079,32.056c-.321.022-.645.031-.969.034a18.062,18.062,0,0,0,3.468,1.214,17.422,17.422,0,0,0,5.288.475,16.98,16.98,0,0,0,13.09-25.7Z" transform="translate(-796.542 -294.207)"/>
              </g>
            </g>
            <g id="Group_1849" data-name="Group 1849" transform="translate(4.145)">
              <path id="Path_335" data-name="Path 335" d="M889.634,62.836c-7.782-11.662-20.064-19.584-36.5-23.545s-31.053-2.523-43.447,4.268c-10.775,5.9-18.333,15.187-22.463,27.588a7.891,7.891,0,0,0,5.637,10.164l9.788,2.359a7.888,7.888,0,0,0,9.263-4.989c2.436-6.713,6.221-11.414,11.571-14.371,6.476-3.578,14.541-4.241,23.969-1.97,9.4,2.265,16.194,6.622,20.2,12.949,3.983,6.308,4.877,14.179,2.657,23.394-3.06,12.7-8.761,20.383-16.942,22.829-8.616,2.574-21.013,1.859-36.872-2.13l-4.236-1.021a7.9,7.9,0,0,0-9.515,5.82l-8.888,36.89a7.889,7.889,0,0,0,5.82,9.516l9.929,2.392a7.885,7.885,0,0,0,9.515-5.82l5.757-23.891a.568.568,0,0,1,.664-.422c18.621,3.962,33.824,3.279,45.187-2.033,12.085-5.649,20.317-17.244,24.466-34.463C899.317,89.2,897.45,74.558,889.634,62.836Z" transform="translate(-786.819 -37.11)" fill="#ebb044"/>
            </g>
            <g id="Group_1851" data-name="Group 1851" transform="translate(42.116 0.002)" opacity="0.1">
              <g id="Group_1850" data-name="Group 1850">
                <path id="Path_336" data-name="Path 336" d="M920.712,62.837c-7.782-11.662-20.064-19.584-36.5-23.545-10.176-2.452-19.655-2.832-28.341-1.156a76.364,76.364,0,0,1,14.422,2.111c16.439,3.961,28.721,11.882,36.5,23.544,7.815,11.723,9.683,26.363,5.551,43.515-4.149,17.219-12.381,28.814-24.466,34.463a46.783,46.783,0,0,1-11.547,3.582c9.9.269,18.421-1.243,25.466-4.537,12.085-5.649,20.317-17.244,24.466-34.463C930.4,89.2,928.528,74.56,920.712,62.837Z" transform="translate(-855.868 -37.113)"/>
              </g>
            </g>
          </g>
        </g>
        <g id="Group_1857" data-name="Group 1857" transform="translate(81.171 179.609)">
          <path id="Path_338" data-name="Path 338" d="M942.21,480.346l-4.661,10.467-10.02,2.273-.643-6.614,6.122-5.4,1.689-5.455Z" transform="translate(-926.886 -414.08)" fill="#348f71"/>
          <path id="Path_339" data-name="Path 339" d="M944.01,365.961l13.941,30.305-16.862,28.985L948,431.661l23.725-29.774,3.579-10.23L956.563,363.72Z" transform="translate(-933.278 -363.72)" fill="#348f71"/>
        </g>
      </g>
    </g>
    <g id="Group_1863" data-name="Group 1863" transform="translate(1910 2377)" opacity="0.34">
      <ellipse id="Ellipse_1" data-name="Ellipse 1" cx="27.442" cy="27.442" rx="27.442" ry="27.442" transform="translate(-1426.777 -2060.832)" fill="#ff6584"/>
      <path id="Path_201-2" data-name="Path 201" d="M112.516,310.558c0,53,31.508,71.507,70.376,71.507s70.376-18.506,70.376-71.507-70.376-120.427-70.376-120.427S112.516,257.557,112.516,310.558Z" transform="translate(-1429.224 -2211.879)" fill="#f2f2f2"/>
      <path id="Path_202-2" data-name="Path 202" d="M122.9,310.937l-.72-44.357-30-54.876,29.883,47.918-.324-19.945-20.674-39.7L121.658,234.4h0l-.583-35.872L98.938,166.919l22.046,25.968-.364-65.776,2.288,87.075-.188-3.592,22.507-34.451-22.146,41.347,2.1,40.062.063-1.063,25.947-36.254-25.868,40.011.262,5.01.047.075-.021.411,5.321,101.642h-7.109l-.853-52.5-25.8-39.913Z" transform="translate(-1366.67 -2148.858)" fill="#273b35"/>
      <path id="Path_203-2" data-name="Path 203" d="M526.133,210.144c0,64.75,38.493,87.359,85.977,87.359s85.976-22.609,85.976-87.359S612.11,63.021,612.11,63.021,526.133,145.394,526.133,210.144Z" transform="translate(-2051.392 -2139.271)" fill="#f2f2f2"/>
      <path id="Path_204-2" data-name="Path 204" d="M563.762,224.577l-.88-54.19-36.645-67.041,36.507,58.54-.4-24.366-25.256-48.5,25.151,42.055h0l-.712-43.824L534.486,48.633l26.933,31.724L560.974,0l2.8,106.378-.23-4.389,27.5-42.088-27.055,50.512,2.562,48.943.076-1.3,31.7-44.291-31.6,48.88.321,6.121.057.092-.026.5,6.5,124.174h-8.684L563.84,229.4l-31.525-48.761Z" transform="translate(-1999.911 -2076.25)" fill="#273b35"/>
      <ellipse id="Ellipse_2-2" data-name="Ellipse 2" cx="132.064" cy="4.717" rx="132.064" ry="4.717" transform="translate(-1479.516 -1787.272)" fill="#273b35"/>
      <rect id="Rectangle_1266-2" data-name="Rectangle 1266" width="15.436" height="144.927" transform="translate(-1355.171 -1927.482)" fill="#131716"/>
      <path id="Path_205-2" data-name="Path 205" d="M371.409,388.542h94.76V361.958h-94.76L343.967,375.25Z" transform="translate(-1789.61 -2283.009)" fill="#50645d"/>
      <path id="Path_206-2" data-name="Path 206" d="M371.409,402.678h94.76v2.144h-94.76L343.967,391.53l2.213-1.072Z" transform="translate(-1789.61 -2299.289)" opacity="0.1"/>
      <path id="Path_207-2" data-name="Path 207" d="M266.727,470.542h-94.76V443.958h94.76l27.442,13.292Z" transform="translate(-1543.86 -2329.849)" fill="#50645d"/>
      <path id="Path_208-2" data-name="Path 208" d="M291.956,472.458l2.213,1.072-27.442,13.292h-94.76v-2.144h94.76Z" transform="translate(-1543.86 -2346.129)" opacity="0.1"/>
      <rect id="Rectangle_1267-2" data-name="Rectangle 1267" width="16.294" height="16.294" transform="translate(-1392.903 -1915.905)" fill="#348f71"/>
      <circle id="Ellipse_4-2" data-name="Ellipse 4" cx="8.147" cy="8.147" r="8.147" transform="translate(-1319.153 -1880.745)" fill="#348f71"/>
      <circle id="Ellipse_5-2" data-name="Ellipse 5" cx="4.717" cy="4.717" r="4.717" transform="translate(-1352.169 -1913.333)" fill="#2f2e41"/>
      <circle id="Ellipse_6-2" data-name="Ellipse 6" cx="4.717" cy="4.717" r="4.717" transform="translate(-1352.169 -1878.173)" fill="#2f2e41"/>
      <path id="Path_209-2" data-name="Path 209" d="M378.815,681.153c0,9.634,5.727,13,12.792,13q.245,0,.49-.005c.327-.007.652-.023.972-.044,6.376-.451,11.33-3.988,11.33-12.948,0-9.272-11.849-20.973-12.739-21.839l0,0-.051-.05S378.815,671.519,378.815,681.153Z" transform="translate(-1694.538 -2479.858)" fill="#348f71"/>
      <path id="Path_210-2" data-name="Path 210" d="M401.154,692.677l-4.679-6.537,4.69,7.255.012.751c.327-.007.652-.023.972-.044l-.5-9.639,0-.075-.009-.014-.048-.91,4.7-7.273-4.717,6.59-.011.193-.381-7.283,4.026-7.516-4.075,6.237-.4-15.1,0-.051v.05l.066,11.906L396.8,666.5l4.024,5.746.106,6.52-3.742-6.258,3.757,7.217.059,3.625-5.432-8.71,5.453,9.975Z" transform="translate(-1703.62 -2479.858)" fill="#3f3d56"/>
      <g id="Group_1861" data-name="Group 1861" transform="translate(-1730.661 -1319.295)">
        <g id="object" transform="translate(90.328 -717)">
          <g id="Group_1772" data-name="Group 1772" transform="translate(0 0)">
            <g id="Group_1766" data-name="Group 1766">
              <g id="Group_1755" data-name="Group 1755" transform="translate(60.579)">
                <g id="Group_1753" data-name="Group 1753">
                  <g id="Group_1739" data-name="Group 1739" transform="translate(48.456 240.99)">
                    <path id="Path_239" data-name="Path 239" d="M707.671,1080.44l7.234,4.637,2.511,3.686a27.265,27.265,0,0,1-4.019,1.648c-1.446.359-12.91-.865-12.91-.865l-.311-6.713Z" transform="translate(-700.177 -1080.44)" fill="#273140"/>
                  </g>
                  <g id="Group_1740" data-name="Group 1740" transform="translate(9.373 244.437)">
                    <path id="Path_240" data-name="Path 240" d="M578.033,1093.748l3.575,4.009s2.909,5.434,1.45,5.351-9.384.342-9.918-.567-4.742-4.075-5.292-4.692.012-5.717.012-5.717Z" transform="translate(-567.607 -1092.132)" fill="#273140"/>
                  </g>
                  <g id="Group_1741" data-name="Group 1741" transform="translate(4.173 125.172)">
                    <path id="Path_241" data-name="Path 241" d="M586.038,701.824l-8.984,54.618-11.46,52.023-10.21-.583,1.967-54.907s-7.359-50.465-7.384-65.391Z" transform="translate(-549.968 -687.583)" fill="#102e24"/>
                  </g>
                  <g id="Group_1742" data-name="Group 1742" transform="translate(34.44 119.012)">
                    <path id="Path_242" data-name="Path 242" d="M680.977,689.781l-4.11,100.807-10.507.486-5.588-51.22-8.136-45.2,21.715-27.966Z" transform="translate(-652.636 -666.689)" fill="#102e24"/>
                  </g>
                  <g id="Group_1745" data-name="Group 1745" transform="translate(0 40.235)">
                    <g id="Group_1743" data-name="Group 1743" transform="translate(9.48 15.024)">
                      <path id="Path_243" data-name="Path 243" d="M567.968,450.438h0Z" transform="translate(-567.968 -450.438)" fill="none"/>
                    </g>
                    <g id="Group_1744" data-name="Group 1744">
                      <path id="Path_244" data-name="Path 244" d="M593.087,448.27c-5.509-26.809,1.486-39.735-10.572-47.186,0,0-19.643-5.4-32.157,3.585q-.26.187-.517.379l-4.548,9.452-3.451,42.407s-9.654,55.674-4.53,56.123c5.806.509,32.456-11.911,37.517-11.617s20.541,3.066,35.154-1.908C622.513,495.24,598.6,475.079,593.087,448.27Z" transform="translate(-535.814 -399.476)" fill="#348f71"/>
                    </g>
                  </g>
                  <g id="Group_1746" data-name="Group 1746" transform="translate(28.634 41.017)">
                    <path id="Path_245" data-name="Path 245" d="M637.15,402.129l-3.821.143-.389,3.846,14.038,39.258,3.145-17.012-3.436-24.707Z" transform="translate(-632.94 -402.129)" fill="#fff"/>
                  </g>
                  <g id="Group_1748" data-name="Group 1748" transform="translate(33.487 43.429)">
                    <g id="Group_1747" data-name="Group 1747">
                      <path id="Path_246" data-name="Path 246" d="M661.156,437.248c-.029-1.552-.1-2.941-.23-4.07-.883-7.792-6.445-17.96-6.445-17.96a40.368,40.368,0,0,1-.456-4.157l-4.624-.749.3,4.827,2,2.086s4.849,18.549,4.941,25.987c.009.781,0,1.584-.029,2.4l1.981,5.539Z" transform="translate(-649.401 -410.311)" fill="#2e4661"/>
                    </g>
                  </g>
                  <g id="Group_1749" data-name="Group 1749" transform="translate(38.973 99.35)">
                    <path id="Path_247" data-name="Path 247" d="M673.419,600l-5.41,42.744,11.408,1.61,7.888-.613-9.977-37.084Z" transform="translate(-668.009 -599.997)" fill="#fff"/>
                  </g>
                  <g id="Group_1752" data-name="Group 1752" transform="translate(12.37)">
                    <g id="Group_1750" data-name="Group 1750" transform="translate(11.334 15.143)">
                      <path id="Path_248" data-name="Path 248" d="M630.536,341.941l-7.856.323a39.264,39.264,0,0,1-.452-6.248c-2.259-.454-4.906-1.238-5.6-3.436a6.5,6.5,0,0,1-.175-2.159c.093-3-.748-6.039.28-9,.341-.98.072-2.106.5-3.051.752-1.659,2.533-2.589,4.266-3.147a16.2,16.2,0,0,1,13.435,1.335,7.1,7.1,0,0,1,2.6,2.584c.887,1.688.687,3.717.465,5.611q-.307,2.622-.615,5.244c-.236,2.011-.661,4.318-2.426,5.309-.937.526-2.124.578-2.942,1.276C630.577,337.814,631.123,340.139,630.536,341.941Z" transform="translate(-616.218 -314.367)" fill="#ba7d3f"/>
                    </g>
                    <g id="Group_1751" data-name="Group 1751">
                      <path id="Path_249" data-name="Path 249" d="M611.258,273.062s-2.595-7.392-4.667-7.994c-4.192-1.218-8.479-2.015-12.325,0-3.68,1.929-8.836,2.988-12.069,5.434a10.45,10.45,0,0,0-3.052,4,15.746,15.746,0,0,0,2.28,16.494,22.49,22.49,0,0,0,2.857,2.716c2.108,1.725,4.639,3.866,7.258,4.246-.257-2.258-3.306-9.064-1.838-11.151,1.947-2.768,6.2-3.062,9.273-3.035,3.658.032,6.547-1.386,10.182-1.512C611.009,282.193,611.62,273.184,611.258,273.062Z" transform="translate(-577.774 -263)" fill="#3a3029"/>
                    </g>
                  </g>
                </g>
                <g id="Group_1754" data-name="Group 1754" transform="translate(44.391 41.237)">
                  <path id="Path_250" data-name="Path 250" d="M715.908,424.435l-23.8-21.56-5.722,4.825,19.7,32.9,8.891.853s2.562-9.157,3.09-10.129Z" transform="translate(-686.389 -402.875)" fill="#308a6c"/>
                </g>
              </g>
              <g id="Group_1762" data-name="Group 1762" transform="translate(0 82.547)">
                <g id="Group_1756" data-name="Group 1756" transform="translate(0 139.302)">
                  <path id="Path_251" data-name="Path 251" d="M352.418,1016.353a16.944,16.944,0,1,0-10.173,32.325,17.494,17.494,0,0,0,5.267.839,16.965,16.965,0,0,0,4.906-33.164Z" transform="translate(-330.328 -1015.513)" fill="#96432b"/>
                </g>
                <g id="Group_1758" data-name="Group 1758" transform="translate(8.524 139.334)">
                  <g id="Group_1757" data-name="Group 1757">
                    <path id="Path_252" data-name="Path 252" d="M382.788,1024.737a16.433,16.433,0,0,0-9.98-8.307,17.84,17.84,0,0,0-4.3-.807,16.994,16.994,0,0,1-8.3,31.711c-.324,0-.648-.013-.974-.033a18.111,18.111,0,0,0,3.393,1.455,17.49,17.49,0,0,0,5.267.839,17.057,17.057,0,0,0,14.886-24.857Z" transform="translate(-359.242 -1015.623)" fill="#7f3524"/>
                  </g>
                </g>
                <g id="Group_1759" data-name="Group 1759" transform="translate(12.557)">
                  <path id="Path_253" data-name="Path 253" d="M476.729,572.63c-7-12.223-18.763-21.006-34.967-26.106s-30.949-4.663-43.839,1.292c-11.2,5.178-19.417,13.961-24.409,26.107a7.928,7.928,0,0,0,4.951,10.575l9.648,3.036a7.924,7.924,0,0,0,9.627-4.363c2.9-6.561,7.019-11.012,12.584-13.608,6.737-3.141,14.865-3.251,24.158-.327,9.265,2.916,15.776,7.749,19.351,14.366,3.559,6.6,3.913,14.546,1.055,23.63-3.94,12.521-10.181,19.827-18.549,21.716-8.812,1.988-21.188.419-36.809-4.669l-4.175-1.314a7.932,7.932,0,0,0-9.937,5.179l-11.443,36.363a7.924,7.924,0,0,0,5.18,9.937l9.787,3.08a7.922,7.922,0,0,0,9.937-5.18l7.411-23.549a.571.571,0,0,1,.695-.378c18.39,5.251,33.674,5.61,45.428,1.068,12.5-4.831,21.547-15.887,26.889-32.86C484.623,599.717,483.757,584.916,476.729,572.63Z" transform="translate(-372.921 -543)" fill="#96432b"/>
                </g>
                <g id="Group_1761" data-name="Group 1761" transform="translate(53.072 0.002)">
                  <g id="Group_1760" data-name="Group 1760">
                    <path id="Path_254" data-name="Path 254" d="M573.642,572.635c-7-12.223-18.764-21.006-34.968-26.106-10.031-3.156-19.5-4.189-28.325-3.106a76.745,76.745,0,0,1,14.309,3.106c16.2,5.1,27.969,13.883,34.968,26.106,7.028,12.286,7.893,27.087,2.573,43.994-5.342,16.973-14.388,28.029-26.889,32.86a46.986,46.986,0,0,1-11.819,2.8c9.9.95,18.548.02,25.836-2.8,12.5-4.831,21.547-15.887,26.889-32.86C581.536,599.722,580.67,584.921,573.642,572.635Z" transform="translate(-510.349 -543.007)" fill="#7f3524"/>
                  </g>
                </g>
              </g>
              <g id="Group_1763" data-name="Group 1763" transform="translate(41.038 43.041)">
                <path id="Path_255" data-name="Path 255" d="M507.787,409l-11.277,3.476L469.531,458.46l1.84,8.891,34.951,17.475,4.905-9.5L489.152,458.46l13.49-18.4,5.212-29.432Z" transform="translate(-469.531 -408.997)" fill="#308a6c"/>
              </g>
              <g id="Group_1764" data-name="Group 1764" transform="translate(97.45 35.48)">
                <path id="Path_256" data-name="Path 256" d="M673.655,389.5l-5.725-6.15-5.519,1.533-1.533,5.518,4.905.92,4.608.93Z" transform="translate(-660.879 -383.349)" fill="#ba7d3f"/>
              </g>
              <g id="Group_1765" data-name="Group 1765" transform="translate(78.699 110.305)">
                <path id="Path_257" data-name="Path 257" d="M600.827,637.154l5.507,1.134-.884,3.243,4.77,5.581-6.539,2.378-6.4-5.458Z" transform="translate(-597.277 -637.154)" fill="#ba7d3f"/>
              </g>
            </g>
          </g>
        </g>
      </g>
    </g>
    <g id="question" transform="translate(1041.179 214.342)">
      <g id="Group_326" data-name="Group 326" transform="translate(0 0)">
        <g id="Group_325" data-name="Group 325">
          <path id="Path_196" data-name="Path 196" d="M105.473,96.814H66.328a33.3,33.3,0,0,0-9.952-15.645,33.89,33.89,0,0,0-26.405-8.278A33.594,33.594,0,0,0,.178,102.507a32.956,32.956,0,0,0,6.6,23.485,33.841,33.841,0,0,0,19.89,12.556l8.345,8.219a3.669,3.669,0,0,0,2.579,1.055,3.708,3.708,0,0,0,1.4-.276,3.587,3.587,0,0,0,2.255-3.324v-5.754a34.3,34.3,0,0,0,4.007-1.142v.228a7.378,7.378,0,0,0,7.425,7.312H65.144l6.641,6.541a3.112,3.112,0,0,0,2.187.895,3.147,3.147,0,0,0,1.188-.234,3.041,3.041,0,0,0,1.912-2.818v-4.384h28.4a7.378,7.378,0,0,0,7.425-7.312V104.126A7.378,7.378,0,0,0,105.473,96.814ZM39.167,135.328a1.748,1.748,0,0,0-1.457,1.714v7.18c0,.041,0,.078-.073.107a.1.1,0,0,1-.129-.025l-8.719-8.587a1.774,1.774,0,0,0-.905-.476A30.308,30.308,0,0,1,9.6,123.9,29.436,29.436,0,0,1,12.321,85.01,30.365,30.365,0,0,1,30.36,76.352a32.311,32.311,0,0,1,3.5-.192,30.2,30.2,0,0,1,20.155,7.6,29.656,29.656,0,0,1-14.85,51.565Zm70.2,2.226a3.864,3.864,0,0,1-3.889,3.83H75.3a1.755,1.755,0,0,0-1.768,1.741v5.082l-6.41-6.313a1.781,1.781,0,0,0-1.25-.51h-13.2a3.864,3.864,0,0,1-3.889-3.83v-1.7a33.2,33.2,0,0,0,18.856-29.864,32.7,32.7,0,0,0-.5-5.7h38.333a3.864,3.864,0,0,1,3.889,3.83v33.427Z" transform="translate(0 -72.677)" fill="#007d53"/>
        </g>
      </g>
      <g id="Group_328" data-name="Group 328" transform="translate(67.883 37.136)">
        <g id="Group_327" data-name="Group 327">
          <path id="Path_197" data-name="Path 197" d="M339.153,244.189a1.787,1.787,0,0,0-2.5,0l-17.606,17.34-8.174-8.05a1.787,1.787,0,0,0-2.5,0,1.722,1.722,0,0,0,0,2.462l9.424,9.281a1.787,1.787,0,0,0,2.5,0l18.856-18.571A1.722,1.722,0,0,0,339.153,244.189Z" transform="translate(-307.856 -243.679)" fill="#007d53"/>
        </g>
      </g>
      <g id="Group_330" data-name="Group 330" transform="translate(32.051 46.428)">
        <g id="Group_329" data-name="Group 329" transform="translate(0 0)">
          <path id="Path_198" data-name="Path 198" d="M147.123,286.464h0a1.757,1.757,0,0,0-1.769,1.742h0a1.757,1.757,0,0,0,1.769,1.742h0a1.757,1.757,0,0,0,1.769-1.742h0A1.757,1.757,0,0,0,147.123,286.464Z" transform="translate(-145.352 -286.464)" fill="#007d53"/>
        </g>
      </g>
      <g id="Group_332" data-name="Group 332" transform="translate(22.625 16.717)">
        <g id="Group_331" data-name="Group 331">
          <path id="Path_199" data-name="Path 199" d="M121.677,152.924a11.173,11.173,0,0,0-19.071,7.756,1.768,1.768,0,0,0,3.536,0,7.627,7.627,0,0,1,13.036-5.294,7.416,7.416,0,0,1,2.285,5.295,7.607,7.607,0,0,1-5.456,7.227,5.44,5.44,0,0,0-3.972,5.217v.555a1.768,1.768,0,0,0,3.536,0v-.555a1.973,1.973,0,0,1,1.452-1.882A11.119,11.119,0,0,0,125,160.681,10.848,10.848,0,0,0,121.677,152.924Z" transform="translate(-102.606 -149.654)" fill="#007d53"/>
        </g>
      </g>
    </g>
    <text id="Help" transform="translate(765 285.735)" fill="#007d53" font-size="108" font-family="OpenSans-Bold, Open Sans" font-weight="700"><tspan x="0" y="0">Help</tspan></text>
  </g>
</svg>
