<svg width="24" height="24" viewBox="0 0 24 24" fill="none" xmlns="http://www.w3.org/2000/svg">
<rect width="24" height="24" rx="12" fill="#007D53"/>
<path d="M12.3333 5.33334C12.687 5.33334 13.0261 5.47382 13.2761 5.72387C13.5262 5.97392 13.6667 6.31305 13.6667 6.66668C13.6667 7.16001 13.4 7.59334 13 7.82001V8.66668H13.6667C14.9043 8.66668 16.0913 9.15834 16.9665 10.0335C17.8417 10.9087 18.3333 12.0957 18.3333 13.3333H19C19.1768 13.3333 19.3464 13.4036 19.4714 13.5286C19.5964 13.6536 19.6667 13.8232 19.6667 14V16C19.6667 16.1768 19.5964 16.3464 19.4714 16.4714C19.3464 16.5964 19.1768 16.6667 19 16.6667H18.3333V17.3333C18.3333 17.687 18.1929 18.0261 17.9428 18.2762C17.6928 18.5262 17.3536 18.6667 17 18.6667H7.66667C7.31304 18.6667 6.97391 18.5262 6.72386 18.2762C6.47381 18.0261 6.33333 17.687 6.33333 17.3333V16.6667H5.66667C5.48986 16.6667 5.32029 16.5964 5.19526 16.4714C5.07024 16.3464 5 16.1768 5 16V14C5 13.8232 5.07024 13.6536 5.19526 13.5286C5.32029 13.4036 5.48986 13.3333 5.66667 13.3333H6.33333C6.33333 12.0957 6.825 10.9087 7.70017 10.0335C8.57534 9.15834 9.76232 8.66668 11 8.66668H11.6667V7.82001C11.2667 7.59334 11 7.16001 11 6.66668C11 6.31305 11.1405 5.97392 11.3905 5.72387C11.6406 5.47382 11.9797 5.33334 12.3333 5.33334ZM9.33333 12.6667C8.89131 12.6667 8.46738 12.8423 8.15482 13.1548C7.84226 13.4674 7.66667 13.8913 7.66667 14.3333C7.66667 14.7754 7.84226 15.1993 8.15482 15.5119C8.46738 15.8244 8.89131 16 9.33333 16C9.77536 16 10.1993 15.8244 10.5118 15.5119C10.8244 15.1993 11 14.7754 11 14.3333C11 13.8913 10.8244 13.4674 10.5118 13.1548C10.1993 12.8423 9.77536 12.6667 9.33333 12.6667ZM15.3333 12.6667C14.8913 12.6667 14.4674 12.8423 14.1548 13.1548C13.8423 13.4674 13.6667 13.8913 13.6667 14.3333C13.6667 14.7754 13.8423 15.1993 14.1548 15.5119C14.4674 15.8244 14.8913 16 15.3333 16C15.7754 16 16.1993 15.8244 16.5118 15.5119C16.8244 15.1993 17 14.7754 17 14.3333C17 13.8913 16.8244 13.4674 16.5118 13.1548C16.1993 12.8423 15.7754 12.6667 15.3333 12.6667Z" fill="white"/>
</svg>
