<svg width="20" height="18" viewBox="0 0 20 18" fill="none" xmlns="http://www.w3.org/2000/svg">
<g clip-path="url(#clip0_2015_6243)">
<path d="M13.8799 2.24976V4.49976H17.6299V5.99976H16.1299V15.7498C16.1299 15.9631 16.0565 16.1398 15.9099 16.2798C15.7632 16.4264 15.5865 16.4998 15.3799 16.4998H4.87988C4.66655 16.4998 4.48655 16.4264 4.33988 16.2798C4.19988 16.1398 4.12988 15.9631 4.12988 15.7498V5.99976H2.62988V4.49976H6.37988V2.24976C6.37988 2.03642 6.44988 1.85976 6.58988 1.71976C6.73655 1.57309 6.91655 1.49976 7.12988 1.49976H13.1299C13.3365 1.49976 13.5132 1.57309 13.6599 1.71976C13.8065 1.85976 13.8799 2.03642 13.8799 2.24976ZM14.6299 14.9998V5.99976H5.62988V14.9998H14.6299ZM7.87988 12.7498V8.24976H9.37988V12.7498H7.87988ZM10.8799 12.7498V8.24976H12.3799V12.7498H10.8799ZM12.3799 2.99976H7.87988V4.49976H12.3799V2.99976Z" fill="#666666"/>
</g>
<defs>
<clipPath id="clip0_2015_6243">
<rect width="15" height="15" fill="white" transform="translate(2.625 1.49976)"/>
</clipPath>
</defs>
</svg>
