<svg xmlns="http://www.w3.org/2000/svg" width="48.316" height="48.084" viewBox="0 0 48.316 48.084"><defs><style>.a{fill:#ee9632;stroke:#ff8f0f;}</style></defs><path class="a" d="M.2,47.309a.691.691,0,0,0,.976,0l8.087-8.087.4.4a1.7,1.7,0,0,0,1.747.4l2.32-.8a3.091,3.091,0,0,0,3.967-.343l18.82-18.82.267.267a1.774,1.774,0,0,0,2.506,0l.616-.616a1.774,1.774,0,0,0,0-2.506L38,15.3l1.491-1.491a.69.69,0,0,0-.976-.976l-1.491,1.491-3.744-3.744,5.074-5.075L42.1,9.252l-1.307,1.307a.69.69,0,0,0,.976.976l1.307-1.306.392.392a1.771,1.771,0,0,0,2.506,0L46.588,10a1.774,1.774,0,0,0,0-2.506L44.621,5.531a.69.69,0,0,0-.976.976l1.968,1.967a.393.393,0,0,1,0,.554L45,9.644a.392.392,0,0,1-.553,0l-6.481-6.48a.392.392,0,0,1,0-.554l.616-.616a.391.391,0,0,1,.554,0L41.368,4.23a.69.69,0,0,0,.976-.976L40.109,1.018a1.771,1.771,0,0,0-2.506,0l-.616.616a1.774,1.774,0,0,0,0,2.506l.392.392L32.3,9.606,30.393,7.694a1.771,1.771,0,0,0-2.506,0l-.616.616a1.771,1.771,0,0,0,0,2.506l.267.267L8.718,29.9a3.094,3.094,0,0,0-.293,4.037l-.793,2.305a1.7,1.7,0,0,0,.4,1.747l.254.254L.2,46.333a.691.691,0,0,0,0,.976ZM28.247,9.286l.616-.616a.392.392,0,0,1,.554,0l9.52,9.52a.392.392,0,0,1,0,.554l-.616.616a.392.392,0,0,1-.554,0l-9.52-9.52a.391.391,0,0,1,0-.553Zm.267,2.772,7.034,7.034-1.17,1.169-7.034-7.034ZM9.694,30.878,26.369,14.2,33.4,21.238l-1.586,1.586L30.595,21.6a.69.69,0,0,0-.976.976L30.841,23.8l-1.647,1.647-1.222-1.222A.69.69,0,0,0,27,25.2l1.222,1.222-1.647,1.647L25.35,26.848a.69.69,0,1,0-.976.976L25.6,29.046l-1.646,1.646L22.727,29.47a.69.69,0,1,0-.976.976l1.222,1.222-1.646,1.647L20.1,32.093a.69.69,0,1,0-.976.976L20.35,34.29,18.7,35.937l-1.222-1.222a.69.69,0,0,0-.976.976l1.222,1.222-1,1a1.713,1.713,0,0,1-2.423,0L9.694,33.3a1.713,1.713,0,0,1,0-2.424Zm-.757,5.815L9.5,35.059l3.1,3.1-1.634.562a.314.314,0,0,1-.322-.074L9.012,37.016a.315.315,0,0,1-.074-.322Zm0,0" transform="translate(0.571 0.001)"/></svg>