<svg xmlns="http://www.w3.org/2000/svg" width="39.01" height="56.286" viewBox="0 0 39.01 56.286"><defs><style>.a{fill:#2c8cca;}</style></defs><g transform="translate(0)"><path class="a" d="M80.454.322a1.1,1.1,0,0,0-1.877.777A1.1,1.1,0,1,0,80.454.322Z" transform="translate(-78.577)"/></g><g transform="translate(0 0.024)"><path class="a" d="M116.2,27.726a1.09,1.09,0,0,0-.125-.307,19.372,19.372,0,0,0-1.673-3.156l-.6-.923a1.106,1.106,0,0,0-.1-.132,3.113,3.113,0,0,0,.283-1.3,4.677,4.677,0,0,0-4.672-4.672h-2.587a5.242,5.242,0,0,0,.993-3.074,5.546,5.546,0,0,0-1.838-4.121L95.251.5a1.1,1.1,0,0,0-1.469,1.636l10.62,9.539a3.345,3.345,0,0,1,1.108,2.485,3.078,3.078,0,0,1-3.074,3.074h-.114a1.094,1.094,0,0,0-.184.016L91.18,19.111a.061.061,0,0,1-.072-.06V7.233a1.1,1.1,0,0,0-2.2,0V19.05a2.26,2.26,0,0,0,2.638,2.228l10.867-1.843H109.3a2.476,2.476,0,0,1,2.474,2.473.935.935,0,0,1-.934.934h-8.3a1.1,1.1,0,0,0-.418.083l-11.8,4.852a6.917,6.917,0,0,1-9.547-6.4V4.7a1.1,1.1,0,1,0-2.2,0V21.38a9.116,9.116,0,0,0,4.672,7.958v4.211a8.132,8.132,0,0,1-.416,2.57,31.9,31.9,0,0,0-.484,18.608l.261.949a1.1,1.1,0,0,0,2.12-.584l-.261-.949a29.713,29.713,0,0,1,.451-17.33,10.326,10.326,0,0,0,.529-3.264V30.212a9.153,9.153,0,0,0,5.711-.4l11.6-4.769h8.083a3.116,3.116,0,0,0,1.265-.267l.455.694a17.507,17.507,0,0,1,1.46,2.725,2.86,2.86,0,0,1-2.848,2.645,5.064,5.064,0,0,0-4.934,3.958c-.069,0-.138,0-.207.007a3.475,3.475,0,0,0-2.519,1.636.982.982,0,0,1-.76.308,5.073,5.073,0,1,0-8.213-.912,1.1,1.1,0,0,0-.032.126,9.927,9.927,0,0,0,.091,3.492,7.514,7.514,0,0,0,4.341,5.515,10.605,10.605,0,0,0,4.4,1.088,5.529,5.529,0,0,0,5.04-2.779,1.161,1.161,0,0,1,.163.271,1.657,1.657,0,0,0,1.929,1.063,2.894,2.894,0,0,0,2.545-2.887,5.162,5.162,0,0,0-2.218-4.069,4.082,4.082,0,0,0-2.041-.794,2.69,2.69,0,0,0-.442-1.034,2.86,2.86,0,0,1,2.856-2.79,5.045,5.045,0,0,0,3.834-1.766,17.212,17.212,0,0,1-4.353,15.551,7.907,7.907,0,0,0-2.176,5.459v3.1a1.1,1.1,0,0,0,2.2,0v-3.1a5.718,5.718,0,0,1,1.573-3.947A19.46,19.46,0,0,0,116.2,27.726ZM98.97,30.5A2.874,2.874,0,1,1,96.1,33.37,2.878,2.878,0,0,1,98.97,30.5Zm9.48,8.555a1.873,1.873,0,0,1,1.068.39,3.073,3.073,0,0,1,1.3,2.221.779.779,0,0,1-.237.6.71.71,0,0,1-.175.113,2.708,2.708,0,0,0-1.929-1.472,1.981,1.981,0,0,0-1.991,1.256c-.781,1.509-2.933,2.516-6.632.816a5.642,5.642,0,0,1-3.26-5.118,5.049,5.049,0,0,0,3.217.52c.535.22,3.924,1.5,5.479-.643a1.592,1.592,0,0,1,.913-.734.467.467,0,0,1,.348.144.991.991,0,0,1-.006.776c-.34.936-1.693,1.79-3.712,2.343a1.1,1.1,0,1,0,.581,2.121C106.532,41.525,107.885,40.2,108.449,39.051Z" transform="translate(-78.576 -0.221)"/></g></svg>