<svg xmlns="http://www.w3.org/2000/svg" width="47.659" height="54.991" viewBox="0 0 47.659 54.991"><defs><style>.a{fill:#8fb438;}</style></defs><path class="a" d="M52.742,38.163H49.32l4.314-18.119a.917.917,0,0,0-.669-1.1L49.3,18.028a.917.917,0,0,0-1.107.648L42.877,38.163H40.8a4.535,4.535,0,0,0,.94-2.75v-2.75h-2.75a4.583,4.583,0,0,0-4.5,3.792,4.531,4.531,0,0,0-6.539-.982c1.877-8.025,1.877-8.125,1.877-8.308a3.666,3.666,0,0,0-3.989-3.65,5.48,5.48,0,0,0-10.357,0,3.666,3.666,0,0,0-3.985,3.65c0,.248.005.664,1.558,5.563a4.583,4.583,0,0,0-.642-.064H9.666v2.75a4.535,4.535,0,0,0,.94,2.75H6.917A.917.917,0,0,0,6,39.08c0,8.53,8,13.931,10.082,15.191V57.41a.917.917,0,0,0,.917.917H42.661a.917.917,0,0,0,.917-.917V54.271c2.084-1.26,10.082-6.661,10.082-15.191a.917.917,0,0,0-.917-.917Zm-3.018-18.14,1.916.478-4.2,17.661H44.778ZM36.245,37.247a2.75,2.75,0,0,1,2.75-2.75h.917v.917a2.75,2.75,0,0,1-2.75,2.75h-.917Zm-5.5-.917a2.755,2.755,0,0,1,2.593,1.833H28.153a2.755,2.755,0,0,1,2.593-1.833Zm-4.739,1.833H20.821a2.75,2.75,0,0,1,5.186,0Zm-12.674-11a1.8,1.8,0,0,1,2.5-1.7.917.917,0,0,0,1.232-.711,3.648,3.648,0,0,1,7.209,0,.917.917,0,0,0,1.232.711A1.8,1.8,0,0,1,28,27.1c-.123.65-1.2,5.258-1.9,8.276a4.54,4.54,0,0,0-2.68-.882,4.591,4.591,0,0,0-4.491,3.666H17v-.917a4.556,4.556,0,0,0-1.707-3.539c-1.7-5.309-1.939-6.372-1.959-6.543ZM11.5,35.414V34.5h.917a2.75,2.75,0,0,1,2.75,2.75v.917h-.917A2.75,2.75,0,0,1,11.5,35.414ZM42.413,52.828H38.078v1.833h3.666v1.833H17.915V54.661H29.829V52.828H17.246c-1.032-.61-6.275-3.931-8.454-9.165H18.831V41.829H8.186A11.377,11.377,0,0,1,7.871,40H51.788a11.377,11.377,0,0,1-.315,1.833H31.662v1.833h19.2c-2.179,5.234-7.422,8.555-8.454,9.165Z" transform="translate(-6 -3.336)"/><path class="a" d="M22,44h1.833v1.833H22Z" transform="translate(-7.336 -5.506)"/><path class="a" d="M26,44h1.833v1.833H26Z" transform="translate(-7.67 -5.506)"/><path class="a" d="M30,44h1.833v1.833H30Z" transform="translate(-8.004 -5.506)"/><path class="a" d="M30.283,16.991a2.7,2.7,0,0,0-.156,1.681c.4,1.851,2.531,3.734,4.97,4.38A28.613,28.613,0,0,0,40.8,24h.033a.917.917,0,0,0,.744-1.451c-.01-.015-1.037-1.441-2.768-3.691-.769-1-2.811-3.354-5.158-3.633a3.371,3.371,0,0,0-2.068.406A2.984,2.984,0,0,1,29.833,13H28A4.624,4.624,0,0,0,30.283,16.991Zm2.924.039a1.748,1.748,0,0,1,.226.015c1.132.134,2.634,1.257,3.923,2.933.587.764,1.093,1.432,1.5,1.98a29.807,29.807,0,0,1-3.293-.675c-1.908-.5-3.426-1.953-3.647-2.99a.835.835,0,0,1,.322-.91,1.477,1.477,0,0,1,.965-.349Z" transform="translate(-7.837 -2.918)"/><path class="a" d="M18,30h1.833v1.833H18Z" transform="translate(-7.002 -4.338)"/><path class="a" d="M23,32h1.833v1.833H23Z" transform="translate(-7.419 -4.505)"/><path class="a" d="M10.866,17.115c.24.013,1.108.055,2.256.055,2.283,0,5.67-.169,7.388-1.077a5.173,5.173,0,0,0,2.355-3.02,4.849,4.849,0,0,0-.139-3.717c-1.13-2.139-4.55-2.456-6.737-1.3-2.613,1.381-5.561,7.082-5.889,7.727a.917.917,0,0,0,.767,1.332Zm5.342-5.064-2.794,1.63c.43-.679.9-1.362,1.375-1.983Zm1.124,1.466v1.568a28.845,28.845,0,0,1-3.082.23Zm3.789-1.008a3.4,3.4,0,0,1-1.466,1.966,3.916,3.916,0,0,1-.489.2V12.448l2.157-1.258a4,4,0,0,1-.2,1.316Zm-.692-2.917-1.954,1.14-2.287-.572a3.728,3.728,0,0,1,.659-.478,4.187,4.187,0,0,1,3.582-.093Z" transform="translate(-6.334 -2.45)"/><path class="a" d="M44.416,9.332h1.833a.917.917,0,0,0,.917-.917A6.423,6.423,0,0,0,40.75,2H38.917A.917.917,0,0,0,38,2.917a6.423,6.423,0,0,0,6.416,6.416Zm-3.666-5.5A4.59,4.59,0,0,1,45.24,7.5h-.825a4.59,4.59,0,0,1-4.491-3.666Z" transform="translate(-8.672 -2)"/><path class="a" d="M32.75,9.5A2.75,2.75,0,1,0,30,6.75,2.75,2.75,0,0,0,32.75,9.5Zm0-3.666a.917.917,0,1,1-.917.917A.917.917,0,0,1,32.75,5.833Z" transform="translate(-8.004 -2.167)"/><path class="a" d="M44,15.75A2.75,2.75,0,1,0,46.75,13,2.75,2.75,0,0,0,44,15.75Zm3.666,0a.917.917,0,1,1-.917-.917A.917.917,0,0,1,47.666,15.75Z" transform="translate(-9.172 -2.918)"/><path class="a" d="M37,29h1.833v1.833H37Z" transform="translate(-8.588 -4.254)"/><path class="a" d="M40,12h1.833v1.833H40Z" transform="translate(-8.839 -2.835)"/><path class="a" d="M24,3h1.833V4.833H24Z" transform="translate(-7.503 -2.083)"/><path class="a" d="M45,25h1.833v1.833H45Z" transform="translate(-9.256 -3.92)"/></svg>