<svg width="14" height="14" viewBox="0 0 14 14" fill="none" xmlns="http://www.w3.org/2000/svg">
<g clip-path="url(#clip0_2015_6506)">
<path d="M10.69 9.96998L13.55 12.83L12.6 13.77L9.75 10.92C9.22333 11.34 8.65 11.66 8.03 11.88C7.37 12.1133 6.69333 12.23 6 12.23C4.91333 12.23 3.90333 11.9566 2.97 11.41C2.06333 10.8766 1.35 10.1566 0.83 9.24998C0.276667 8.31665 0 7.30998 0 6.22998C0 5.14331 0.276667 4.13331 0.83 3.19998C1.35 2.29331 2.06333 1.57665 2.97 1.04998C3.90333 0.503313 4.91333 0.22998 6 0.22998C7.08667 0.22998 8.09667 0.503313 9.03 1.04998C9.93667 1.57665 10.6567 2.29331 11.19 3.19998C11.73 4.13331 12 5.14331 12 6.22998C12 6.92331 11.8833 7.59665 11.65 8.24998C11.43 8.87665 11.11 9.44998 10.69 9.96998ZM9.25 9.56998L9.35 9.47998C9.76333 9.05331 10.0867 8.56331 10.32 8.00998C10.5533 7.44331 10.67 6.84998 10.67 6.22998C10.67 5.38331 10.4567 4.59665 10.03 3.86998C9.61667 3.16331 9.06 2.60665 8.36 2.19998C7.63333 1.77331 6.84667 1.55998 6 1.55998C5.15333 1.55998 4.36667 1.77331 3.64 2.19998C2.94 2.60665 2.38333 3.16331 1.97 3.86998C1.54333 4.59665 1.33 5.38331 1.33 6.22998C1.33 7.06998 1.54333 7.85665 1.97 8.58998C2.38333 9.28998 2.94 9.84331 3.64 10.25C4.36667 10.6766 5.15333 10.89 6 10.89C6.62 10.89 7.21667 10.7766 7.79 10.55C8.33667 10.3166 8.82333 9.98998 9.25 9.56998Z" fill="#666666"/>
</g>
<defs>
<clipPath id="clip0_2015_6506">
<rect width="13.5467" height="13.5467" fill="white" transform="translate(0 0.226685)"/>
</clipPath>
</defs>
</svg>
