<svg id="Graph_1" data-name="Graph 1" xmlns="http://www.w3.org/2000/svg" width="69.956" height="51.551" viewBox="0 0 69.956 51.551">
  <rect id="Rectangle_3111" data-name="Rectangle 3111" width="67.398" height="48.724" transform="translate(2.558 2.827)" fill="#2e4661" opacity="0.07"/>
  <g id="Group_2558" data-name="Group 2558">
    <g id="Group_2557" data-name="Group 2557">
      <g id="Group_2556" data-name="Group 2556">
        <rect id="Rectangle_3112" data-name="Rectangle 3112" width="67.858" height="48.87" fill="#fff"/>
        <rect id="Rectangle_3113" data-name="Rectangle 3113" width="67.766" height="3.89" fill="#b5d6ca"/>
      </g>
      <path id="Path_4921" data-name="Path 4921" d="M1185.526,751.2v-.151H1177.2V742.88h-.151v8.174h-9.985V742.88h-.151v8.174h-9.985V742.88h-.151v8.174h-9.985V742.88h-.151v8.174h-9.985V742.88h-.151v8.174h-9.985V742.88h-.151v8.174h-8.317v.151h8.317v9.236h-8.317v.151h8.317v9.236h-8.317v.151h8.317v9.236h-8.317v.151h8.317v8.594h.151v-8.594h9.985v8.594h.151v-8.594h9.985v8.594h.151v-8.594h9.985v8.594h.151v-8.594h9.985v8.594h.151v-8.594h9.985v8.594h.151v-8.594h8.329v-.151H1177.2v-9.236h8.329v-.151H1177.2v-9.236h8.329v-.151H1177.2V751.2Zm-18.618,0v9.236h-9.985V751.2Zm-20.121,9.385h9.985v9.236h-9.985Zm-.151,9.236h-9.985v-9.236h9.985Zm10.286-9.236h9.985v9.236h-9.985Zm-.151-9.385v9.236h-9.985V751.2Zm-10.136,0v9.236h-9.985V751.2Zm-20.121,0h9.985v9.236h-9.985Zm0,9.385h9.985v9.236h-9.985Zm0,18.621v-9.236h9.985v9.236Zm10.136,0v-9.236h9.985v9.236Zm10.136,0v-9.236h9.985v9.236Zm10.136,0v-9.236h9.985v9.236Zm20.123,0h-9.985v-9.236h9.985Zm0-9.385h-9.985v-9.236h9.985Zm0-9.387h-9.985V751.2h9.985Z" transform="translate(-1117.812 -738.915)" fill="#272525" opacity="0.03"/>
    </g>
    <path id="Path_4922" data-name="Path 4922" d="M1186.094,768.34a2.07,2.07,0,0,0-1.454,3.545q-3.6,3.1-7.2,6.2l-.547.472a2.07,2.07,0,1,0-2.424,3.35q-.788,1.9-1.578,3.8-.335.81-.673,1.619a2.121,2.121,0,0,0-.469-.056,2.073,2.073,0,0,0-1.789,1.031L1163,783.9q-2.578-1.63-5.157-3.258a2.071,2.071,0,1,0-3.995-.768,2,2,0,0,0,.044.423l-9.759,3.982c-.318.131-.637.26-.958.391a2.07,2.07,0,1,0-3.319,2.329l-1.449,1.646q-3.457,3.928-6.917,7.853a2.071,2.071,0,1,0,.54.53q2.954-3.351,5.905-6.705,1.28-1.455,2.563-2.91a2.07,2.07,0,0,0,2.852-1.918c0-.027,0-.056,0-.083l.141-.058q5.346-2.181,10.69-4.364a2.065,2.065,0,0,0,3.26.289q2.338,1.477,4.675,2.956l7.585,4.794a2.166,2.166,0,0,0-.027.309,2.071,2.071,0,1,0,3.229-1.719l2.254-5.427a2.151,2.151,0,0,0,.435.046,2.072,2.072,0,0,0,2.071-2.071,2.05,2.05,0,0,0-.284-1.043c.426-.365.849-.732,1.274-1.1q2.728-2.349,5.458-4.7l1.177-1.014a2.07,2.07,0,1,0,.812-3.977Z" transform="translate(-1125.54 -758.185)" fill="#ffd559"/>
  </g>
</svg>
