<svg xmlns="http://www.w3.org/2000/svg" width="46.264" height="46.264" viewBox="0 0 46.264 46.264"><defs><style>.a{fill:#0592bd;stroke:#0592bd;stroke-width:0.2px;}</style></defs><g transform="translate(0.1 0.1)"><path class="a" d="M184.768,39.677h2.3v2.3a.768.768,0,0,0,.768.768h3.071a.768.768,0,0,0,.768-.768v-2.3h2.3a.768.768,0,0,0,.768-.768V35.839a.768.768,0,0,0-.768-.768h-2.3v-2.3A.768.768,0,0,0,190.91,32h-3.071a.768.768,0,0,0-.768.768v2.3h-2.3a.768.768,0,0,0-.768.768V38.91A.768.768,0,0,0,184.768,39.677Zm.768-3.071h2.3a.768.768,0,0,0,.768-.768v-2.3h1.535v2.3a.768.768,0,0,0,.768.768h2.3v1.535h-2.3a.768.768,0,0,0-.768.768v2.3h-1.535v-2.3a.768.768,0,0,0-.768-.768h-2.3Zm0,0" transform="translate(-166.342 -28.929)"/><path class="a" d="M45.3,9.213H35.316V.768A.768.768,0,0,0,34.548,0H11.516a.768.768,0,0,0-.768.768V9.213H.768A.768.768,0,0,0,0,9.981V45.3a.768.768,0,0,0,.768.768H45.3a.768.768,0,0,0,.768-.768V9.981A.768.768,0,0,0,45.3,9.213ZM10.748,44.529H1.535V10.748h9.213Zm11.516,0H19.194V41.458h3.071Zm4.606,0H23.8V41.458h3.071Zm6.91-34.548V44.529H28.406V40.69a.768.768,0,0,0-.768-.768H18.426a.768.768,0,0,0-.768.768v3.839H12.284V1.535h21.5ZM44.529,44.529H35.316V10.748h9.213Zm0,0"/><path class="a" d="M216,208h1.535v2.3H216Zm0,0" transform="translate(-195.271 -188.039)"/><path class="a" d="M248,208h1.535v2.3H248Zm0,0" transform="translate(-224.2 -188.039)"/><path class="a" d="M280,208h1.535v2.3H280Zm0,0" transform="translate(-253.129 -188.039)"/><path class="a" d="M312,208h1.535v2.3H312Zm0,0" transform="translate(-282.058 -188.039)"/><path class="a" d="M216,248h1.535v2.3H216Zm0,0" transform="translate(-195.271 -224.2)"/><path class="a" d="M248,248h1.535v2.3H248Zm0,0" transform="translate(-224.2 -224.2)"/><path class="a" d="M280,248h1.535v2.3H280Zm0,0" transform="translate(-253.129 -224.2)"/><path class="a" d="M312,248h1.535v2.3H312Zm0,0" transform="translate(-282.058 -224.2)"/><path class="a" d="M216,288h1.535v2.3H216Zm0,0" transform="translate(-195.271 -260.361)"/><path class="a" d="M248,288h1.535v2.3H248Zm0,0" transform="translate(-224.2 -260.361)"/><path class="a" d="M280,288h1.535v2.3H280Zm0,0" transform="translate(-253.129 -260.361)"/><path class="a" d="M312,288h1.535v2.3H312Zm0,0" transform="translate(-282.058 -260.361)"/><path class="a" d="M216,328h1.535v2.3H216Zm0,0" transform="translate(-195.271 -296.523)"/><path class="a" d="M248,328h1.535v2.3H248Zm0,0" transform="translate(-224.2 -296.523)"/><path class="a" d="M280,328h1.535v2.3H280Zm0,0" transform="translate(-253.129 -296.523)"/><path class="a" d="M312,328h1.535v2.3H312Zm0,0" transform="translate(-282.058 -296.523)"/><path class="a" d="M216,368h1.535v2.3H216Zm0,0" transform="translate(-195.271 -332.684)"/><path class="a" d="M248,368h1.535v2.3H248Zm0,0" transform="translate(-224.2 -332.684)"/><path class="a" d="M152,208h1.535v2.3H152Zm0,0" transform="translate(-137.413 -188.039)"/><path class="a" d="M184,208h1.535v2.3H184Zm0,0" transform="translate(-166.342 -188.039)"/><path class="a" d="M216,168h1.535v2.3H216Zm0,0" transform="translate(-195.271 -151.877)"/><path class="a" d="M248,168h1.535v2.3H248Zm0,0" transform="translate(-224.2 -151.877)"/><path class="a" d="M280,168h1.535v2.3H280Zm0,0" transform="translate(-253.129 -151.877)"/><path class="a" d="M312,168h1.535v2.3H312Zm0,0" transform="translate(-282.058 -151.877)"/><path class="a" d="M152,168h1.535v2.3H152Zm0,0" transform="translate(-137.413 -151.877)"/><path class="a" d="M184,168h1.535v2.3H184Zm0,0" transform="translate(-166.342 -151.877)"/><path class="a" d="M152,248h1.535v2.3H152Zm0,0" transform="translate(-137.413 -224.2)"/><path class="a" d="M184,248h1.535v2.3H184Zm0,0" transform="translate(-166.342 -224.2)"/><path class="a" d="M152,288h1.535v2.3H152Zm0,0" transform="translate(-137.413 -260.361)"/><path class="a" d="M184,288h1.535v2.3H184Zm0,0" transform="translate(-166.342 -260.361)"/><path class="a" d="M152,328h1.535v2.3H152Zm0,0" transform="translate(-137.413 -296.523)"/><path class="a" d="M184,328h1.535v2.3H184Zm0,0" transform="translate(-166.342 -296.523)"/><path class="a" d="M152,368h1.535v2.3H152Zm0,0" transform="translate(-137.413 -332.684)"/><path class="a" d="M184,368h1.535v2.3H184Zm0,0" transform="translate(-166.342 -332.684)"/><path class="a" d="M280,368h1.535v2.3H280Zm0,0" transform="translate(-253.129 -332.684)"/><path class="a" d="M312,368h1.535v2.3H312Zm0,0" transform="translate(-282.058 -332.684)"/><path class="a" d="M72,208h1.535v2.3H72Zm0,0" transform="translate(-65.09 -188.039)"/><path class="a" d="M72,248h1.535v2.3H72Zm0,0" transform="translate(-65.09 -224.2)"/><path class="a" d="M72,288h1.535v2.3H72Zm0,0" transform="translate(-65.09 -260.361)"/><path class="a" d="M72,328h1.535v2.3H72Zm0,0" transform="translate(-65.09 -296.523)"/><path class="a" d="M72,368h1.535v2.3H72Zm0,0" transform="translate(-65.09 -332.684)"/><path class="a" d="M40,208h1.535v2.3H40Zm0,0" transform="translate(-36.161 -188.039)"/><path class="a" d="M72,168h1.535v2.3H72Zm0,0" transform="translate(-65.09 -151.877)"/><path class="a" d="M40,168h1.535v2.3H40Zm0,0" transform="translate(-36.161 -151.877)"/><path class="a" d="M40,248h1.535v2.3H40Zm0,0" transform="translate(-36.161 -224.2)"/><path class="a" d="M40,288h1.535v2.3H40Zm0,0" transform="translate(-36.161 -260.361)"/><path class="a" d="M40,328h1.535v2.3H40Zm0,0" transform="translate(-36.161 -296.523)"/><path class="a" d="M40,368h1.535v2.3H40Zm0,0" transform="translate(-36.161 -332.684)"/><path class="a" d="M72,408h1.535v2.3H72Zm0,0" transform="translate(-65.09 -368.845)"/><path class="a" d="M40,408h1.535v2.3H40Zm0,0" transform="translate(-36.161 -368.845)"/><path class="a" d="M424,208h1.535v2.3H424Zm0,0" transform="translate(-383.31 -188.039)"/><path class="a" d="M424,248h1.535v2.3H424Zm0,0" transform="translate(-383.31 -224.2)"/><path class="a" d="M424,288h1.535v2.3H424Zm0,0" transform="translate(-383.31 -260.361)"/><path class="a" d="M424,328h1.535v2.3H424Zm0,0" transform="translate(-383.31 -296.523)"/><path class="a" d="M424,368h1.535v2.3H424Zm0,0" transform="translate(-383.31 -332.684)"/><path class="a" d="M392,208h1.535v2.3H392Zm0,0" transform="translate(-354.381 -188.039)"/><path class="a" d="M424,168h1.535v2.3H424Zm0,0" transform="translate(-383.31 -151.877)"/><path class="a" d="M392,168h1.535v2.3H392Zm0,0" transform="translate(-354.381 -151.877)"/><path class="a" d="M392,248h1.535v2.3H392Zm0,0" transform="translate(-354.381 -224.2)"/><path class="a" d="M392,288h1.535v2.3H392Zm0,0" transform="translate(-354.381 -260.361)"/><path class="a" d="M392,328h1.535v2.3H392Zm0,0" transform="translate(-354.381 -296.523)"/><path class="a" d="M392,368h1.535v2.3H392Zm0,0" transform="translate(-354.381 -332.684)"/><path class="a" d="M424,408h1.535v2.3H424Zm0,0" transform="translate(-383.31 -368.845)"/><path class="a" d="M392,408h1.535v2.3H392Zm0,0" transform="translate(-354.381 -368.845)"/></g></svg>