<svg xmlns="http://www.w3.org/2000/svg" width="673.194" height="595.332" viewBox="0 0 673.194 595.332"><defs><style>.a{fill:#ffc482;}.b{fill:#003f2a;font-size:19px;font-family:Muli-SemiBold, Muli;font-weight:600;}</style></defs><g transform="translate(0 0)"><path class="a" d="M383.888,219.46c-4.05-4.052-6.752-7.429-6.752-8.1s2.7-4.05,6.752-8.1c6.754-7.427,6.754-6.752,4.052-18.232-.675-2.7.675-4.727,6.752-10.129,8.78-7.428,12.155-12.83,14.181-22.284,1.351-2.7,2.7-6.753,4.052-8.778,3.377-3.376,3.377-5.4.675-14.856a33.573,33.573,0,0,1-.675-14.18c.675-4.052,2.026-14.18,2.7-22.284.675-12.83,1.351-16.206,5.4-23.634l4.052-8.1-2.7-6.077c-2.7-4.727-2.7-6.077-1.351-10.129,1.351-5.4,3.377-7.428,18.908-21.608,11.479-10.8,12.83-11.479,18.231-11.479,6.754,0,13.505-2.7,16.882-8.1C477.075.675,478.424,0,482.476,0c4.052.675,5.4,2.026,15.532,15.531,6.076,8.1,12.83,16.882,14.181,19.583,1.349,3.376,2.7,12.155,4.05,24.985,1.351,11.479,2.7,20.933,3.377,21.608a72.215,72.215,0,0,0,12.83,4.052c12.83,2.7,14.181,4.052,10.8,12.83a40.425,40.425,0,0,0-1.351,16.206,50.294,50.294,0,0,0,1.351,12.155c.675,2.026,0,3.376-8.778,9.454-9.455,5.4-10.8,6.077-15.532,5.4-4.052-.675-4.728,0-6.076,2.7-1.351,2.026-4.728,6.753-8.1,10.8-4.726,6.077-6.076,7.428-9.453,7.428-5.4,0-13.505,2.026-17.558,4.727a7.453,7.453,0,0,0-3.375,6.753c0,6.753-2.7,16.206-6.078,20.934l-2.7,4.05-6.076-4.726c-7.427-5.4-9.453-5.4-18.231-1.351-4.052,1.351-11.481,4.726-17.558,6.076-8.778,3.377-10.8,4.728-14.181,8.78-3.377,5.4-16.205,18.231-18.231,18.231C390.642,226.212,387.265,222.835,383.888,219.46Z" transform="translate(128.363 0)"/><path class="a" d="M398.74,297.741v-8.1c.675-2.7,0-3.377-5.4-6.078-3.377-2.024-6.754-4.05-8.1-4.726-2.026-1.351-2.7-1.351-4.052.675-2.026,2.7-2.026,2.7-4.728,0-4.726-4.728-4.05-6.754,4.052-15.532,9.453-10.129,23.634-38.49,22.283-43.216a101.247,101.247,0,0,0-6.752-10.8c-2.7-4.728-5.4-9.455-5.4-10.806,0-4.05-3.377-9.453-8.778-12.828q-9.117-6.078-2.026-6.078c2.7,0,14.181-6.752,15.532-9.453.675-.675.675-4.728,1.351-8.778.673-10.131,3.375-14.856,16.88-27.011,8.778-8.778,11.479-10.129,21.608-13.505a108.794,108.794,0,0,1,15.532-5.4c3.377-1.349,4.052-1.349,9.453,2.026,7.429,5.4,10.129,5.4,15.532-.675,4.728-5.4,5.4-6.076,7.427-18.232,1.351-8.778,1.351-8.778,6.754-10.129,7.427-2.7,8.1-1.351,4.726,12.155-1.351,6.077-3.375,15.53-4.726,20.258-2.026,10.129-2.7,11.479-9.453,14.856l-4.728,2.7.675,14.856.675,14.181-7.429,4.052c-5.4,2.026-8.1,4.726-9.453,7.427-1.351,2.026-3.375,6.078-4.726,8.778-2.7,4.052-3.377,6.078-3.377,17.558v12.83l-7.427,5.4c-18.908,14.856-22.961,18.233-23.634,20.935-.675,1.349-.675,7.427-1.351,13.5,0,9.455-.675,12.155-4.728,20.935a68.7,68.7,0,0,1-6.752,12.155c-1.351,1.351-2.026,4.05-2.026,6.076-.675,2.7-1.351,4.052-3.377,4.052C400.091,302.469,399.416,301.118,398.74,297.741Z" transform="translate(124.99 81.754)"/><path class="a" d="M420.557,317.253c-2.024-1.351-7.427-5.4-12.155-8.778a142.649,142.649,0,0,1-15.53-12.83c-8.1-8.78-11.479-9.453-15.532-2.7-3.377,5.4-5.4,6.076-14.856,3.377l-7.427-2.026-7.429,7.427c-6.752,7.429-10.129,8.778-11.479,5.4-.673-2.026,5.4-15.532,10.131-20.933,2.7-3.377,3.375-5.4,3.375-12.83,0-10.131-.675-10.806-10.8-22.285-7.427-8.778-10.8-10.129-20.933-10.129-7.427,0-7.427,0-4.728-2.7,1.351-2.026,2.026-5.4,2.7-10.806l.675-8.778,4.052,1.351c8.778,1.351,35.113-16.207,44.567-30.386,4.052-6.078,8.778-7.429,15.532-6.754,10.129,1.351,13.505-4.726,7.427-16.205-3.377-5.4-4.052-8.78-4.052-14.856v-8.1l8.1-4.726c8.778-5.4,9.453-5.4,12.83-2.7,1.351,1.351,5.4,2.7,11.479,2.7,10.129,1.351,12.83,2.026,20.257,9.453,4.052,3.377,5.4,6.078,5.4,8.778s2.024,6.754,6.076,12.155l6.752,9.455-8.1,15.53c-6.076,12.83-9.453,17.558-15.532,23.634-8.778,8.778-9.453,11.479-4.05,18.908,4.726,6.752,8.1,8.778,12.155,7.427a9.346,9.346,0,0,1,9.453,2.026,52.375,52.375,0,0,1,.675,6.076c0,2.7,1.351,6.078,2.7,8.78,2.026,3.375,2.026,4.05.675,4.726-2.7,1.351-3.377,4.052-1.351,10.129,2.7,8.1,2.7,8.1-2.7,9.455-4.052,1.349-6.076,4.05-7.427,12.155-2.7,13.5-4.728,17.556-9.455,20.257C426.635,321.305,425.284,321.305,420.557,317.253Z" transform="translate(67.385 125.043)"/><path class="a" d="M379.7,181.149a30.665,30.665,0,0,1-5.4-2.024,25.3,25.3,0,0,1,.675-5.4c.675-6.076.675-6.076-6.078-12.83s-6.752-7.427-4.726-9.453,2.024-4.728,2.024-12.83l-.675-10.129-10.129-5.4a62.691,62.691,0,0,1-10.8-6.752,7.431,7.431,0,0,1,2.026-4.052c3.377-3.376,6.752-11.479,6.752-15.531s.675-4.727,7.429-2.7,8.778,1.351,10.8-3.376c2.026-5.4,4.728-8.778,7.427-8.778.675,0,4.728,2.026,8.78,4.727,5.4,4.051,6.752,6.753,9.453,12.83a117.234,117.234,0,0,1,3.375,14.856c0,4.052,1.351,8.1,2.7,8.778,2.026,2.026,2.026,4.728-1.351,8.78-2.7,3.375-2.7,4.05-.675,6.076.675,2.026,4.052,5.4,7.429,7.427,6.752,6.078,8.778,10.806,8.778,18.233,0,9.453-2.7,12.83-14.181,16.207C392.535,183.851,387.133,183.851,379.7,181.149Z" transform="translate(98.108 76.124)"/><path class="a" d="M372.934,113.921c-3.377.675-7.429.675-10.8-2.026-4.052-2.7-7.429-6.077-6.754-12.155q1.013-7.09-6.076-10.129a2.156,2.156,0,0,1-2.026-2.026c0-2.026,1.351-2.7,2.026-3.376,6.076-2.026,11.479-5.4,16.88-8.1s8.78-6.753,8.1-13.505c-.675-2.7,0-6.077,0-9.454a5.135,5.135,0,0,1,4.05-5.4c5.4-1.351,10.131-2.026,14.856-4.727q3.039-2.026,4.052,2.026c4.05,12.155,8.778,23.634,13.505,35.789,2.7,8.778,3.375,17.557,0,26.335a6.06,6.06,0,0,0,1.351,6.077c1.349.675,2.024,2.026,2.7,2.7,2.7,2.7,2.7,7.428-.675,9.454-.675.675-2.024.675-3.375,0-3.377-1.351-6.754-2.7-10.129-2.026-2.026,0-3.377.675-4.052,2.7a13.808,13.808,0,0,0,0,7.428c1.351,6.077-1.351,9.454-5.4,12.155-1.351.675-2.024,1.351-3.375,1.351-1.351,1.351-2.026,2.7-.675,4.727a.661.661,0,0,0,.675.675c.675,8.778,7.427,10.129,13.5,12.83,10.131,4.05,12.83,13.505,5.4,21.608-3.377,3.377-3.377,4.052.675,7.427,3.377,3.377,6.752,6.078,10.129,10.131,2.026,3.375,1.351,9.453-2.026,11.479-4.726,3.375-9.453,5.4-14.181,8.1-2.024,1.351-4.05.675-6.076-.675-10.129-8.1-21.608-12.83-33.087-18.906-4.052-2.026-6.754,0-7.429,4.726-2.7,10.129-12.155,14.856-21.608,11.479a24.978,24.978,0,0,1-9.453-4.726,5.464,5.464,0,0,1-2.7-7.429c2.026-3.375,2.026-7.427,2.026-11.479,0-2.7-1.351-4.05-4.052-2.7-2.7.675-4.726,1.351-7.427,0-2.7-.675-3.377-2.7-2.026-4.726,2.026-3.377,1.351-7.429,1.351-10.8s-1.351-4.728-4.052-4.728a32.874,32.874,0,0,1-8.1-.675c-3.377,0-4.726-2.7-5.4-5.4-1.351-2.026-1.351-4.052.675-5.4a9.338,9.338,0,0,0,2.7-2.026c4.052-4.05,5.4-8.778,2.7-14.18-1.351-3.376-1.351-7.428-4.052-10.129a2.466,2.466,0,0,1,1.351-3.376c4.052-4.052,8.1-8.778,12.83-12.155s9.453-2.026,14.181-1.351a9.373,9.373,0,0,0,6.078,0c2.7,0,6.076-1.351,7.427,2.7a4.061,4.061,0,0,0,2.7.675h8.778c4.728,0,5.4,0,5.4,4.727,0,3.376,0,6.077,2.7,9.454,4.052,4.727,9.453,5.4,16.207,4.727,2.026-.675,3.377-2.026,2.7-4.051,0-3.376,1.351-6.077,4.05-8.778,2.7-2.026,3.377-5.4,4.052-8.778,0-3.376-2.026-5.4-5.4-6.077Z" transform="translate(49.509 39.363)"/><path class="a" d="M427.234,183.489c-1.351-2.026-1.351-5.4-.675-8.779,0-2.7,0-5.4-.675-6.077-.675,0-2.026-4.052-4.052-8.1-2.024-6.753-3.375-8.778-11.479-14.856-8.778-7.428-9.453-7.428-13.505-6.077-3.375.675-4.726.675-6.752-.675s-2.026-2.7-1.351-11.48a116.27,116.27,0,0,0,.675-13.505c-1.351-4.727-15.532-43.217-18.231-48.619-.675-2.026-2.026-5.4-2.026-7.428,0-4.052-2.026-6.753-10.8-10.8-4.728-2.7-7.429-5.4-10.8-10.129-2.026-3.376-4.728-6.077-6.078-6.077-.675,0-5.4,2.026-9.453,4.727-4.728,3.376-8.1,5.4-8.778,4.727,0,0,2.024-3.376,4.726-7.428,5.4-6.753,6.078-7.428,15.532-9.454,30.386-8.1,38.49-9.454,55.371-9.454,14.856.675,16.882,1.351,23.634,4.727,12.83,6.753,22.959,9.454,33.089,9.454h8.778l-.675,5.4c-.675,4.727-.675,6.753,1.351,9.454,2.7,4.052,2.7,6.077-2.026,14.856-3.377,6.753-4.052,9.454-4.052,17.557,0,5.4-.675,14.856-1.351,20.258-3.375,17.557-3.375,18.907-.675,23.634,2.7,4.052,2.7,5.4,1.351,7.428-2.7,3.376-4.05,6.753-6.752,16.882-3.377,9.454-3.377,9.454-12.155,15.531-4.728,3.376-9.453,7.428-9.453,8.1a36.043,36.043,0,0,0,2.026,8.778,65.428,65.428,0,0,1,1.349,8.1C431.962,186.864,428.585,186.189,427.234,183.489Z" transform="translate(78.265 13.013)"/><path class="a" d="M180.558,109.728c-2.026-2.7-2.7-6.077-1.351-12.83.675-4.052,1.351-5.4,3.377-5.4,4.05,0,7.427-4.051,7.427-8.1,0-2.026,1.351-5.4,2.026-7.428,3.377-5.4,2.7-10.8-.675-14.856-1.351-1.351-2.7-5.4-3.377-8.1-.675-5.4-1.351-6.077-8.1-7.428C171.1,44.228,159.625,39.5,156.248,36.8c-.675-1.351-2.026-4.051-2.026-6.077,0-3.376,1.351-6.077,8.778-12.83l8.778-8.778h20.259c18.231,0,20.257,0,27.011-3.376C234.578-.34,233.9-.34,244.706,5.063c8.1,4.052,12.83,5.4,18.908,6.077,15.532,1.351,16.205,1.351,22.283,10.8,6.076,8.778,6.752,10.129,4.052,12.83-2.026,2.026-4.728,2.026-17.558-1.351-11.479-2.7-11.479-2.7-14.181-.675-3.375,3.376-3.375,5.4,2.026,12.83,2.7,3.376,4.052,7.428,4.052,8.778,0,.675-8.1,6.077-16.882,11.479-22.283,12.83-22.283,13.505-22.283,22.284v6.753l-8.1.675A119.843,119.843,0,0,0,198.113,99.6c-9.453,3.376-10.8,4.051-12.83,8.1a19.991,19.991,0,0,1-2.024,4.051A11.659,11.659,0,0,1,180.558,109.728Z" transform="translate(-78.864 1.015)"/><path class="a" d="M257.93,156.349c0-8.778,0-8.778-6.076-16.882-4.052-4.727-6.754-9.454-6.754-11.479a23.983,23.983,0,0,0-1.349-6.753c-1.351-2.7-2.7-3.376-11.479-4.052-8.1,0-10.131-.675-14.181-4.051s-6.754-4.052-11.479-1.351q-3.039,2.026-16.207,2.026c-11.479,0-14.181,0-17.556,2.7-5.4,3.376-7.429,2.7-7.429-2.026,0-2.7,1.351-4.727,6.078-9.454,3.375-3.376,7.427-7.428,8.1-9.454A15.944,15.944,0,0,1,185,89.5c6.076-2.7,18.231-5.4,24.983-5.4,9.455,0,10.806-1.351,11.479-11.479v-8.1l16.882-9.454c8.778-5.4,18.233-10.8,19.582-12.83,3.377-4.052,3.377-8.778-2.024-16.206l-2.7-5.4c.675-.675,6.076.675,12.155,2.026l10.8,3.376,5.4-3.376,5.4-2.7,6.076,6.753c4.052,3.376,8.1,7.428,10.131,8.778,3.375,2.026,3.375,2.7,4.726,22.284,0,10.8.675,23.634.675,29.036,0,7.428.675,10.8,2.7,12.83s2.026,2.026-4.052,6.077c-10.8,6.077-10.8,6.077-10.8,18.232,0,10.8,0,11.479-4.726,18.907-5.4,8.778-8.1,10.8-13.505,10.8-2.026,0-6.754,2.026-11.479,5.4l-8.78,6.077Z" transform="translate(-68.454 18.543)"/><path class="a" d="M197.306,205.767c-5.4-8.1-4.728-12.155,3.377-24.985,4.05-5.4,6.752-10.8,6.752-12.155,0-4.051-4.728-6.753-12.83-6.753-6.076,0-8.778-.675-10.8-2.7-2.7-2.026-5.4-2.7-15.532-2.7-13.505,0-14.856,0-24.309-8.778-10.129-8.778-10.8-10.129-4.05-24.985l5.4-12.83.675-23.634.675-23.634,11.479-10.8C170.971,38.3,173,36.276,173,28.848v-5.4l7.427,3.376c4.052,1.351,10.129,4.052,12.83,4.727,5.4,1.351,6.078,2.026,6.754,5.4.675,2.7,2.024,5.4,4.05,6.753l2.7,2.026-2.7,6.077c-1.351,3.376-2.7,7.428-2.7,8.778,0,2.7-2.7,4.727-6.752,5.4-2.026,0-3.377,1.351-4.052,5.4-2.7,14.18-2.7,14.18.675,19.582,2.026,2.7,3.377,5.4,3.377,6.077s-1.351,3.376-4.052,5.4c-4.05,4.051-4.05,4.727-4.05,12.83.675,11.479,2.026,12.155,10.8,6.753,6.752-4.051,7.427-4.727,22.283-5.4,8.778-.675,16.882-1.351,18.906-2.026s3.377,0,5.4,2.026c2.026,3.376,3.377,3.376,17.556,4.052,3.377,0,4.052.675,4.052,4.727s2.026,7.428,10.129,15.531c2.026,2.026,4.052,4.727,4.052,5.4,0,2.026-10.129,6.753-13.505,5.4-1.351,0-6.752-.675-11.479-1.35l-9.453-.675-.675-6.077c-.675-7.428-5.4-12.83-10.8-12.83-7.429,0-27.011,5.4-28.362,7.428q-6.078,8.1,8.1,16.206c8.1,4.727,8.78,5.4,7.429,12.155-.675,3.376-1.351,4.052-4.052,4.052-6.076,0-7.427,2.026-7.427,10.8a68.017,68.017,0,0,0,1.351,12.83c.675,4.052.675,4.726-1.351,4.726-2.7,0-6.754,4.728-6.754,8.1C202.707,211.843,201.356,211.168,197.306,205.767Z" transform="translate(-96.288 21.796)"/><path class="a" d="M241.51,138.093c-5.4-6.077-5.4-6.753-5.4-12.83.675-7.428,4.05-11.479,11.479-16.206,6.752-4.052,7.427-6.077,4.05-10.8-2.024-3.376-2.7-7.428-3.375-24.309-2.026-38.49-2.026-41.866,6.076-41.866,5.4,0,12.155-2.026,27.686-8.1l12.83-4.727,10.129,4.727c12.155,6.753,41.865,19.582,43.891,19.582s1.351,2.026-.675,4.727c-3.375,2.7-5.4,2.7-8.778-1.35C332,40.18,330.645,39.5,317.815,40.18c-6.078.675-12.155,1.351-12.83,2.026-2.7.675-2.7,10.8,0,16.206,2.7,6.077,1.351,8.1-4.728,10.129-4.726,1.35-14.179,6.753-14.179,8.1,0,.675,0,7.428-.675,16.206,0,10.8.675,15.531,2.024,18.907l2.026,4.052-6.076,5.4c-3.377,3.376-6.078,6.077-6.078,6.753a11.587,11.587,0,0,0,2.7,4.051c1.351,2.7,2.026,3.376.675,4.727q-1.013,1.013-4.052-2.026c-2.7-4.052-10.129-8.1-12.83-6.753-.675,0-2.7,2.026-3.375,4.051-1.351,2.7-3.377,4.052-5.4,4.052-4.052,0-6.076,1.351-7.427,5.4C246.913,144.17,246.913,144.17,241.51,138.093Z" transform="translate(-2.739 17.892)"/><path class="a" d="M314.14,155.172c-1.351-2.7-2.026-6.753-2.026-14.856,0-12.83-1.351-16.206-6.752-16.206-2.026,0-6.754-3.376-13.505-10.8-6.076-6.077-11.479-10.8-12.83-10.8s-4.052,2.026-7.427,4.051c-9.453,7.428-13.505,4.052-5.4-4.727,2.7-2.7,4.728-6.077,4.728-6.753s-.675-3.376-1.351-6.753c-1.351-2.7-2.026-9.454-2.026-16.206,0-12.155,2.026-16.206,10.129-18.232,6.754-2.026,8.778-3.376,10.129-7.428q1.013-3.039,4.052-2.026c1.351.675,4.728,0,7.427-1.351,6.754-3.376,8.78-1.35,14.856,8.1,2.026,4.051,5.4,8.1,7.429,8.778s4.05,3.376,5.4,7.428c2.026,5.4,4.052,6.753,11.479,6.753h3.377L339.8,80.217a30.72,30.72,0,0,0-2.026,7.428c0,1.351,2.7,3.376,6.754,6.077,6.752,4.727,7.427,6.077,4.05,13.505-2.026,5.4-3.375,6.753-7.427,6.753-2.026,0-6.754,3.376-12.155,8.778-5.4,4.051-10.129,8.1-10.8,8.1-1.351,0-.675,4.727,2.026,12.155s2.7,12.155.675,14.857C318.868,159.9,316.842,159.222,314.14,155.172Z" transform="translate(21.193 38.628)"/><path class="a" d="M377.892,147.648a12.288,12.288,0,0,1-2.7-7.428c0-3.376-.675-6.077-1.351-6.077-2.7-2.026-15.53-4.727-22.959-5.4-3.377-.675-7.427-1.35-8.1-2.026s0-3.376,1.351-6.077c2.7-7.428,2.7-8.778-4.052-14.856L334,100.38l1.349-7.428c2.7-9.454,2.026-10.8-6.076-10.8-6.078,0-6.752-.675-8.1-3.376-2.026-6.753-2.7-7.428-6.754-9.454-3.375-2.026-6.752-7.428-10.129-15.531-.675-2.7-2.7-3.376-6.076-3.376a63.755,63.755,0,0,1-6.078-2.026c-2.026-2.026-8.1,0-8.1,2.026,0,2.7-.675,2.7-6.078-.675-2.7-1.351-4.05-3.376-4.05-5.4,0-2.7,1.349-3.376,6.752-4.727,8.1-1.351,13.505-1.351,14.856,0,1.351,3.376,11.479,8.778,14.181,8.778,2.024,0,4.726-1.351,8.1-4.727l4.728-4.727,22.283-.675,22.283-.675,9.453-6.077c8.778-5.4,10.129-6.077,11.479-4.052,2.7,6.077,8.778,10.8,14.181,13.505,6.752,2.7,8.1,4.052,6.752,8.1-.675,2.026-4.05,4.052-11.479,6.753l-10.8,4.051L386,70.668c0,6.753-.675,11.48-2.026,12.83-2.024,1.351-24.309,12.83-29.035,14.181-4.052,1.35-2.7,4.727,1.351,7.428,2.7.675,6.076,3.376,8.1,5.4,3.377,2.7,3.377,3.376,2.026,6.753-1.351,4.052-.675,5.4,5.4,10.8a25,25,0,0,0,17.558,6.753c5.4,0,5.4,2.7,0,5.4-2.7,2.026-3.377,2.7-2.7,6.077s.675,4.051-3.377,4.051C381.269,150.349,378.568,149,377.892,147.648Z" transform="translate(32.395 24.543)"/><g transform="translate(189.476 149.908)"><path class="a" d="M348.415,216.791c-7.427-3.377-10.8-3.377-12.155-.675-1.351,3.377-4.052,2.026-6.076-2.7-2.026-7.427-6.754-9.453-16.207-9.453-5.4,0-9.453-.675-12.155-2.7-2.7-1.351-4.052-1.351-6.078-.675-.673,1.351-3.375,2.7-5.4,4.052-3.377,1.351-4.052,1.351-6.078-.675-2.7-2.7-2.7-2.7-.673-7.429s2.024-6.076,0-11.479a19.694,19.694,0,0,1-.675-10.8c.675-3.375,1.349-6.752.675-8.778-.675-2.7-1.351-2.7-8.1-2.7s-12.155-2.026-12.155-4.05c0-.675,2.7-3.377,4.728-6.754l4.726-5.4-4.726-3.377c-2.7-2.7-4.728-4.728-4.728-6.754,0-4.726-1.351-6.752-4.726-8.778-5.4-2.7-10.8-2.7-14.856.675-3.377,2.7-3.377,2.7-8.1.675-6.754-3.377-12.155-2.7-14.856,2.7-1.351,2.7-2.026,5.4-2.7,6.076,0,.675-1.351.675-2.7-.675s-2.026-4.05-2.026-10.129v-8.1l8.1-4.727a56.781,56.781,0,0,0,8.1-6.753,7.873,7.873,0,0,1,4.728-1.351c5.4,0,10.8-2.7,14.854-9.454a91.181,91.181,0,0,1,6.078-7.428c2.7-2.026,2.7-2.026,6.752,2.026a29.926,29.926,0,0,0,6.078,4.727c2.7,2.026,7.427-.675,7.427-4.052,0-1.35,1.351-2.7,4.052-3.376a7.717,7.717,0,0,0,5.4-4.727c2.026-3.376,2.7-4.051,6.078-2.7,1.351.675,2.026,2.7,2.026,6.753,0,6.077,2.026,9.454,4.726,9.454,1.351,0,7.429-4.052,14.181-9.454s12.83-10.129,13.505-10.129l10.129,10.129c6.078,6.753,10.129,9.454,12.155,9.454,2.7,0,3.377.675,3.377,8.778,0,10.8,1.351,16.882,7.427,27.011s6.078,12.83,2.026,16.88c-3.377,3.377-4.052,5.4-2.026,8.78,1.351,2.024,1.351,3.375,0,7.427-.675,2.7-1.351,6.078-.675,8.1.675,1.351,0,4.728-2.026,8.1-4.05,7.427-4.05,16.205,0,20.933,4.728,6.076,6.078,9.453,4.052,12.83C358.543,219.493,355.842,220.166,348.415,216.791Z" transform="translate(-213.362 -77.687)"/><text class="b" transform="translate(57.957 74.273)"><tspan x="0" y="0">Kaduna</tspan></text></g><path class="a" d="M344.975,226.5l-3.375-4.052-9.453,1.351c-12.155,2.026-15.532.675-17.558-7.427-2.026-6.752-1.351-11.479,2.026-16.207,1.351-2.024,2.7-5.4,2.026-6.752,0-2.7-.675-3.377-5.4-3.377-8.778-.675-10.8-1.351-12.155-6.076-.675-2.7-3.377-8.1-6.076-12.155-6.754-10.129-7.429-12.83-4.052-20.259q4.052-9.115,4.052-26.334c.675-7.429,4.05-11.479,10.129-11.479,3.377,0,4.05.675,3.377,2.7s-1.351,6.078-2.026,9.455l-.675,6.752,6.752.675c4.052.675,6.754,1.351,7.429,1.351a56.222,56.222,0,0,1-.675,8.1c-.675,5.4-.675,8.1,0,9.453,2.7,2.7,16.88,8.78,20.257,8.78,8.1,0,21.608-6.078,21.608-10.131,0-1.349,1.351-2.7,2.026-4.05,2.026-2.7,2.7-2.026,14.181,4.05,6.752,4.052,14.181,8.78,16.2,10.131,4.052,3.375,4.728,4.726,5.4,13.505.675,7.427,1.351,10.8,4.052,14.179a13.275,13.275,0,0,1,2.7,6.078c-.675.675-4.05,1.351-7.427.675h-7.427l-7.429,8.778c-4.05,4.728-8.778,10.129-10.129,12.155-4.052,3.377-21.608,14.181-24.309,14.181C348.352,230.552,346.326,228.525,344.975,226.5Z" transform="translate(46.404 105.728)"/><path class="a" d="M310.365,260.217c-3.377-6.078-6.076-10.129-10.8-13.505-8.778-7.429-12.83-8.778-24.309-9.453-9.453,0-9.453-.675-14.181-5.4s-6.076-5.4-14.181-6.076c-8.778-.675-9.453-1.351-15.53-6.754C221.23,208.9,217.18,207.546,211.1,212.273c-4.05,3.375-4.726,3.375-4.726-1.351,0-4.052-4.052-9.453-12.155-14.856-2.7-1.351-3.377-2.7-3.377-8.1,0-6.754-2.026-9.453-18.231-20.933-12.155-8.1-16.882-10.131-26.336-10.131h-6.754l.675-8.1v-8.1l4.728-.675c7.427-.675,8.1-4.728,4.726-18.908-1.349-6.752-2.7-12.829-2.7-12.829-.675-.675,6.076-.675,13.505-.675,11.479.675,15.53,1.351,18.906,3.376,2.7,1.35,6.752,2.026,10.8,2.026,3.377,0,6.078.675,6.078,1.351,0,1.351-2.7,6.076-6.754,10.8-7.427,10.8-8.1,15.532-3.377,24.309,5.4,10.129,7.429,12.83,12.155,12.83s6.754-2.7,6.754-8.1c0-2.7,1.351-4.052,4.052-4.728,5.4-2.026,6.752-5.4,4.726-12.155-1.351-2.7-2.026-7.427-2.026-10.129,0-4.052,0-4.728,4.052-5.4,6.076-1.351,7.427-2.7,7.427-12.154,0-6.753-.675-9.454-2.7-10.8a11.663,11.663,0,0,0-2.7-2.026c-2.026,0-11.479-7.428-11.479-8.778,0-2.026,17.556-6.077,23.634-5.4,4.05.675,4.05.675,4.726,7.428.675,9.454,2.7,11.479,14.856,11.479a170.725,170.725,0,0,0,18.233.675h8.1v14.181c0,16.2,1.351,20.933,6.752,24.309,4.728,3.375,6.078,2.7,9.455-4.728,1.349-4.052,3.375-7.427,4.05-7.427a28.934,28.934,0,0,1,6.754,2.026c6.752,2.7,8.1,2.7,12.155-1.351,3.375-2.026,4.05-2.7,6.076-1.351,3.377,2.026,4.728,3.377,4.728,7.427,0,2.7,1.351,4.052,3.375,5.4l2.7,2.026-3.377,4.726c-2.024,2.7-4.05,6.078-4.05,7.429s2.7,4.05,7.427,6.752c6.078,4.052,7.429,4.728,10.129,3.377l3.377-2.026-.675,7.427c-.675,6.078-.675,8.78.675,11.479,2.026,3.377,2.026,4.052,0,8.1-2.026,6.076-2.026,8.1.675,10.8,2.026,2.026,2.026,4.05,2.026,7.427-1.351,5.4-3.377,6.078-8.1,2.7-6.754-4.728-20.259-2.7-21.61,3.377,0,1.349-.675,14.179,0,28.36,0,22.959,0,24.985-2.024,25.66C315.093,268.319,313.067,266.293,310.365,260.217Z" transform="translate(-92.527 76.739)"/><path class="a" d="M248.779,245.427c-4.052-.675-12.83-1.351-19.582-2.026l-12.155-.675-2.7-5.4c-1.351-2.7-6.078-9.453-10.8-14.854-9.453-11.479-10.129-14.856-3.377-24.309,6.752-8.78,5.4-10.8-8.1-12.83-7.429-1.351-12.155-2.7-14.181-4.728s-4.052-3.377-4.728-3.377c0,0-5.4,4.728-10.8,10.131-10.8,10.129-16.88,13.5-22.959,13.5-8.778-.673-10.129,0-16.2,5.4-2.7,3.377-5.4,5.4-6.078,4.728a53.807,53.807,0,0,1-.675-7.429c0-7.427.675-8.1,10.129-13.505,6.754-3.375,8.1-6.076,10.129-18.231,1.351-8.1,2.7-10.129,6.754-15.532,2.7-3.375,4.726-7.427,4.726-8.778,0-2.026,1.351-4.052,4.052-5.4,5.4-2.7,8.778-7.427,9.453-12.155,0-3.375.675-4.726,4.728-5.4,2.026-.675,6.076-.675,8.1-.675,4.728,1.351,31.063,18.906,32.412,22.283,0,1.351.675,5.4.675,8.778,0,6.754,0,6.754,4.052,8.1a18.126,18.126,0,0,1,10.8,11.479c.675,4.726,4.728,8.1,8.1,8.1,1.349,0,4.05-1.351,6.076-3.377l4.052-3.375,8.1,8.1,8.1,8.778,9.455.675c8.778.675,10.129,1.351,14.179,6.078,4.728,4.726,4.728,4.726,13.505,4.726a96.011,96.011,0,0,1,10.129.675c.675.675-1.351,10.129-3.375,14.856-.675,2.026-2.026,2.7-8.1,2.7-6.752,0-7.427-.675-12.83-5.4-3.375-3.377-6.752-4.726-8.778-4.726-5.4,0-7.427,1.349-6.752,4.726.675,2.026,0,4.052-2.7,5.4-2.026,2.7-2.7,4.05-2.026,8.1,0,2.7,1.351,6.752,2.026,8.778.675,2.7.675,4.052,0,5.4C259.583,246.778,258.908,246.778,248.779,245.427Z" transform="translate(-113.998 115.162)"/><path class="a" d="M237.435,201c-1.351-2.026-2.026-5.4-2.026-18.908,0-8.778.675-17.556,1.351-20.257,1.351-4.052,2.026-4.726,4.726-4.726a16.347,16.347,0,0,1,8.78,2.7c7.427,3.377,11.479,2.026,14.179-4.05,1.351-3.377,3.377-6.078,8.1-8.1,6.076-3.375,6.752-3.375,7.427-2.024s-.675,4.726-2.026,7.427c-2.026,4.052-2.7,6.752-2.7,18.231,0,16.207,0,16.882-14.854,22.283-6.078,2.026-10.129,4.728-11.479,6.078A7.37,7.37,0,0,1,237.435,201Z" transform="translate(-3.39 134.6)"/><path class="a" d="M300.13,229.707c-14.856-5.4-15.532-5.4-33.763-6.076-10.129,0-19.584,0-21.608.675-2.7.675-2.7.675-2.7-7.429,0-5.4.675-8.778,2.026-10.8s7.427-5.4,14.179-8.778c6.754-2.7,12.83-6.752,14.181-8.1,1.351-2.7,2.026-6.078,2.026-16.207,0-12.155,0-13.505,3.377-19.582,2.7-6.078,4.726-7.429,7.427-7.429,6.078-.675,10.8,2.026,14.181,8.78,4.052,7.427,5.4,8.778,10.129,4.726,4.052-2.7,7.427-3.375,14.181,0,7.427,3.377,10.129,3.377,12.83,0,.675-1.351,2.026-2.7,2.026-2.026,0,0,1.351,2.026,2.7,4.052,2.026,2.7,3.377,3.377,7.429,3.377,2.7,0,4.726,0,5.4.675s-.675,3.375-2.7,6.076c-2.7,4.728-2.7,5.4-1.351,12.155,2.7,13.505,8.778,17.558,24.309,16.882,6.752-.675,10.8,0,10.8.675.675.675-.675,1.351-2.7.675-6.076-.675-8.1,2.7-8.1,12.155,0,6.752-.675,8.778-2.7,10.129-3.377,2.026-4.728,2.026-16.207-5.4-9.453-5.4-10.129-5.4-19.582-5.4-9.453.675-10.129.675-15.532,5.4l-6.076,5.4,1.351,4.05c2.7,5.4,2.7,7.429,1.349,6.754C316.337,235.11,308.908,232.408,300.13,229.707Z" transform="translate(2.791 135.608)"/><path class="a" d="M268.4,293.678c-2.7-4.05-2.7-10.8,0-14.181,1.351-2.7,1.351-6.076,1.351-14.854l-.675-11.479L263,252.488a12.256,12.256,0,0,1-9.453-4.052c-2.7-2.7-5.4-4.052-10.131-4.052-4.726-.675-6.076-2.024-11.479-7.427-2.7-3.377-5.4-6.752-5.4-8.1,0-2.7-5.4-6.754-8.778-6.754-5.4,0-9.455-3.375-10.131-9.453-1.351-4.052-2.024-5.4-4.05-6.076s-4.052-3.377-6.754-8.1c-4.05-8.778-4.05-10.8,3.377-20.933,0-.675,3.377,1.351,6.076,4.728,6.078,4.726,6.754,4.726,14.856,4.726,4.728,0,9.453-.675,10.8-1.351s2.7-4.726,4.052-9.453c.675-4.052,2.026-7.427,2.7-7.427,3.377-1.351,10.129,5.4,15.53,15.53,3.377,5.4,7.429,10.131,8.78,10.8,4.05,1.351,8.1-.673,10.129-5.4a24.378,24.378,0,0,1,2.7-3.377c3.375,0,4.726,3.377,4.726,13.505,0,12.83,1.351,14.856,8.78,10.8,3.375-2.026,6.752-2.7,14.179-2.7,11.479,0,14.181,2.026,15.532,14.181a97.685,97.685,0,0,0,4.728,17.558c5.4,12.83,5.4,14.181-2.026,20.933-5.4,5.4-6.078,5.4-12.155,4.728-5.4-.675-5.4-.675-10.8,5.4-2.7,3.377-4.728,6.754-5.4,7.429s-3.377,1.349-6.076,2.024c-6.078.675-13.505,6.754-14.181,11.479C271.775,296.379,270.424,297.055,268.4,293.678Z" transform="translate(-41.782 156.72)"/><path class="a" d="M205.864,287.4c-.675-2.7-2.026-4.728-6.078-7.429s-6.752-5.4-8.1-8.778c-.675-3.377-2.7-5.4-4.052-5.4-2.026-.675-12.83-.675-25.66-.675l-22.283.675-2.7,5.4c-2.024,4.728-2.7,5.4-11.479,7.429-4.726.673-8.778,1.349-8.778,1.349-.675,0-.675-19.582-.675-42.541l-.675-42.541,2.7-.675a6.885,6.885,0,0,1,5.4,3.375c2.7,3.377,2.7,4.728,2.024,10.8-.675,6.754-.675,7.429,6.078,14.856,3.377,4.728,7.427,8.1,8.1,8.1,1.351,0,4.052-1.349,7.429-3.375,10.8-8.1,20.257-4.052,20.257,8.778,0,8.1,2.026,9.453,12.83,8.1,7.427-.675,8.1-.675,11.479,3.377,3.377,3.377,4.726,4.052,11.479,4.052,9.453,0,10.8,1.351,5.4,8.1s-5.4,11.479,0,16.882c3.377,3.375,3.377,4.05,1.351,8.778C207.888,291.455,205.864,292.13,205.864,287.4Z" transform="translate(-114.974 180.551)"/><path class="a" d="M173.645,274.477v-7.429c-.675-8.1-2.024-8.778-14.179-12.828l-8.78-2.7-4.05,4.05c-2.7,2.026-4.728,4.052-6.078,4.052-.675,0-2.7-2.7-5.4-5.4-2.7-4.728-3.377-6.754-3.377-12.83,0-10.8-3.377-14.856-14.856-18.233-2.026-.675-2.026-2.026-1.351-15.532l.675-14.179,5.4-6.078c6.752-7.427,13.505-11.479,22.283-11.479,6.752,0,12.83-4.052,23.634-14.181,6.076-6.752,7.427-7.427,10.8-3.375,1.351,1.349,4.052,2.024,6.752,2.7a34.217,34.217,0,0,1,8.78,1.351l3.375,1.351-3.375,4.728c-1.351,2.7-3.377,6.752-3.377,10.129-.675,5.4-.675,6.076,7.427,14.856a81.053,81.053,0,0,1,12.83,19.582c4.728,10.8,4.728,10.129-3.375,14.181-4.052,1.351-4.728,1.351-6.078-.675-2.7-4.052-3.377-4.052-11.479,2.026-6.752,4.05-6.752,4.726-6.076,8.778,0,2.7,0,5.4-1.351,6.752-2.026,2.7-2.026,3.377,1.351,6.754,2.7,2.7,3.375,4.726,4.05,11.479.675,6.076,0,8.778-1.351,9.453C184.449,273.127,174.32,275.828,173.645,274.477Z" transform="translate(-115.169 144.86)"/><path class="a" d="M123.516,246.751c6.752-1.351,10.8-4.052,12.83-8.778l2.026-3.377H158.63c12.155-.675,20.257,0,20.257.675s1.351,3.377,3.377,5.4c2.026,2.7,4.052,5.4,4.052,6.076s-10.129,1.351-34.438,1.351C128.919,248.1,119.464,247.427,123.516,246.751Z" transform="translate(-108.256 217.827)"/><path class="a" d="M159.375,246.663c-1.351-2.7-2.026-8.78-2.026-14.856S156.674,221,156,221c-.675-.675-1.351-3.377-2.026-6.754-1.351-10.129,4.052-14.854,10.8-10.8,3.377,2.026,17.558-5.4,18.908-10.129s4.05-5.4,13.5-4.052c4.052.675,8.1,1.351,8.78,2.026a13.8,13.8,0,0,1-3.377,3.377c-4.052,3.377-4.052,4.052-3.377,12.83.675,5.4,1.351,10.8,2.7,12.83,2.026,5.4,2.026,6.752-1.351,8.1a5.079,5.079,0,0,0-3.377,4.728c-.675,4.05-1.349,4.05-6.752,4.726-6.752,0-7.427,1.351-9.453,7.429l-1.351,4.726-9.453.675h-9.455Z" transform="translate(-79.289 175.375)"/><path class="a" d="M180.726,301.431c-6.754-6.076-12.83-10.8-12.83-11.479-.675-.675.675-4.052,2.026-7.427,3.377-8.1,3.377-8.778-1.351-12.83-4.728-4.728-4.728-6.754-.675-10.8,2.026-2.026,4.728-6.754,6.076-12.155,3.377-11.479,4.052-12.155,9.455-12.155,6.752,0,9.453-2.026,9.453-6.078,0-4.726,3.377-5.4,7.427-2.026,4.052,4.052,6.078,2.7,8.78-2.7.673-2.7,2.024-4.728,2.7-4.728s2.7,2.026,4.052,4.052c4.052,6.076,6.076,7.427,10.129,4.05,2.7-2.024,4.728-5.4,7.427-13.5,4.052-11.481,5.4-14.181,10.806-14.181,2.024,0,3.375,1.351,4.726,6.752,1.351,4.052,2.026,10.8,2.026,16.207,0,10.129,0,10.129-8.778,16.88-2.7,2.026-3.377,2.7-1.351,6.754,2.026,6.752-.675,12.155-6.078,12.155-3.375.675-4.726,0-5.4-2.7-2.026-4.728-6.754-7.427-12.83-6.752-4.052,0-4.728.675-8.1,6.752-1.351,4.052-3.377,9.453-3.377,14.181-.675,7.427-1.351,8.778-4.728,12.155-5.4,5.4-6.076,8.1-.675,11.479,2.026.675,4.052,2.7,4.052,3.377,0,1.349-8.778,14.854-9.453,14.854S188.153,306.834,180.726,301.431Z" transform="translate(-68.903 185.431)"/><path class="a" d="M203.613,226.472c-4.052-7.427-8.78-8.1-12.155-2.026-.675,2.026-2.026,4.052-2.7,4.052-1.351,0-7.427-14.181-7.427-20.933-.675-6.754-.675-7.429,3.375-12.155,4.052-3.377,5.4-4.052,10.8-4.052a22.049,22.049,0,0,0,8.1-1.351c2.026-1.351,3.375-.675,4.726,1.351,1.351,1.351,3.377,2.7,4.052,2.7s2.026.675,2.026,2.7a6.971,6.971,0,0,0,2.7,5.4c2.7,2.7,2.7,3.377.675,6.078a77.39,77.39,0,0,0-4.728,12.83c-2.026,6.076-4.052,10.8-4.728,10.8S205.639,229.849,203.613,226.472Z" transform="translate(-53.975 175.983)"/><path class="a" d="M270.792,277.959c-2.7-1.349-6.752-2.7-8.778-2.7-4.728,0-6.076-2.026-12.155-12.83-4.052-8.1-4.052-8.1-2.026-12.155,3.377-5.4,2.7-8.1-1.351-10.129l-3.375-2.026,4.05-2.026a73.773,73.773,0,0,0,8.78-7.427,84.135,84.135,0,0,1,6.076-6.754c1.351-.675,4.052,2.026,7.427,6.754,4.728,6.752,5.4,6.752,9.455,6.076,6.076-1.351,6.752,2.026,1.349,7.427-4.05,4.052-4.726,5.4-4.05,8.1,1.351,6.076,3.377,24.985,2.7,27.684S276.2,280.661,270.792,277.959Z" transform="translate(3.767 206.201)"/><path class="a" d="M234.348,284.586c-1.351-.675-.675-2.7,1.351-11.479,2.026-9.453,2.7-12.83,1.351-20.257-.675-8.1-.675-8.78,2.026-10.8a19.158,19.158,0,0,0,4.05-6.078c.675-4.726.675-4.726,5.4-2.026,4.052,2.026,4.726,3.377,2.7,5.4-2.7,2.7-2.7,8.778.675,13.505A87.785,87.785,0,0,1,258.657,265c5.4,8.1,4.728,9.453-5.4,9.453-5.4,0-6.076.675-7.427,3.377C242.45,285.261,239.075,287.287,234.348,284.586Z" transform="translate(-5.03 215.782)"/><path class="a" d="M239.919,297.024c-2.024-2.026-2.7-4.728-4.05-13.505-.675-6.076-1.351-11.479-.675-12.155a5.159,5.159,0,0,1,3.377-1.351c4.05,0,8.1-3.375,10.129-8.1,2.026-4.052,3.375-4.728,11.479-5.4,4.726,0,6.076,0,7.427,2.7a44.066,44.066,0,0,1,1.351,11.479c0,6.754,0,8.78-3.377,12.83-4.05,5.4-4.05,6.078-2.7,9.453.675,2.026,1.349,4.052.675,4.728-.675,1.351-5.4,1.351-10.806,1.351C245.322,299.05,241.946,298.375,239.919,297.024Z" transform="translate(-3.85 238.457)"/><path class="a" d="M249.407,321.377c0-2.7,2.7-10.129,5.4-14.179,2.026-2.7,2.026-4.728,1.351-8.78-.675-5.4,0-6.752,2.7-10.129s3.375-4.726,3.375-13.505c0-8.1-.673-11.479-3.375-16.205-3.377-6.754-2.7-7.429,6.752-2.7,6.754,3.377,17.558,14.181,19.584,18.907,1.349,2.7.673,11.479-.675,11.479a18.278,18.278,0,0,1-5.4-2.026c-5.4-2.024-6.752-.673-12.83,14.856-6.076,14.856-6.076,16.207-3.377,18.908,3.377,4.05,1.351,5.4-6.752,5.4C251.431,323.4,249.407,322.728,249.407,321.377Z" transform="translate(9.623 235.037)"/><path class="a" d="M266.232,279.93c-2.7-3.375-2.7-4.05-1.351-7.427,2.026-5.4,2.026-20.933.675-27.011-2.026-6.752-1.351-7.427,4.728-5.4,6.076,2.7,9.453.675,10.8-4.728.675-3.375,1.351-4.05,6.076-4.05a10.317,10.317,0,0,1,6.754,2.7c2.7,3.377,6.076,10.131,6.076,12.83s-4.726,13.505-8.1,18.908c-2.026,2.7-2.7,3.375-8.1,2.7l-5.4-.673-2.7,6.076C271.635,282.631,270.284,283.307,266.232,279.93Z" transform="translate(23.184 215.035)"/><path class="a" d="M306.32,367.624a14.494,14.494,0,0,1-2.7-4.728c0-1.351-4.05-6.078-7.427-10.129-4.052-4.728-8.778-11.479-10.8-16.207-5.4-9.453-8.778-13.505-12.155-13.505-2.026,0-2.026-.675-1.351-9.453a57.259,57.259,0,0,0-.675-15.531c-1.351-6.076-1.351-7.427.675-12.155,2.7-4.726,3.377-5.4,8.1-5.4,6.754,0,9.455-2.7,16.207-16.207,5.4-10.8,5.4-12.83,1.351-22.283-.675-2.026,0-2.7,4.726-4.726,3.377-2.026,6.754-4.052,8.1-7.429,4.726-6.752,12.83-5.4,16.88,3.377,4.052,7.427,7.429,8.778,15.532,8.1,6.078-.675,6.754-.675,10.129,2.026,5.4,5.4,4.052,8.1-14.854,25.66-9.455,8.778-17.558,16.88-17.558,18.231-.675,1.351.675,4.728,2.7,7.429,2.7,5.4,3.375,5.4.675,8.778-1.351,2.7-2.026,5.4-2.026,13.505l.675,10.129-5.4,5.4c-6.752,7.427-7.427,10.129-7.427,23.634C309.7,367.624,308.346,371,306.32,367.624Z" transform="translate(29.013 209.724)"/><path class="a" d="M260.987,321.586v-8.778c.675-2.026.675-7.429-.675-12.155-1.351-7.429-1.351-8.1,2.026-17.558,2.026-5.4,4.05-10.129,4.726-10.8,1.351-.675,4.052,3.377,5.4,8.1,1.351,2.7,2.7,4.052,5.4,4.728,6.754,2.026,7.429,2.7,12.83,13.505,4.728,8.778,6.078,12.155,6.078,17.556,0,4.052-.675,7.429-1.351,7.429-.675.675-8.1,1.351-16.882,1.351l-16.205,1.349Z" transform="translate(18.975 253.061)"/><path class="a" d="M230.688,339.361c-.675-1.351.675-5.4,2.7-9.453,4.05-8.1,3.375-10.131-3.377-12.155-3.377-.675-4.052-.675-4.052-6.754,0-5.4.675-7.427,4.052-10.8a31.17,31.17,0,0,0,4.728-6.752c2.024-3.377,2.024-16.882.675-17.558-2.026-1.351-2.026-7.427-.675-9.453.675-1.351,2.024,2.7,2.7,8.778a91.106,91.106,0,0,1,2.026,13.505c1.351,4.052,8.778,7.427,19.584,8.1,9.453.675,12.155,2.7,7.427,6.078-4.052,2.7-4.052,7.427,0,11.479,2.7,2.7,4.728,2.7,11.479,2.7h8.778V324.5c0,4.052,0,8.1.675,10.129,0,2.026-1.351,2.7-9.453,4.052-8.778,2.026-9.453,2.026-13.505-.675-5.4-3.377-6.752-3.377-16.207.675S232.038,342.736,230.688,339.361Z" transform="translate(-12.174 247.441)"/><path class="a" d="M227.483,338.805c-4.052-.675-8.78-4.05-11.479-6.076-5.4-5.4-14.181-18.233-18.908-28.362-4.05-8.1-3.375-10.129,2.7-7.427,2.026,1.351,5.4,2.026,8.1,2.7,3.377.673,4.728.673,8.78-3.377,4.726-4.052,6.076-4.728,11.479-4.728,3.375,0,7.427-.675,9.453-2.026,12.155-8.1,14.856-10.129,17.556-12.83l3.377-3.375v6.752c0,6.754-1.351,9.453-7.427,12.155-3.377,2.026-3.377,2.026-2.7,10.129,1.351,8.78,3.377,13.505,7.427,14.181,4.052,1.351,4.052,2.7.675,5.4-2.026,1.351-2.7,2.7-2.7,7.427v5.4H247.74c-4.052.675-5.4,1.349-6.752,3.375C239.637,342.182,236.936,342.182,227.483,338.805Z" transform="translate(-41.381 254.072)"/><path class="a" d="M235.637,306.8c0-6.752-2.7-9.453-12.155-14.181l-4.728-2.7-4.05,2.7c-2.7,2.026-4.052,2.7-6.078,1.351-4.052-2.026-7.427-1.351-9.453,1.351q-3.039,6.078-4.052-2.026a13.677,13.677,0,0,0-5.4-9.453l-5.4-4.728,3.377-4.05c2.7-2.7,4.05-6.078,4.726-11.479,1.351-16.207,10.131-24.309,13.505-12.155.675,3.375,1.351,4.05,7.429,4.726,7.427.675,10.8-.675,14.179-8.1,2.026-4.052,2.7-6.752,2.026-9.453-.675-4.052,0-4.728,2.7-6.754,4.052-2.7,6.754-9.453,6.754-16.88v-6.754l4.05,2.7a16.547,16.547,0,0,0,8.1,2.7c3.375,0,6.076.675,10.129,4.052,3.375,3.375,6.752,4.726,8.778,4.726h4.052v8.1c0,7.429-.675,8.78-3.377,12.155-3.377,4.052-3.377,4.052-1.351,10.131,2.7,9.453,2.7,10.129-4.052,12.155a51.386,51.386,0,0,0-8.778,4.726c-1.351,1.351-5.4,2.026-9.453,2.7-6.078.675-7.429,1.351-7.429,3.377-.673,5.4.675,10.129,5.4,14.179l4.728,4.052-3.377,6.754c-2.7,6.752-7.427,11.479-10.129,11.479C235.637,312.207,235.637,309.506,235.637,306.8Z" transform="translate(-50.887 193.563)"/><path class="a" d="M209.253,321.179c-6.752-3.375-8.1-4.726-7.427-6.076,2.026-5.4,2.026-6.754-2.7-10.129-11.479-10.129-13.505-12.83-14.856-16.882-1.351-2.026-1.351-6.076-1.351-8.778,1.351-6.754,8.78-15.532,8.78-10.129,0,2.7,2.7,8.1,4.05,8.1.675,0,3.377-1.351,6.078-2.7,3.375-2.7,4.726-3.375,8.778-2.7,3.377.675,4.728,0,6.752-1.349,2.026-2.026,3.377-2.026,6.754-.675,5.4,2.024,7.427,6.076,6.752,11.479-.675,4.726,1.351,8.778,4.728,8.778,6.752,0,14.856-7.427,18.906-17.558,4.052-9.453,3.377-10.8-2.7-15.53-5.4-4.728-6.078-7.429-1.351-7.429,1.351,0,6.752-2.024,11.479-4.726,14.181-6.754,14.181-6.754,15.53,1.351,2.026,8.778,1.351,12.155-4.726,32.412-7.429,22.959-8.778,24.309-19.584,32.412-8.1,5.4-10.129,6.078-16.205,6.078-5.4,0-7.429.675-10.8,4.05-2.7,2.026-5.4,4.052-6.078,4.052C218.706,325.231,213.98,323.2,209.253,321.179Z" transform="translate(-52.188 223.08)"/><path class="a" d="M368.814,277.519c-4.052-6.076-4.052-6.752-8.778-5.4a44.588,44.588,0,0,1-9.455.675c-4.05.675-4.726,0-7.427-6.078-2.026-3.375-4.052-6.752-5.4-6.752-.675-.675-6.076-1.351-12.155-1.351-10.8,0-12.83.675-10.8,5.4,1.351,1.351.675,2.7-2.026,4.728-4.726,4.052-8.778,4.728-13.5,2.026-2.7-1.351-6.754-2.026-11.479-2.026-6.754.675-6.754.675-7.429,5.4-.675,2.7-1.351,4.05-2.7,4.05s-2.024-1.351-2.024-7.427c0-4.728-.675-7.427-2.026-9.453-2.026-2.026-2.7-2.026-5.4,0-4.05,3.375-5.4,2.7-8.1-.675-2.026-3.377-2.026-3.377,6.076-10.8,6.754-6.754,7.429-8.1,7.429-12.155,0-2.7-1.351-8.1-2.7-12.83-4.052-8.78-8.1-27.686-6.076-29.712a152.213,152.213,0,0,1,20.933,6.078c17.556,5.4,20.257,6.076,22.283,4.726,2.026-2.024,2.026-6.076,0-13.505-1.351-4.05,2.026-6.752,9.453-7.427,7.429-1.351,12.155,0,20.933,4.728,6.754,4.05,8.78,6.752,8.78,11.479,0,5.4,2.7,6.076,8.778,3.375a44.189,44.189,0,0,1,14.181-2.7c8.1,0,8.1,0,13.505,6.076,3.375,3.377,6.752,8.778,8.778,11.479,2.026,5.4,2.026,6.078,0,11.479a148.979,148.979,0,0,1-7.429,14.181c-6.752,9.453-6.752,9.453-5.4,16.882,1.351,8.1-.675,18.231-4.052,20.257C372.865,284.273,372.865,283.6,368.814,277.519Z" transform="translate(18.514 171.528)"/></g></svg>