<svg xmlns="http://www.w3.org/2000/svg" width="42.502" height="56.056" viewBox="0 0 42.502 56.056"><defs><style>.a{fill:#ff8f0f;}</style></defs><g transform="translate(-61.901)"><path class="a" d="M79.373,52.772H73.3a1.642,1.642,0,1,0,0,3.285H93.006a1.642,1.642,0,1,0,0-3.285H86.931a111.578,111.578,0,0,0,7.909-9.493c6.345-8.6,9.563-15.974,9.563-21.929A21.4,21.4,0,0,0,83.16,0h-.016A21.4,21.4,0,0,0,61.9,21.349c0,5.955,3.217,13.333,9.563,21.929A111.563,111.563,0,0,0,79.373,52.772ZM83.152,3.285a18.1,18.1,0,0,1,17.966,18.065c0,5.164-3.085,12.073-8.921,19.979a108.879,108.879,0,0,1-9.046,10.657,108.866,108.866,0,0,1-9.046-10.657c-5.836-7.906-8.921-14.815-8.921-19.979A18.1,18.1,0,0,1,83.152,3.285Z"/><path class="a" d="M150.56,74.778A14.781,14.781,0,1,0,135.78,89.558,14.8,14.8,0,0,0,150.56,74.778ZM130.853,85.163v-.532a4.927,4.927,0,1,1,9.854,0v.532a11.482,11.482,0,0,1-9.854,0Zm-6.569-10.385a11.5,11.5,0,1,1,19.541,8.2,8.213,8.213,0,0,0-16.09,0A11.461,11.461,0,0,1,124.284,74.778Z" transform="translate(-52.628 -53.428)"/><path class="a" d="M220.853,124.924a4.927,4.927,0,1,0-4.927,4.927A4.932,4.932,0,0,0,220.853,124.924Zm-4.927,1.642a1.642,1.642,0,1,1,1.642-1.642A1.644,1.644,0,0,1,215.926,126.566Z" transform="translate(-132.774 -106.859)"/></g></svg>