<svg xmlns="http://www.w3.org/2000/svg" width="61.224" height="53.474" viewBox="0 0 61.224 53.474"><defs><style>.a{fill:#43893b;stroke:#43893b;stroke-width:0.4px;}</style></defs><g transform="translate(0.2 0.2)"><path class="a" d="M220.141,48.788a.785.785,0,0,0-1.562,0L217.2,62.446a.785.785,0,0,0,.956.844,5.537,5.537,0,0,1,2.416,0,.784.784,0,0,0,.956-.844Zm-.781,12.8c-.167,0-.334.006-.5.017l.5-4.944.5,4.944C219.695,61.593,219.527,61.586,219.36,61.586Zm0,0" transform="translate(-188.948 -48.082)"/><path class="a" d="M248.035,130.141c-5.72,0-12.717,1.011-16.276,2.351a.785.785,0,0,0-.509.735V137a.785.785,0,0,0,.509.735c3.56,1.341,10.558,2.351,16.276,2.351,7.774,0,12.6-1.9,12.6-4.972S255.809,130.141,248.035,130.141Zm0,8.372a55.354,55.354,0,0,1-15.214-2.07v-2.663a55.387,55.387,0,0,1,15.214-2.07c7.244,0,11.034,1.712,11.034,3.4S255.279,138.513,248.035,138.513Zm0,0" transform="translate(-199.815 -109.509)"/><path class="a" d="M136.271,132.492c-3.56-1.34-10.557-2.351-16.276-2.351-7.774,0-12.6,1.905-12.6,4.971s4.83,4.972,12.6,4.972c5.719,0,12.716-1.011,16.276-2.351a.785.785,0,0,0,.509-.735v-3.771A.787.787,0,0,0,136.271,132.492Zm-1.062,3.952a55.358,55.358,0,0,1-15.214,2.07c-7.244,0-11.034-1.711-11.034-3.4s3.79-3.4,11.034-3.4a55.347,55.347,0,0,1,15.214,2.07Zm0,0" transform="translate(-107.391 -109.509)"/><path class="a" d="M245.114,75.121a.784.784,0,0,0-1.07-.294l-9.453,5.367a.783.783,0,0,0-.383.54l-1.294,6.993-6.5,4.754a.785.785,0,0,0,.927,1.267l6.752-4.939a.785.785,0,0,0,.309-.491l1.284-6.941,9.134-5.187a.783.783,0,0,0,.3-1.069Zm0,0" transform="translate(-195.781 -68.28)"/><path class="a" d="M170.579,92.482l-6.5-4.754-1.294-6.993a.782.782,0,0,0-.384-.54l-9.452-5.368a.785.785,0,0,0-.776,1.365l9.135,5.187,1.284,6.941a.785.785,0,0,0,.309.491l6.752,4.939a.785.785,0,0,0,.927-1.267Zm0,0" transform="translate(-140.387 -68.28)"/><path class="a" d="M170.68,154.638a.784.784,0,0,0-1.11-.022l-6.752,6.482a.786.786,0,0,0-.232.452l-1.295,8.8-9.115,5.107a.786.786,0,0,0,.384,1.471.776.776,0,0,0,.383-.1l9.453-5.295a.788.788,0,0,0,.393-.57l1.311-8.917,6.558-6.3A.784.784,0,0,0,170.68,154.638Zm0,0" transform="translate(-140.385 -127.705)"/><path class="a" d="M160.924,154.87a.787.787,0,0,0-1.032-.41l-9.993,4.322a.787.787,0,0,0-.445.512l-2.064,7.478-8.579,3.9a.785.785,0,1,0,.65,1.429l8.913-4.052a.782.782,0,0,0,.431-.506l2.062-7.469,9.648-4.172a.784.784,0,0,0,.409-1.031Zm0,0" transform="translate(-130.417 -127.652)"/><path class="a" d="M244.815,175.455,235.7,170.35l-1.294-8.8a.784.784,0,0,0-.233-.452l-6.751-6.482a.785.785,0,0,0-1.088,1.133l6.558,6.3,1.311,8.917a.785.785,0,0,0,.393.57l9.453,5.295a.784.784,0,0,0,1.068-.3.784.784,0,0,0-.3-1.068Zm0,0" transform="translate(-195.781 -127.705)"/><path class="a" d="M248.267,170.674l-8.579-3.9-2.063-7.479a.79.79,0,0,0-.446-.512l-9.993-4.321a.785.785,0,1,0-.623,1.441l9.648,4.172,2.061,7.469a.786.786,0,0,0,.432.506l8.913,4.052a.785.785,0,1,0,.65-1.429Zm0,0" transform="translate(-195.839 -127.653)"/><path class="a" d="M216.784,126.965a3.084,3.084,0,0,0-3.081,3.081v27.319a3.081,3.081,0,0,0,6.162,0V130.046A3.085,3.085,0,0,0,216.784,126.965Zm1.512,30.4a1.511,1.511,0,0,1-3.023,0V130.046a1.511,1.511,0,0,1,3.023,0Zm0,0" transform="translate(-186.373 -107.372)"/><path class="a" d="M209.929,99.691c-3.039,0-5.51,1.928-5.51,4.3s2.472,4.3,5.51,4.3,5.511-1.928,5.511-4.3S212.969,99.691,209.929,99.691Zm0,7.022c-2.136,0-3.94-1.248-3.94-2.726s1.8-2.726,3.94-2.726,3.941,1.248,3.941,2.726S212.065,106.713,209.929,106.713Zm0,0" transform="translate(-179.517 -86.822)"/></g></svg>