<svg xmlns="http://www.w3.org/2000/svg" width="49.4" height="49.4" viewBox="0 0 49.4 49.4"><defs><style>.a{fill:#313131;}</style></defs><path class="a" d="M227.187,32h-1.594v1.594H224v1.594h1.594v1.594h1.594V35.187h1.593V33.594h-1.593Zm0,0" transform="translate(-201.691 -28.813)"/><path class="a" d="M27.09,15.935V12.748h1.594a1.6,1.6,0,0,0,1.594-1.594v-.8h4.354L36.862,13.7,39.9,5.351l1.8,4.21h7.7V7.968H42.754L39.778,1.023,36.441,10.2l-.957-1.435H30.277V1.593A1.6,1.6,0,0,0,28.684,0H20.716a1.6,1.6,0,0,0-1.594,1.594V5.577h-6.9l-1.8,4.21L7.382,1.435,5.151,4.78H0V6.374H6L6.96,4.939,10.3,14.115l2.977-6.944h5.849v3.984a1.6,1.6,0,0,0,1.594,1.594h1.594v3.187H23.9v4.781H19.919A8.8,8.8,0,0,0,16,21.641l-.553.276a3.976,3.976,0,0,0-3.782-2.795h-2.9a3.944,3.944,0,0,0-2.39.817V16.732a2.39,2.39,0,0,0-4.781,0V28.683A1.6,1.6,0,0,0,0,30.277v1.594a1.6,1.6,0,0,0,1.594,1.594h2.39v8.773a3.98,3.98,0,1,0,4.781-.005V33.464H40.635v8.768a3.984,3.984,0,1,0,4.781,0V33.464h2.39A1.6,1.6,0,0,0,49.4,31.871V30.277a1.6,1.6,0,0,0-1.594-1.594h-.04a8.773,8.773,0,0,0-8.724-7.968H25.5V15.935ZM8.764,20.716h2.9a2.39,2.39,0,1,1,0,4.781h-2.9a2.39,2.39,0,0,1,0-4.781Zm3.187,6.374A2.387,2.387,0,0,1,14.2,28.683H6.521A2.387,2.387,0,0,1,8.764,27.09Zm-5.577-.817.025.021-.025.021ZM3.187,16.732a.8.8,0,0,1,1.594,0V28.683H3.187ZM6.374,47.806a2.393,2.393,0,0,1-2.39-2.39,2.357,2.357,0,0,1,.151-.785,2.377,2.377,0,0,0,4.479,0,2.358,2.358,0,0,1,.151.785,2.393,2.393,0,0,1-2.39,2.39Zm.8-3.984a.8.8,0,1,1-1.594,0V33.464H7.171Zm35.854,3.984a2.393,2.393,0,0,1-2.39-2.39,2.358,2.358,0,0,1,.151-.785,2.377,2.377,0,0,0,4.479,0,2.358,2.358,0,0,1,.151.785,2.393,2.393,0,0,1-2.39,2.39Zm.8-3.984a.8.8,0,1,1-1.594,0V33.464h1.594Zm2.343-15.139h-3.14v1.594h4.781v1.594H1.593V30.277H41.432V28.683H15.855a3.994,3.994,0,0,0-1.682-2.508A3.958,3.958,0,0,0,15.6,23.625l1.117-.558a7.2,7.2,0,0,1,3.206-.757H39.041a7.178,7.178,0,0,1,7.124,6.374ZM20.716,1.593h7.968v9.561H20.716ZM25.5,12.748v1.594H23.9V12.748Zm0,0" transform="translate(0 0)"/></svg>