<svg xmlns="http://www.w3.org/2000/svg" width="27.024" height="25.117" viewBox="0 0 27.024 25.117"><defs><style>.a{fill:#3a3a3a;}</style></defs><g transform="translate(0 0)"><path class="a" d="M24.922,24.179H22.056V18.966a.9.9,0,0,0-.9-.9H5.869a.9.9,0,0,0-.9.9v5.213H2.1a2.1,2.1,0,0,0-2.1,2.1v9.063a2.1,2.1,0,0,0,2.1,2.1H4.968v4.835a.9.9,0,0,0,.9.9H21.155a.9.9,0,0,0,.9-.9V37.445h2.866a2.1,2.1,0,0,0,2.1-2.1V26.281A2.1,2.1,0,0,0,24.922,24.179ZM6.77,19.867H20.254v4.313H6.77ZM20.254,41.38H6.77V34.01H20.254C20.254,34.234,20.254,41.211,20.254,41.38Zm4.968-6.036a.3.3,0,0,1-.3.3H22.055V33.11a.9.9,0,0,0-.9-.9H5.869a.9.9,0,0,0-.9.9v2.534H2.1a.3.3,0,0,1-.3-.3V26.281a.3.3,0,0,1,.3-.3h22.82a.3.3,0,0,1,.3.3v9.063Z" transform="translate(0 -18.065)"/></g><g transform="translate(17.961 9.602)"><path class="a" d="M343.492,199.988H341.2a.9.9,0,1,0,0,1.8h2.293a.9.9,0,1,0,0-1.8Z" transform="translate(-340.298 -199.988)"/></g><g transform="translate(8.708 20.15)"><path class="a" d="M173.685,399.834h-7.807a.9.9,0,1,0,0,1.8h7.807a.9.9,0,0,0,0-1.8Z" transform="translate(-164.977 -399.834)"/></g><g transform="translate(8.708 17.309)"><path class="a" d="M173.685,346.006h-7.807a.9.9,0,1,0,0,1.8h7.807a.9.9,0,0,0,0-1.8Z" transform="translate(-164.977 -346.006)"/></g></svg>