<svg xmlns="http://www.w3.org/2000/svg" width="35.684" height="56.441" viewBox="0 0 35.684 56.441"><defs><style>.a{fill:#ea1b4b;fill-rule:evenodd;}</style></defs><path class="a" d="M18.343,2.213a9.565,9.565,0,0,0-4.178.9,4.8,4.8,0,0,0-2.3,2.078L10.4,9.238a14.811,14.811,0,0,1,4.565-1.644,18.2,18.2,0,0,1,6.75,0,14.811,14.811,0,0,1,4.565,1.644l-1.466-4.05a4.8,4.8,0,0,0-2.3-2.078,9.567,9.567,0,0,0-4.178-.9ZM7.866,36.558a1.109,1.109,0,1,1-1.109,1.109A1.11,1.11,0,0,1,7.866,36.558ZM9.609,33.5A1.157,1.157,0,1,0,11.456,34.9h0c4.2-5.578,8.446-11.555,10.674-15.877,1.265-2.447,2.131-4.262,2.715-5.684a20.764,20.764,0,0,0,.712-1.953,7.662,7.662,0,0,1,1.241.965,5.14,5.14,0,0,1,1.266,1.815c.094.506.653,4.187-2.122,9.687A180.34,180.34,0,0,1,6.815,53.376L2.909,45.954c.919-1.178,1.991-2.547,3.159-4.047a1.117,1.117,0,0,0-1.775-1.356C2.191,43.3.747,45.145.735,45.164a1.1,1.1,0,0,0-.106,1.19l5,9.5a1.1,1.1,0,0,0,1.84.172A139.7,139.7,0,0,0,17.524,42.2q.408-.624.812-1.247c1.812,2.794,3.715,5.612,5.553,8.181,1.887,2.637,3.719,5.031,5.331,6.887a1.14,1.14,0,0,0,.35.291,1.109,1.109,0,0,0,1.491-.462l5-9.5a1.1,1.1,0,0,0-.109-1.19c-.016-.022-5.771-7.369-11.133-14.718,1.312-2.253,2.387-4.194,3.1-5.6,3.347-6.634,2.3-11.193,2.3-11.206a64.316,64.316,0,0,0-3.4-9.374,6.957,6.957,0,0,0-3.331-3.131A11.8,11.8,0,0,0,18.343,0,11.809,11.809,0,0,0,13.2,1.132,6.931,6.931,0,0,0,9.843,4.317a70.6,70.6,0,0,0-3.372,9.321c0,.012-1.047,4.572,2.3,11.206.35.694.856,1.634,1.444,2.69.54.972,1.1,1.965,1.65,2.906-.75,1.028-1.51,2.056-2.256,3.062Zm3.522-23.114a16.99,16.99,0,0,0,.744,2.11c.556,1.347,1.4,3.106,2.637,5.512.262.506.641,1.16,1.081,1.884.244.4.5.8.753,1.21.765-1.2,1.39-2.25,1.828-3.093,1.241-2.406,2.081-4.165,2.637-5.512a17.025,17.025,0,0,0,.744-2.109A13.65,13.65,0,0,0,21.3,9.763a16.074,16.074,0,0,0-5.918,0,13.633,13.633,0,0,0-2.253.625Zm3.894,12.73c-.475-.728-.925-1.44-1.312-2.075-.469-.769-.875-1.468-1.159-2.025-1.266-2.447-2.128-4.262-2.715-5.684a20.781,20.781,0,0,1-.713-1.953,7.724,7.724,0,0,0-1.241.965,5.146,5.146,0,0,0-1.266,1.815c-.093.506-.653,4.187,2.122,9.687.35.694.841,1.6,1.4,2.613.337.606.725,1.291,1.144,2.015,1.344-1.872,2.625-3.7,3.74-5.359Zm2.619,15.805c1.937,3.009,4.018,6.109,6.044,8.937,1.459,2.041,2.881,3.925,4.184,5.515l3.906-7.418c-1.4-1.794-5.89-7.59-10.18-13.443-1.2,2.009-2.541,4.187-3.953,6.409Zm0,0" transform="translate(-0.501 -0.001)"/></svg>