<svg xmlns="http://www.w3.org/2000/svg" width="24.771" height="27.023" viewBox="0 0 24.771 27.023"><defs><style>.a{fill:#3a3a3a;}</style></defs><path class="a" d="M313.554,8.445a4.222,4.222,0,1,1,4.222-4.222A4.228,4.228,0,0,1,313.554,8.445Zm0-6.756a2.533,2.533,0,1,0,2.533,2.533A2.536,2.536,0,0,0,313.554,1.689Zm0,0" transform="translate(-293.005)"/><path class="a" d="M313.554,360.445a4.222,4.222,0,1,1,4.222-4.222A4.228,4.228,0,0,1,313.554,360.445Zm0-6.756a2.533,2.533,0,1,0,2.533,2.533A2.536,2.536,0,0,0,313.554,353.689Zm0,0" transform="translate(-293.005 -333.421)"/><path class="a" d="M4.222,184.445a4.222,4.222,0,1,1,4.222-4.222A4.228,4.228,0,0,1,4.222,184.445Zm0-6.756a2.533,2.533,0,1,0,2.533,2.533A2.536,2.536,0,0,0,4.222,177.689Zm0,0" transform="translate(0 -166.711)"/><path class="a" d="M120.534,103.205a.844.844,0,0,1-.419-1.577l10.448-5.957a.844.844,0,0,1,.835,1.467L120.951,103.1a.846.846,0,0,1-.416.11Zm0,0" transform="translate(-113.372 -90.516)"/><path class="a" d="M131,279.195a.837.837,0,0,1-.417-.111l-10.448-5.957a.844.844,0,0,1,.836-1.467l10.448,5.956A.845.845,0,0,1,131,279.2Zm0,0" transform="translate(-113.393 -257.216)"/></svg>