<svg xmlns="http://www.w3.org/2000/svg" xmlns:xlink="http://www.w3.org/1999/xlink" width="201" height="260" viewBox="0 0 201 260">
  <defs>
    <filter id="Rectangle_3116" x="0" y="0" width="201" height="260" filterUnits="userSpaceOnUse">
      <feOffset dy="5" input="SourceAlpha"/>
      <feGaussianBlur stdDeviation="5" result="blur"/>
      <feFlood flood-opacity="0.161"/>
      <feComposite operator="in" in2="blur"/>
      <feComposite in="SourceGraphic"/>
    </filter>
  </defs>
  <g id="Group_3133" data-name="Group 3133" transform="translate(-4073 -17478)">
    <g transform="matrix(1, 0, 0, 1, 4073, 17478)" filter="url(#Rectangle_3116)">
      <path id="Rectangle_3116-2" data-name="Rectangle 3116" d="M5,0H171a0,0,0,0,1,0,0V230a0,0,0,0,1,0,0H5a5,5,0,0,1-5-5V5A5,5,0,0,1,5,0Z" transform="translate(15 10)" fill="#f8ad2a"/>
    </g>
    <g id="Group_3131" data-name="Group 3131" transform="translate(3859.318 17428.932)">
      <path id="Path_15665" data-name="Path 15665" d="M384.922,449.78a3.586,3.586,0,0,1-2.471-2.538,3.193,3.193,0,0,1,2.272-3.763,4.276,4.276,0,0,1,1.04-.142c3.862-.01,7.723-.022,11.585,0a3.213,3.213,0,0,1,1.435,6.165c-.191.085-.376.184-.563.277Zm6.73-3.92c-1.945,0-3.89,0-5.836,0-.445,0-.862.072-.857.612.005.525.418.633.862.636l.162,0h11.185c.483,0,1-.034.974-.675-.027-.587-.53-.576-.979-.575C395.326,445.863,393.489,445.86,391.652,445.861Z" transform="translate(-80.156 -241.712)" fill="#fff"/>
      <path id="Path_15666" data-name="Path 15666" d="M353.468,248.883q-4.62,0-9.24,0c-1.373,0-1.688-.421-1.765-1.8a40.669,40.669,0,0,0-.541-5.22,11.255,11.255,0,0,0-3.314-5.9,20.6,20.6,0,0,1-6.034-18.579,21.273,21.273,0,1,1,35.959,18.483c-2.6,2.565-3.54,5.646-3.836,9.084-.069.806-.034,1.62-.08,2.429-.062,1.075-.5,1.5-1.585,1.5C359.844,248.89,356.656,248.883,353.468,248.883Zm-8.333-2.691a.823.823,0,0,0,.211.052q8.068.008,16.135.018c.47,0,.6-.191.624-.618.035-.728.081-1.458.18-2.18a15.4,15.4,0,0,1,3.455-8.411,41.3,41.3,0,0,0,2.959-3.321,18.757,18.757,0,1,0-33.874-9.668,17.927,17.927,0,0,0,5.448,11.869,14.105,14.105,0,0,1,4.144,7.533C344.73,243.021,344.9,244.6,345.135,246.192Z" transform="translate(-42.099 -56.515)" fill="#fff"/>
      <path id="Path_15667" data-name="Path 15667" d="M383.462,417.508c-2.837,0-5.675.026-8.512-.01a3.182,3.182,0,0,1-.874-6.206,4.686,4.686,0,0,1,1.356-.189q8.147-.019,16.295,0c2.091.006,3.508,1.256,3.565,3.077a3.226,3.226,0,0,1-3.4,3.332c-2.81.024-5.621.006-8.431.006Zm.146-3.9h-2.186c-2.051,0-4.1-.021-6.153.027-.271.006-.534.366-.8.563a5.9,5.9,0,0,0,.751.663c.135.086.369.02.557.02H391.4a1.622,1.622,0,0,0,.717-.042c.222-.122.5-.4.5-.6s-.3-.461-.52-.594c-.162-.1-.421-.034-.637-.034Z" transform="translate(-72.188 -217.23)" fill="#fff"/>
      <path id="Path_15668" data-name="Path 15668" d="M337.774,158.948a5.207,5.207,0,0,1-1,1.02,1.046,1.046,0,0,1-1.418-.415c-.5-.7-.952-1.44-1.418-2.167q-1.659-2.591-3.311-5.185c-.346-.542-.515-1.161-.036-1.638a1.876,1.876,0,0,1,1.267-.47,1.457,1.457,0,0,1,.939.659c1.555,2.368,3.072,4.761,4.587,7.156A6.513,6.513,0,0,1,337.774,158.948Z" transform="translate(-40.6 -19.004)" fill="#fff"/>
      <path id="Path_15669" data-name="Path 15669" d="M415.211,130.816c0-1.4-.009-2.808,0-4.212.009-.933.556-1.557,1.307-1.535a1.378,1.378,0,0,1,1.261,1.512q.022,4.212,0,8.424c0,.958-.539,1.548-1.312,1.524s-1.252-.622-1.259-1.583C415.2,133.571,415.211,132.193,415.211,130.816Z" transform="translate(-105.091)" fill="#fff"/>
      <path id="Path_15670" data-name="Path 15670" d="M522.814,214.363c-.28-.236-.789-.46-.887-.8a2.721,2.721,0,0,1,.19-1.421c.057-.184.357-.314.568-.428q3.628-1.965,7.263-3.918a1.343,1.343,0,0,1,1.657.012,1.6,1.6,0,0,1,.416,1.2,1.546,1.546,0,0,1-.73.971c-2.5,1.393-5.02,2.736-7.541,4.084A6.405,6.405,0,0,1,522.814,214.363Z" transform="translate(-186.112 -62.615)" fill="#fff"/>
      <path id="Path_15671" data-name="Path 15671" d="M277.965,207.02a11.015,11.015,0,0,1,1.12.432c2.372,1.28,4.747,2.556,7.1,3.876a1.787,1.787,0,0,1,.865.965,1.488,1.488,0,0,1-.36,1.272,1.72,1.72,0,0,1-1.4.142,16.272,16.272,0,0,1-2.22-1.154q-2.734-1.489-5.465-2.984c-.586-.321-.95-.845-.667-1.464C277.136,207.662,277.634,207.354,277.965,207.02Z" transform="translate(0 -62.241)" fill="#fff"/>
      <path id="Path_15672" data-name="Path 15672" d="M489.775,152.556a9.924,9.924,0,0,1-.527,1.1q-2.32,3.512-4.666,7.008c-.541.806-1.193.985-1.835.546a1.264,1.264,0,0,1-.244-1.918q2.358-3.585,4.76-7.14a1.114,1.114,0,0,1,1.446-.562A5.1,5.1,0,0,1,489.775,152.556Z" transform="translate(-155.955 -20.064)" fill="#fff"/>
      <path id="Path_15673" data-name="Path 15673" d="M433.087,237.963c0,.216.007.432,0,.648a1.277,1.277,0,1,1-2.548.144c-.089-.667-.088-1.346-.183-2.012a13.956,13.956,0,0,0-13.2-11.989c-1.305-.059-1.945-.522-1.9-1.373s.732-1.26,2.028-1.2A16.52,16.52,0,0,1,433.087,237.963Z" transform="translate(-105.131 -73.751)" fill="#fff"/>
    </g>
  </g>
</svg>
