<?xml version="1.0" encoding="utf-8"?>
<!-- Generator: Adobe Illustrator 24.3.0, SVG Export Plug-In . SVG Version: 6.00 Build 0)  -->
<svg version="1.1" id="Layer_1" xmlns="http://www.w3.org/2000/svg" xmlns:xlink="http://www.w3.org/1999/xlink" x="0px" y="0px"
	 viewBox="0 0 171 230" style="enable-background:new 0 0 171 230;" xml:space="preserve">
<style type="text/css">
	.st0{filter:url(#Rectangle_3116);}
	.st1{fill:#F8AD2A;}
	.st2{fill:#FFFFFF;stroke:#FFFFFF;stroke-width:0.5;}
	.st3{fill:#FFFFFF;}
</style>
<filter  filterUnits="userSpaceOnUse" height="260" id="Rectangle_3116" width="201" x="0" y="0">
	<feOffset  dy="5" input="SourceAlpha"></feOffset>
	<feGaussianBlur  result="blur" stdDeviation="5"></feGaussianBlur>
	<feFlood  flood-opacity="0.161"></feFlood>
	<feComposite  in2="blur" operator="in"></feComposite>
	<feComposite  in="SourceGraphic" operator="over"></feComposite>
</filter>
<g id="Group_3132" transform="translate(-4073 -17478)">
	<g transform="matrix(1, 0, 0, 1, 4073, 17478)" class="st0">
		<path id="Rectangle_3116-2_1_" class="st1" d="M5,0h166l0,0v230l0,0H5c-2.8,0-5-2.2-5-5V5C0,2.2,2.2,0,5,0z"/>
	</g>
	<g id="refresh" transform="translate(4139.658 17574.033)">
		<path id="Path_4232" class="st2" d="M27.3,32.5c-0.6,0-1-0.5-1-1c0,0,0,0,0,0c0.1-5.4,4.4-9.7,9.8-9.8c2.3,0,4.5,0.8,6.3,2.3
			l0-1.4c0-0.6,0.4-1.1,1-1.1c0.6,0,1.1,0.4,1.1,1c0,0,0,0,0,0l0.1,3.9c0.2,0.5-0.2,1.1-0.7,1.3c-0.2,0-0.4,0-0.5,0l-3.9-0.1
			c-0.6,0-1-0.5-1-1.1c0-0.5,0.5-1,1-1h0l1.7,0c-3.2-2.8-8.1-2.5-10.9,0.7c-1.2,1.4-1.9,3.2-1.9,5.1C28.4,32,27.9,32.5,27.3,32.5z"
			/>
		<path id="Path_4233" class="st2" d="M28.9,41.4c-0.6,0-1-0.4-1-1l-0.1-3.9c-0.2-0.5,0.2-1.1,0.7-1.3c0.2,0,0.4,0,0.5,0l3.9,0.1
			c0.6,0,1,0.5,1,1.1c0,0.6-0.5,1-1,1l-1.7,0c3.2,2.8,8.1,2.5,10.9-0.7c1.2-1.4,1.9-3.2,1.9-5.1c0-0.6,0.5-1,1.1-1c0.5,0,1,0.5,1,1
			c-0.1,5.4-4.4,9.7-9.8,9.8c-2.3,0-4.5-0.8-6.3-2.3l0,1.4C30,40.9,29.5,41.3,28.9,41.4C29,41.4,29,41.4,28.9,41.4L28.9,41.4
			L28.9,41.4z"/>
		<path id="Path_4234" class="st2" d="M36.2,47.9c-9.1,0-16.5-7.4-16.5-16.5c0-9.1,7.4-16.5,16.5-16.5c9.1,0,16.5,7.4,16.5,16.5
			C52.7,40.5,45.3,47.9,36.2,47.9z M36.2,17c-8,0-14.4,6.5-14.4,14.4s6.5,14.4,14.4,14.4c8,0,14.4-6.5,14.4-14.4
			C50.6,23.5,44.2,17,36.2,17z"/>
		<path id="Path_4235" class="st2" d="M21.1,36.1H-8.1c-3.8,0-6.9-3.1-6.9-6.9V-3.1c0-3.8,3.1-6.9,6.9-6.9h38.3
			c3.8,0,6.9,3.1,6.9,6.9v19c0,0.6-0.4,1-1,1.1c-0.6,0-1-0.4-1.1-1c0,0,0,0,0-0.1v-19c0-2.7-2.2-4.9-4.9-4.9H-8.1
			c-2.7,0-4.9,2.2-4.9,4.9v32.2c0,2.7,2.2,4.9,4.9,4.9h29.2c0.6,0,1,0.5,1,1.1C22.1,35.6,21.7,36.1,21.1,36.1L21.1,36.1z"/>
		<path id="Path_4236" class="st2" d="M36.1,4.1H-14c-0.6,0-1-0.5-1-1.1c0-0.5,0.5-1,1-1h50.1c0.6,0,1,0.4,1.1,1
			C37.2,3.6,36.8,4,36.1,4.1C36.2,4.1,36.2,4.1,36.1,4.1z"/>
		<path id="Path_4237" class="st3" d="M0.8,0c-1.6,0-2.9-1.3-2.9-2.9s1.3-2.9,2.9-2.9c1.6,0,2.9,1.3,2.9,2.9C3.7-1.3,2.4,0,0.8,0z
			 M0.8-3.7C0.3-3.7,0-3.4,0-2.9s0.4,0.8,0.8,0.8s0.8-0.4,0.8-0.8l0,0C1.6-3.4,1.3-3.7,0.8-3.7C0.8-3.7,0.8-3.7,0.8-3.7L0.8-3.7z"/>
		<path id="Path_4238" class="st3" d="M-7.5-0.1c-1.6,0-2.9-1.3-2.9-2.9s1.3-2.9,2.9-2.9c1.6,0,2.9,1.3,2.9,2.9
			C-4.6-1.4-5.9-0.1-7.5-0.1z M-7.5-3.8c-0.5,0-0.8,0.4-0.8,0.8S-8-2.1-7.5-2.1s0.8-0.4,0.8-0.8l0,0C-6.7-3.4-7.1-3.8-7.5-3.8
			C-7.5-3.8-7.5-3.8-7.5-3.8L-7.5-3.8z"/>
		<path id="Path_4239" class="st3" d="M9.1,0C7.5,0,6.2-1.3,6.2-2.9s1.3-2.9,2.9-2.9S12-4.5,12-2.9C12-1.3,10.7,0,9.1,0z M9.1-3.7
			c-0.5,0-0.8,0.4-0.8,0.8s0.4,0.8,0.8,0.8c0.5,0,0.8-0.4,0.8-0.8C9.9-3.3,9.6-3.7,9.1-3.7C9.1-3.7,9.1-3.7,9.1-3.7L9.1-3.7z"/>
	</g>
</g>
</svg>
