<svg id="Group_3126" data-name="Group 3126" xmlns="http://www.w3.org/2000/svg" width="43.051" height="57.661" viewBox="0 0 43.051 57.661">
  <path id="Path_4887" data-name="Path 4887" d="M1062.75,46.2a2.484,2.484,0,0,1,1.587,2.661q-.036,24.31-.017,48.62a2.083,2.083,0,0,1-1.908,2.346c-.617.077-1.236.006-1.853.038-.294.015-.405-.139-.44-.393a6.623,6.623,0,0,1-.026-.9q0-22.935.005-45.87a2.111,2.111,0,0,0-.658-1.827,1.614,1.614,0,0,0-.732-.4,19.615,19.615,0,0,0-4.537-.087,4.383,4.383,0,0,1-.841.049q-13.5,0-27-.008c-.339,0-.766.166-.991-.287,0-.464.041-.931,0-1.392a2.268,2.268,0,0,1,1.59-2.55Z" transform="translate(-1021.286 -46.196)" fill="#fff"/>
  <path id="Path_4888" data-name="Path 4888" d="M1002.514,72.383c.214.179.469.092.7.092q13.868.007,27.736,0c.131,0,.262.005.393.008a1.826,1.826,0,0,1,1.926,1.489,3.652,3.652,0,0,1,.061.839c0,1.649.007,3.3-.005,4.948,0,.282.076.617-.282.781a4.805,4.805,0,0,0-1.934-.217h-9.273a2.925,2.925,0,0,0-.783.049.6.6,0,0,0-.5.592c0,.338.216.5.524.556a3.308,3.308,0,0,0,.616.031c3.372,0,6.744,0,10.116.006a5.082,5.082,0,0,0,1.267-.2.391.391,0,0,1,.24.4,20.708,20.708,0,0,1,0,2.175.421.421,0,0,1-.227.416,5.581,5.581,0,0,0-1.942-.2q-4.694,0-9.389,0a3.391,3.391,0,0,0-.728.041.523.523,0,0,0-.474.482.59.59,0,0,0,.359.586,1.4,1.4,0,0,0,.658.117c3.467,0,6.935,0,10.4.007.388,0,.716-.213,1.094-.218a.257.257,0,0,1,.188.192,7.988,7.988,0,0,1-.014,2.565c-.013.073-.086.119-.156.152a12.451,12.451,0,0,0-3.458-.2c-2.608-.015-5.215-.006-7.823,0a2.122,2.122,0,0,0-.833.092.6.6,0,0,0-.418.6c.018.309.238.448.522.5a3.458,3.458,0,0,0,.618.031c3.377,0,6.753-.005,10.13.008a6.552,6.552,0,0,0,1.269-.2c.256.15.237.409.238.645q.018,2.769,0,5.539a.921.921,0,0,1-.14.588,3.131,3.131,0,0,1-1.052-.036q-6.189.014-12.379.007c-.113,0-.225.008-.337.007-.42,0-.612.207-.613.624q-.011,3.573,0,7.145a.563.563,0,0,0,.653.645c.206,0,.412,0,.619,0,3.9,0,7.8-.005,11.7.007a13.708,13.708,0,0,1,1.4-.058.95.95,0,0,1,.152.64q.01,1.933,0,3.867c0,.255.03.534-.228.712a8.822,8.822,0,0,0-2.725-.2q-3.911-.008-7.822,0a2.58,2.58,0,0,0-.728.051.571.571,0,0,0,.017,1.132,2.286,2.286,0,0,0,.616.046c3.133,0,6.265-.007,9.4.009a8.1,8.1,0,0,0,1.206-.22c.214.084.243.278.251.463.033.729.029,1.459,0,2.188a.5.5,0,0,1-.23.48,18.577,18.577,0,0,0-4.413-.2c-2.043-.031-4.088-.009-6.132-.007a2.033,2.033,0,0,0-.778.088.6.6,0,0,0-.427.6c.012.309.228.454.512.509a2.931,2.931,0,0,0,.561.033c3.15,0,6.3,0,9.451.006a5.52,5.52,0,0,0,1.212-.2c.211.087.234.282.241.465.03.725.028,1.451,0,2.176a.493.493,0,0,1-.23.477,35.533,35.533,0,0,0-6.157-.2c-1.386-.04-2.774-.008-4.161-.008a5.5,5.5,0,0,0-.618.017c-.534.06-.851.312-.815.678.047.474.414.578.8.63a3.826,3.826,0,0,0,.506.018c3.037,0,6.074-.006,9.111.008a5.746,5.746,0,0,0,1.262-.231c.316.09.294.365.3.6.014,1.854.05,3.71-.012,5.563a1.935,1.935,0,0,1-1.494,1.888q-15.65,0-31.3,0a2.058,2.058,0,0,1-2.041-2.039c-.006-.131,0-.263,0-.394q0-24.431-.016-48.861a2.179,2.179,0,0,1,2.335-2.326A3.731,3.731,0,0,0,1002.514,72.383Z" transform="translate(-998.457 -68.441)" fill="#dcf0f0"/>
  <path id="Path_4889" data-name="Path 4889" d="M1218.649,80.556c.168-.12.124-.3.124-.464,0-1.875.009-3.75,0-5.625a1.948,1.948,0,0,0-1.815-1.92.636.636,0,0,1,.207-.074,37.585,37.585,0,0,1,4.214.081,1.991,1.991,0,0,1,1.678,1.831c.011.319.011.638.011.957q0,23.02,0,46.04c0,.724,0,.722.722.726.469,0,.937.013,1.406.021a5.083,5.083,0,0,1-1.663.08c-.363.006-.5.11-.483.483.026.485.009.973.006,1.46a2,2,0,0,1-2.031,2.01c-1.2,0-2.4,0-3.6-.005.455-.4,1.039-.669,1.23-1.32a1.873,1.873,0,0,0,.119-.541c0-1.891,0-3.783,0-5.674,0-.163.043-.344-.128-.462a2.246,2.246,0,0,1-.006-1,.336.336,0,0,0,.134-.343,16.492,16.492,0,0,0-.088-2.7,1.384,1.384,0,0,1-.035-.9c.2-.157.135-.381.12-.573a9.273,9.273,0,0,0-.12-2.478,2.509,2.509,0,0,1,0-.892c.146-.1.122-.261.121-.408q-.006-2.405-.016-4.811a1.04,1.04,0,0,1-.16-.747q-.008-3.385,0-6.771a1.04,1.04,0,0,1,.16-.747q.008-3.237.017-6.474a.418.418,0,0,0-.087-.316,1.362,1.362,0,0,1-.039-.9c.237-.235.131-.535.116-.8a5.941,5.941,0,0,0-.116-2.029,1.372,1.372,0,0,1,.038-.9,9.271,9.271,0,0,0-.011-2.925A1.917,1.917,0,0,1,1218.649,80.556Z" transform="translate(-1184.068 -68.5)" fill="#dcf0f0"/>
  <path id="Path_4890" data-name="Path 4890" d="M1042.041,110.366a7.505,7.505,0,0,1-14.99-.744c.1-4.007,3.7-7.463,7.536-7.23a1.134,1.134,0,0,1,.176.857c.007,1.857,0,3.713,0,5.57a1.536,1.536,0,0,0,.1.77c.186.227.445.166.682.167,1.952,0,3.9,0,5.855.006C1042.027,109.764,1042.068,109.815,1042.041,110.366Z" transform="translate(-1022.745 -93.923)" fill="#fb9549"/>
  <path id="Path_4891" data-name="Path 4891" d="M1146.832,225.926v8.265a.839.839,0,0,1-.7.281q-6.582-.008-13.164,0c-.47,0-.684-.195-.683-.671q.01-3.741,0-7.482c0-.476.21-.67.682-.669q6.61.01,13.221,0A.807.807,0,0,1,1146.832,225.926Z" transform="translate(-1112.144 -198.638)" fill="#e6494e"/>
  <path id="Path_4892" data-name="Path 4892" d="M1026.977,311.532q0-2.783,0-5.566c0-.653.179-.834.826-.839s1.274,0,1.912,0a.636.636,0,0,1,.731.716q0,5.735,0,11.47a.635.635,0,0,1-.721.726q-1.012,0-2.024,0c-.517,0-.733-.254-.73-.769C1026.984,315.355,1026.977,313.443,1026.977,311.532Z" transform="translate(-1022.68 -266.15)" fill="#f15f12"/>
  <path id="Path_4893" data-name="Path 4893" d="M1077.14,109.8q0-3.7-.005-7.4a7.46,7.46,0,0,1,7.312,5.842c.075.364.1.738.142,1.108.055.274.111.522-.323.52-2.324-.011-4.648,0-6.972-.007A.345.345,0,0,1,1077.14,109.8Z" transform="translate(-1065.292 -93.928)" fill="#e6494e"/>
  <path id="Path_4894" data-name="Path 4894" d="M1069.688,330.777c0-1.349,0-2.7,0-4.049,0-.685.136-.817.822-.82.656,0,1.312.009,1.968,0a.575.575,0,0,1,.667.644q.008,4.246,0,8.491a.6.6,0,0,1-.684.643c-.694,0-1.387,0-2.081,0-.492,0-.7-.259-.7-.745C1069.694,333.551,1069.688,332.164,1069.688,330.777Z" transform="translate(-1058.964 -283.803)" fill="#f88128"/>
  <path id="Path_4895" data-name="Path 4895" d="M1115.822,354.4c0,.73.006,1.46,0,2.19-.007.59-.189.78-.766.791-.636.012-1.273.01-1.909,0-.591-.01-.781-.193-.784-.772q-.012-2.19,0-4.38c0-.59.188-.775.765-.78.618-.006,1.236,0,1.854,0,.659,0,.837.173.843.818C1115.826,352.978,1115.822,353.689,1115.822,354.4Z" transform="translate(-1095.211 -305.499)" fill="#fb9549"/>
  <path id="Path_4896" data-name="Path 4896" d="M1156.443,124.281a.938.938,0,0,1,.026.9,1.081,1.081,0,0,1-.9.355c-3.618-.008-7.236,0-10.854-.006-.647,0-.995-.295-.985-.809.01-.482.366-.781.962-.782,3.637,0,7.274,0,10.91-.01A1.205,1.205,0,0,1,1156.443,124.281Z" transform="translate(-1121.863 -112.226)" fill="#304848"/>
  <path id="Path_4897" data-name="Path 4897" d="M1156.5,149.6a1.011,1.011,0,0,1-.038.9,1.2,1.2,0,0,1-.855.338q-5.429-.012-10.858-.005a1.319,1.319,0,0,1-.281-.01.777.777,0,0,1-.713-.858.718.718,0,0,1,.773-.727q5.653-.01,11.307,0A.861.861,0,0,1,1156.5,149.6Z" transform="translate(-1121.885 -133.727)" fill="#314848"/>
  <path id="Path_4898" data-name="Path 4898" d="M1156.444,174.519a.822.822,0,0,1-.849,1.281c-3.638,0-7.276,0-10.914-.006-.618,0-.949-.3-.95-.793s.354-.811.942-.812c3.657-.006,7.313,0,10.97-.006A1.159,1.159,0,0,1,1156.444,174.519Z" transform="translate(-1121.864 -154.918)" fill="#314848"/>
  <path id="Path_4899" data-name="Path 4899" d="M1033.494,238.572q-2.673,0-5.346,0c-.684,0-1.07-.3-1.063-.8s.4-.8,1.078-.8q5.374,0,10.748,0c.476,0,.865.118,1,.625.144.564-.232.974-.9.977C1037.171,238.576,1035.333,238.572,1033.494,238.572Z" transform="translate(-1022.775 -208.252)" fill="#304848"/>
  <path id="Path_4900" data-name="Path 4900" d="M1033.524,262.3q2.7,0,5.4,0c.679,0,1,.258,1,.784s-.335.809-.992.81q-5.431,0-10.861,0c-.616,0-1.006-.337-.989-.828.016-.471.382-.763.983-.764Q1030.795,262.292,1033.524,262.3Z" transform="translate(-1022.773 -229.768)" fill="#304848"/>
  <path id="Path_4901" data-name="Path 4901" d="M1160.9,367.742a1,1,0,0,1,.006,1,1.346,1.346,0,0,1-.973.327c-3.264-.011-6.528,0-9.792-.009a2.206,2.206,0,0,1-.609-.068.779.779,0,0,1,.031-1.495,2.53,2.53,0,0,1,.612-.056q4.839,0,9.679-.005A1.412,1.412,0,0,1,1160.9,367.742Z" transform="translate(-1126.333 -319.082)" fill="#314949"/>
  <path id="Path_4902" data-name="Path 4902" d="M1160.9,315.034a.841.841,0,0,1,0,.892,1.07,1.07,0,0,1-.892.354c-3.335-.011-6.671-.006-10.006-.007-.654,0-1.01-.274-1.027-.774-.017-.518.354-.818,1.038-.819,3.335,0,6.67,0,10.006-.006A1.044,1.044,0,0,1,1160.9,315.034Z" transform="translate(-1126.313 -274.262)" fill="#304848"/>
  <path id="Path_4903" data-name="Path 4903" d="M1160.894,341.316a1,1,0,0,1,.036.9,1.014,1.014,0,0,1-.89.375c-3.356-.005-6.712,0-10.068-.005-.662,0-1.006-.286-1-.8s.373-.81,1-.81c3.356,0,6.713,0,10.069-.006A1.168,1.168,0,0,1,1160.894,341.316Z" transform="translate(-1126.314 -296.601)" fill="#314949"/>
  <path id="Path_4904" data-name="Path 4904" d="M1077.171,149.081c2.316,0,4.632,0,6.948.016.366,0,.513-.122.5-.47a1.576,1.576,0,0,1,0,1.025c.028-.377-.166-.46-.513-.457-2.12.013-4.24.009-6.36,0C1077.553,149.2,1077.328,149.286,1077.171,149.081Z" transform="translate(-1065.323 -133.209)" fill="#e78570"/>
</svg>
