<svg xmlns="http://www.w3.org/2000/svg" xmlns:xlink="http://www.w3.org/1999/xlink" width="155.34" height="98" viewBox="0 0 155.34 98">
  <defs>
    <filter id="Rectangle_143" x="-10.5" y="-5.5" width="176.34" height="104" filterUnits="userSpaceOnUse">
      <feOffset dy="5" input="SourceAlpha"/>
      <feGaussianBlur stdDeviation="3.5" result="blur"/>
      <feFlood flood-opacity="0.161"/>
      <feComposite operator="in" in2="blur"/>
      <feComposite in="SourceGraphic"/>
    </filter>
    <clipPath id="clip-compare_by_">
      <rect width="155.34" height="98"/>
    </clipPath>
  </defs>
  <g id="compare_by_" data-name="compare by " clip-path="url(#clip-compare_by_)">
    <g id="main_ctrpnl_dropdown" data-name="main ctrpnl dropdown" transform="translate(-1277 -293)">
      <g id="Group_466" data-name="Group 466" transform="translate(1277 293)">
        <g id="main_ctrpnl_dropdown-2" data-name="main ctrpnl dropdown">
          <g id="year_dropodown" data-name="year dropodown">
            <g transform="matrix(1, 0, 0, 1, 0, 0)" filter="url(#Rectangle_143)">
              <g id="Rectangle_143-2" data-name="Rectangle 143" transform="translate(0)" fill="#fff" stroke="#cfcfcf" stroke-width="1">
                <path d="M0,0H150.34a5,5,0,0,1,5,5V78a5,5,0,0,1-5,5H5a5,5,0,0,1-5-5V0A0,0,0,0,1,0,0Z" stroke="none"/>
                <path d="M1,.5H150.34a4.5,4.5,0,0,1,4.5,4.5V78a4.5,4.5,0,0,1-4.5,4.5H5A4.5,4.5,0,0,1,.5,78V1A.5.5,0,0,1,1,.5Z" fill="none"/>
              </g>
            </g>
            <text id="States_" data-name="States " transform="translate(19 63)" font-size="16" font-family="WorkSans-Regular, Work Sans"><tspan x="0" y="0">States </tspan></text>
            <text id="Period_" data-name="Period " transform="translate(19 30)" font-size="16" font-family="WorkSans-Regular, Work Sans"><tspan x="0" y="0">Period </tspan></text>
          </g>
        </g>
      </g>
    </g>
  </g>
</svg>
