<svg xmlns="http://www.w3.org/2000/svg" xmlns:xlink="http://www.w3.org/1999/xlink" width="228" height="247" viewBox="0 0 228 247">
  <defs>
    <filter id="Rectangle_143" x="-10.5" y="-5.5" width="249" height="260" filterUnits="userSpaceOnUse">
      <feOffset dy="5" input="SourceAlpha"/>
      <feGaussianBlur stdDeviation="3.5" result="blur"/>
      <feFlood flood-opacity="0.161"/>
      <feComposite operator="in" in2="blur"/>
      <feComposite in="SourceGraphic"/>
    </filter>
    <clipPath id="clip-data_source_dropdown_">
      <rect width="228" height="247"/>
    </clipPath>
  </defs>
  <g id="data_source_dropdown_" data-name="data source dropdown " clip-path="url(#clip-data_source_dropdown_)">
    <g id="main_ctrpnl_dropdown" data-name="main ctrpnl dropdown" transform="translate(-1046 -293)">
      <g transform="matrix(1, 0, 0, 1, 1046, 293)" filter="url(#Rectangle_143)">
        <g id="Rectangle_143-2" data-name="Rectangle 143" fill="#fff" stroke="#cfcfcf" stroke-width="1">
          <path d="M0,0H223a5,5,0,0,1,5,5V234a5,5,0,0,1-5,5H5a5,5,0,0,1-5-5V0A0,0,0,0,1,0,0Z" stroke="none"/>
          <path d="M1,.5H223A4.5,4.5,0,0,1,227.5,5V234a4.5,4.5,0,0,1-4.5,4.5H5A4.5,4.5,0,0,1,.5,234V1A.5.5,0,0,1,1,.5Z" fill="none"/>
        </g>
      </g>
      <rect id="Rectangle_1611" data-name="Rectangle 1611" width="223.103" height="37" transform="translate(1048 495)" fill="#e6e6e6"/>
      <rect id="Rectangle_228" data-name="Rectangle 228" width="201" height="36" transform="translate(1055 329)" fill="#fff"/>
      <text id="NDHS" transform="translate(1065 386)" font-size="15" font-family="WorkSans-Regular, Work Sans"><tspan x="0" y="0">NDHS</tspan></text>
      <text id="NARHS" transform="translate(1065 419)" font-size="15" font-family="WorkSans-Regular, Work Sans"><tspan x="0" y="0">NARHS</tspan></text>
      <text id="World_Bank" data-name="World Bank" transform="translate(1065 453)" font-size="15" font-family="WorkSans-Regular, Work Sans"><tspan x="0" y="0">World Bank</tspan></text>
      <text id="WHO-GHO" transform="translate(1065 486)" font-size="15" font-family="WorkSans-Regular, Work Sans"><tspan x="0" y="0">WHO-GHO</tspan></text>
      <text id="WUENIC" transform="translate(1065 520)" fill="#979797" font-size="15" font-family="WorkSans-Regular, Work Sans"><tspan x="0" y="0">WUENIC</tspan></text>
      <text id="NNHS" transform="translate(1065 352)" font-size="15" font-family="WorkSans-Regular, Work Sans"><tspan x="0" y="0">NNHS</tspan></text>
      <text id="MICS" transform="translate(1065 319)" font-size="15" font-family="WorkSans-Regular, Work Sans"><tspan x="0" y="0">MICS</tspan></text>
    </g>
  </g>
</svg>
