<svg xmlns="http://www.w3.org/2000/svg" xmlns:xlink="http://www.w3.org/1999/xlink" width="219" height="299" viewBox="0 0 219 299">
  <defs>
    <filter id="Rectangle_143" x="-10.5" y="-5.5" width="241" height="309" filterUnits="userSpaceOnUse">
      <feOffset dy="5" input="SourceAlpha"/>
      <feGaussianBlur stdDeviation="3.5" result="blur"/>
      <feFlood flood-opacity="0.161"/>
      <feComposite operator="in" in2="blur"/>
      <feComposite in="SourceGraphic"/>
    </filter>
    <clipPath id="clip-location_dropdown_">
      <rect width="219" height="299"/>
    </clipPath>
  </defs>
  <g id="location_dropdown_" data-name="location dropdown " clip-path="url(#clip-location_dropdown_)">
    <g id="main_ctrpnl_dropdown" data-name="main ctrpnl dropdown" transform="translate(-790 -293)">
      <g id="Group_466" data-name="Group 466" transform="translate(790 293)">
        <g id="main_ctrpnl_dropdown-2" data-name="main ctrpnl dropdown">
          <g id="location_dropdown" data-name="location dropdown">
            <g transform="matrix(1, 0, 0, 1, 0, 0)" filter="url(#Rectangle_143)">
              <g id="Rectangle_143-2" data-name="Rectangle 143" fill="#fff" stroke="#cfcfcf" stroke-width="1">
                <path d="M0,0H215a5,5,0,0,1,5,5V283a5,5,0,0,1-5,5H5a5,5,0,0,1-5-5V0A0,0,0,0,1,0,0Z" stroke="none"/>
                <path d="M1,.5H215A4.5,4.5,0,0,1,219.5,5V283a4.5,4.5,0,0,1-4.5,4.5H5A4.5,4.5,0,0,1,.5,283V1A.5.5,0,0,1,1,.5Z" fill="none"/>
              </g>
            </g>
            <rect id="Rectangle_228" data-name="Rectangle 228" width="193" height="36" transform="translate(9 37)" fill="#fff"/>
            <rect id="Rectangle_1609" data-name="Rectangle 1609" width="217.333" height="37" transform="translate(1 251)" fill="#e6e6e6"/>
            <rect id="Rectangle_2424" data-name="Rectangle 2424" width="217.333" height="37" transform="translate(1 151)" fill="#e6e6e6"/>
            <text id="Akwa_Ibom" data-name="Akwa Ibom" transform="translate(19 136)" font-size="16" font-family="WorkSans-Regular, Work Sans"><tspan x="0" y="0">Akwa Ibom</tspan></text>
            <text id="Anambra" transform="translate(19 174)" fill="#4e4e4e" font-size="16" font-family="WorkSans-Regular, Work Sans"><tspan x="0" y="0">Anambra</tspan></text>
            <text id="Bauchi" transform="translate(19 206)" font-size="16" font-family="WorkSans-Regular, Work Sans"><tspan x="0" y="0">Bauchi</tspan></text>
            <text id="Benue" transform="translate(19 241)" font-size="16" font-family="WorkSans-Regular, Work Sans"><tspan x="0" y="0">Benue</tspan></text>
            <text id="Adamawa" transform="translate(19 101)" font-size="16" font-family="WorkSans-Regular, Work Sans"><tspan x="0" y="0">Adamawa</tspan></text>
            <text id="Borno" transform="translate(19 276)" fill="#4e4e4e" font-size="16" font-family="WorkSans-Regular, Work Sans"><tspan x="0" y="0">Borno</tspan></text>
            <text id="Abia" transform="translate(19 66)" font-size="16" font-family="WorkSans-Regular, Work Sans"><tspan x="0" y="0">Abia</tspan></text>
            <text id="National" transform="translate(19 33)" font-size="16" font-family="WorkSans-Regular, Work Sans"><tspan x="0" y="0">National</tspan></text>
          </g>
        </g>
      </g>
    </g>
  </g>
</svg>
