<svg xmlns="http://www.w3.org/2000/svg" xmlns:xlink="http://www.w3.org/1999/xlink" width="1920" height="1072" viewBox="0 0 1920 1072">
  <defs>
    <filter id="Rectangle_1241" x="452" y="65" width="1015.455" height="947.953" filterUnits="userSpaceOnUse">
      <feOffset dy="3" input="SourceAlpha"/>
      <feGaussianBlur stdDeviation="3" result="blur"/>
      <feFlood flood-opacity="0.161"/>
      <feComposite operator="in" in2="blur"/>
      <feComposite in="SourceGraphic"/>
    </filter>
    <filter id="Rectangle_1363" x="477" y="926.768" width="181" height="73" filterUnits="userSpaceOnUse">
      <feOffset dy="3" input="SourceAlpha"/>
      <feGaussianBlur stdDeviation="3" result="blur-2"/>
      <feFlood flood-opacity="0.161"/>
      <feComposite operator="in" in2="blur-2"/>
      <feComposite in="SourceGraphic"/>
    </filter>
    <clipPath id="clip-MSDAT_-_Troubleshooting_Guide_1">
      <rect width="1920" height="1072"/>
    </clipPath>
  </defs>
  <g id="MSDAT_-_Troubleshooting_Guide_1" data-name="MSDAT - Troubleshooting Guide – 1" clip-path="url(#clip-MSDAT_-_Troubleshooting_Guide_1)">
    <rect width="1920" height="1072" fill="#f2efef"/>
    <g id="Group_1747" data-name="Group 1747">
      <rect id="Rectangle_2265" data-name="Rectangle 2265" width="1921" height="1071" transform="translate(-1)" opacity="0.84"/>
    </g>
    <g id="Group_2138" data-name="Group 2138" transform="translate(0 -41)">
      <g transform="matrix(1, 0, 0, 1, 0, 41)" filter="url(#Rectangle_1241)">
        <rect id="Rectangle_1241-2" data-name="Rectangle 1241" width="997.455" height="929.953" rx="7" transform="translate(461 71)" fill="#fff"/>
      </g>
      <path id="Path_4241" data-name="Path 4241" d="M7.014,0H990.441a7.007,7.007,0,0,1,7.014,7V85H0V7A7.007,7.007,0,0,1,7.014,0Z" transform="translate(461 112)" fill="#fff"/>
      <text id="MSDAT_Dashboard_not_Loading_" data-name="MSDAT Dashboard not Loading?" transform="translate(562 164)" fill="#232323" font-size="22" font-family="WorkSans-Bold, Work Sans" font-weight="700"><tspan x="0" y="0">MSDAT Dashboard not Loading?</tspan></text>
      <g id="Group_2142" data-name="Group 2142" transform="translate(486 973.768)">
        <g transform="matrix(1, 0, 0, 1, -486, -932.77)" filter="url(#Rectangle_1363)">
          <rect id="Rectangle_1363-2" data-name="Rectangle 1363" width="163" height="55" rx="7" transform="translate(486 932.77)" fill="#d92959"/>
        </g>
        <text id="CLOSE" transform="translate(51 34)" fill="#fff" font-size="19" font-family="WorkSans-Regular, Work Sans"><tspan x="0" y="0">CLOSE</tspan></text>
      </g>
      <line id="Line_174" data-name="Line 174" x2="996.845" transform="translate(461.5 961.453)" fill="none" stroke="#a9a9a9" stroke-width="1"/>
      <line id="Line_204" data-name="Line 204" x2="930" transform="translate(495.5 722.055)" fill="none" stroke="#cfcfcf" stroke-width="1"/>
      <line id="Line_203" data-name="Line 203" x2="996.845" transform="translate(461.5 198.301)" fill="none" stroke="#a9a9a9" stroke-width="1"/>
      <g id="Group_1746" data-name="Group 1746" transform="translate(1410.219 147.374)">
        <line id="Line_172" data-name="Line 172" x2="14.252" y2="14.252" fill="none" stroke="#7e7e7e" stroke-linecap="round" stroke-width="2"/>
        <line id="Line_173" data-name="Line 173" x1="14.252" y2="14.252" fill="none" stroke="#7e7e7e" stroke-linecap="round" stroke-width="2"/>
      </g>
      <text id="section2HeaderText" transform="translate(494.249 235)" fill="#232323" font-size="26" font-family="WorkSans-Regular, Work Sans"><tspan x="0" y="24">This is quite unusual, but for some reason the MSDAT Dashboard is not </tspan><tspan x="0" y="66">loading. We are really sorry about this.</tspan></text>
      <text id="section2HeaderText-2" data-name="section2HeaderText" transform="translate(494.249 374)" fill="#232323" font-size="22" font-family="WorkSans-Bold, Work Sans" font-weight="700"><tspan x="0" y="0">Clearing MSDAT cache from your browser might fix the problem:</tspan></text>
      <text id="section2HeaderText-3" data-name="section2HeaderText" transform="translate(494.249 774)" fill="#232323" font-size="22" font-family="WorkSans-SemiBold, Work Sans" font-weight="600"><tspan x="0" y="0">Get more help:</tspan></text>
      <g id="Group_2134" data-name="Group 2134" transform="translate(0 52)">
        <text id="Right-click_anywhere_on_the_page_and_select_Inspect." data-name="Right-click anywhere on the page and select Inspect." transform="translate(536 350)" fill="#232323" font-size="20" font-family="WorkSans-Regular, Work Sans"><tspan x="0" y="19">Right-click anywhere on the page and select </tspan><tspan y="19" font-family="WorkSans-Bold, Work Sans" font-weight="700">Inspect</tspan><tspan y="19">.</tspan></text>
        <text id="_1." data-name="1." transform="translate(508 371)" fill="#232323" font-size="20" font-family="WorkSans-Regular, Work Sans"><tspan x="0" y="0">1.</tspan></text>
      </g>
      <g id="Group_2139" data-name="Group 2139" transform="translate(0 99)">
        <text id="Click_on_Application_you_can_find_it_by_clicking_on_the_expand_arrow_after_Performance_." data-name="Click on Application (you can find it by clicking on the expand arrow after &quot;Performance&quot;)." transform="translate(536 350)" fill="#232323" font-size="20" font-family="WorkSans-Regular, Work Sans"><tspan x="0" y="19">Click on </tspan><tspan y="19" font-family="WorkSans-Bold, Work Sans" font-weight="700">Application</tspan><tspan y="19" xml:space="preserve"> (you can find it by clicking on the expand arrow after </tspan></text>
        <text id="_2." data-name="2." transform="translate(508 371)" fill="#232323" font-size="20" font-family="WorkSans-Regular, Work Sans"><tspan x="0" y="0">2.</tspan></text>
      </g>
      <g id="Group_2140" data-name="Group 2140" transform="translate(0 146)">
        <text id="Click_on_the_Clear_site_data_button_under_Clear_Storage._This_clears_existing_MSDAT_data_from_your_browser." data-name="Click on the Clear site data button under Clear Storage. This clears existing MSDAT data from your browser." transform="translate(536 350)" fill="#232323" font-size="20" font-family="WorkSans-Regular, Work Sans"><tspan x="0" y="19">Click on the </tspan><tspan y="19" font-family="WorkSans-Bold, Work Sans" font-weight="700">Clear site data</tspan><tspan y="19" xml:space="preserve"> button under Clear Storage. This clears existing MSDAT data </tspan><tspan x="0" y="43">from your browser.</tspan></text>
        <text id="_3." data-name="3." transform="translate(508 371)" fill="#232323" font-size="20" font-family="WorkSans-Regular, Work Sans"><tspan x="0" y="0">3.</tspan></text>
      </g>
      <g id="Group_2141" data-name="Group 2141" transform="translate(0 221)">
        <text id="After_clearing_site_data_Refresh_the_page_by_clicking_the_Reload_button._This_loads_up_a_new_instance_of_the_MSDAT_Dashboard." data-name="After clearing site data, Refresh the page by clicking the Reload button. This loads up a new instance of the MSDAT Dashboard." transform="translate(536 350)" fill="#232323" font-size="20" font-family="WorkSans-Regular, Work Sans"><tspan x="0" y="19">After clearing site data, </tspan><tspan y="19" font-family="WorkSans-Bold, Work Sans" font-weight="700">Refresh the page</tspan><tspan y="19" xml:space="preserve"> by clicking the </tspan><tspan y="19" font-family="WorkSans-Bold, Work Sans" font-weight="700">Reload </tspan><tspan y="19">button. This loads up a </tspan><tspan x="0" y="43">new instance of the MSDAT Dashboard.</tspan></text>
        <text id="_4." data-name="4." transform="translate(508 371)" fill="#232323" font-size="20" font-family="WorkSans-Regular, Work Sans"><tspan x="0" y="0">4.</tspan></text>
      </g>
      <g id="danger-sing" transform="translate(493.655 106.157)">
        <path id="Path_4240" data-name="Path 4240" d="M39.091,70.259H7.6A7.589,7.589,0,0,1,1.028,58.876L16.774,31.6a7.589,7.589,0,0,1,13.144,0L45.663,58.876a7.589,7.589,0,0,1-6.572,11.383ZM23.346,29.991a5.353,5.353,0,0,0-4.683,2.7L2.917,59.967A5.408,5.408,0,0,0,7.6,68.078H39.091a5.408,5.408,0,0,0,4.683-8.112L28.029,32.695A5.352,5.352,0,0,0,23.346,29.991Zm19.035,30.1L27.2,33.793a4.449,4.449,0,0,0-7.706,0L4.311,60.09a4.449,4.449,0,0,0,3.853,6.673H38.528a4.449,4.449,0,0,0,3.853-6.673ZM20.6,42a2.749,2.749,0,0,1,5.5,0v8.922a2.749,2.749,0,0,1-5.5,0Zm2.749,19.782a2.817,2.817,0,1,1,2.817-2.817A2.821,2.821,0,0,1,23.346,61.781Z" transform="translate(0)" fill="#f58c00"/>
      </g>
      <g id="Group_2143" data-name="Group 2143" transform="translate(0 -28)">
        <text id="See_picture_tutorial_of_these_steps" data-name="See picture tutorial of these steps" transform="translate(508 704)" fill="#007d53" font-size="20" font-family="WorkSans-SemiBold, Work Sans" font-weight="600" text-decoration="underline"><tspan x="0" y="0">See picture tutorial of these steps</tspan></text>
        <g id="external-link-symbol" transform="translate(852.75 687)">
          <g id="Group_2083" data-name="Group 2083">
            <path id="Path_4220" data-name="Path 4220" d="M16.8,82.466h-.781a.377.377,0,0,0-.391.391v3.907a1.958,1.958,0,0,1-1.953,1.953H3.516a1.881,1.881,0,0,1-1.38-.574,1.881,1.881,0,0,1-.574-1.38V76.606a1.881,1.881,0,0,1,.574-1.379,1.881,1.881,0,0,1,1.38-.574h8.595a.376.376,0,0,0,.391-.391V73.48a.376.376,0,0,0-.391-.39H3.516a3.387,3.387,0,0,0-2.485,1.032A3.387,3.387,0,0,0,0,76.606V86.764a3.386,3.386,0,0,0,1.032,2.484A3.387,3.387,0,0,0,3.516,90.28H13.674a3.523,3.523,0,0,0,3.516-3.516V82.857a.377.377,0,0,0-.391-.391Z" transform="translate(0 -71.527)" fill="#007d53" stroke="#007d53" stroke-width="0.3"/>
            <path id="Path_4221" data-name="Path 4221" d="M208.851,36.779a.751.751,0,0,0-.549-.232h-6.251a.777.777,0,0,0-.549,1.331l2.149,2.149-7.96,7.96a.384.384,0,0,0,0,.562l1.392,1.392a.384.384,0,0,0,.562,0l7.96-7.96,2.149,2.149a.781.781,0,0,0,1.331-.549V37.328A.751.751,0,0,0,208.851,36.779Z" transform="translate(-187.205 -36.547)" fill="#007d53" stroke="#007d53" stroke-width="0.3"/>
          </g>
        </g>
      </g>
      <g id="Group_2144" data-name="Group 2144" transform="translate(-5 494)">
        <ellipse id="Ellipse_27" data-name="Ellipse 27" cx="4.876" cy="4.876" rx="4.876" ry="4.876" transform="translate(512.946 362)" fill="#232323"/>
        <text id="If_you_get_this_frequently_please" data-name="If you get this frequently, please" transform="translate(536 374)" fill="#232323" font-size="20" font-family="WorkSans-Regular, Work Sans"><tspan x="0" y="0">If you get this frequently, please</tspan></text>
        <text id="send_us_feedback" data-name="send us feedback" transform="translate(858.432 374)" fill="#007d53" font-size="20" font-family="WorkSans-SemiBold, Work Sans" font-weight="600" text-decoration="underline"><tspan x="0" y="0">send us feedback</tspan></text>
        <g id="external-link-symbol-2" data-name="external-link-symbol" transform="translate(1037.749 357)">
          <g id="Group_2083-2" data-name="Group 2083">
            <path id="Path_4220-2" data-name="Path 4220" d="M16.8,82.466h-.781a.377.377,0,0,0-.391.391v3.907a1.958,1.958,0,0,1-1.953,1.953H3.516a1.881,1.881,0,0,1-1.38-.574,1.881,1.881,0,0,1-.574-1.38V76.606a1.881,1.881,0,0,1,.574-1.379,1.881,1.881,0,0,1,1.38-.574h8.595a.376.376,0,0,0,.391-.391V73.48a.376.376,0,0,0-.391-.39H3.516a3.387,3.387,0,0,0-2.485,1.032A3.387,3.387,0,0,0,0,76.606V86.764a3.386,3.386,0,0,0,1.032,2.484A3.387,3.387,0,0,0,3.516,90.28H13.674a3.523,3.523,0,0,0,3.516-3.516V82.857a.377.377,0,0,0-.391-.391Z" transform="translate(0 -71.527)" fill="#007d53" stroke="#007d53" stroke-width="0.3"/>
            <path id="Path_4221-2" data-name="Path 4221" d="M208.851,36.779a.751.751,0,0,0-.549-.232h-6.251a.777.777,0,0,0-.549,1.331l2.149,2.149-7.96,7.96a.384.384,0,0,0,0,.562l1.392,1.392a.384.384,0,0,0,.562,0l7.96-7.96,2.149,2.149a.781.781,0,0,0,1.331-.549V37.328A.751.751,0,0,0,208.851,36.779Z" transform="translate(-187.205 -36.547)" fill="#007d53" stroke="#007d53" stroke-width="0.3"/>
          </g>
        </g>
      </g>
      <g id="Group_2146" data-name="Group 2146" transform="translate(-5 449)">
        <ellipse id="Ellipse_27-2" data-name="Ellipse 27" cx="4.876" cy="4.876" rx="4.876" ry="4.876" transform="translate(512.946 362)" fill="#232323"/>
        <text id="See_other_things_you_could_try_in_our" data-name="See other things you could try in our" transform="translate(536 374)" fill="#232323" font-size="20" font-family="WorkSans-Regular, Work Sans"><tspan x="0" y="0">See other things you could try in our</tspan></text>
        <text id="MSDAT_troubleshooting_guide" data-name="MSDAT troubleshooting guide" transform="translate(903.432 374)" fill="#007d53" font-size="20" font-family="WorkSans-SemiBold, Work Sans" font-weight="600" text-decoration="underline"><tspan x="0" y="0">MSDAT troubleshooting guide</tspan></text>
        <g id="external-link-symbol-3" data-name="external-link-symbol" transform="translate(1200.749 357)">
          <g id="Group_2083-3" data-name="Group 2083">
            <path id="Path_4220-3" data-name="Path 4220" d="M16.8,82.466h-.781a.377.377,0,0,0-.391.391v3.907a1.958,1.958,0,0,1-1.953,1.953H3.516a1.881,1.881,0,0,1-1.38-.574,1.881,1.881,0,0,1-.574-1.38V76.606a1.881,1.881,0,0,1,.574-1.379,1.881,1.881,0,0,1,1.38-.574h8.595a.376.376,0,0,0,.391-.391V73.48a.376.376,0,0,0-.391-.39H3.516a3.387,3.387,0,0,0-2.485,1.032A3.387,3.387,0,0,0,0,76.606V86.764a3.386,3.386,0,0,0,1.032,2.484A3.387,3.387,0,0,0,3.516,90.28H13.674a3.523,3.523,0,0,0,3.516-3.516V82.857a.377.377,0,0,0-.391-.391Z" transform="translate(0 -71.527)" fill="#007d53" stroke="#007d53" stroke-width="0.3"/>
            <path id="Path_4221-3" data-name="Path 4221" d="M208.851,36.779a.751.751,0,0,0-.549-.232h-6.251a.777.777,0,0,0-.549,1.331l2.149,2.149-7.96,7.96a.384.384,0,0,0,0,.562l1.392,1.392a.384.384,0,0,0,.562,0l7.96-7.96,2.149,2.149a.781.781,0,0,0,1.331-.549V37.328A.751.751,0,0,0,208.851,36.779Z" transform="translate(-187.205 -36.547)" fill="#007d53" stroke="#007d53" stroke-width="0.3"/>
          </g>
        </g>
      </g>
    </g>
  </g>
</svg>
