<svg xmlns="http://www.w3.org/2000/svg" xmlns:xlink="http://www.w3.org/1999/xlink" width="321" height="700" viewBox="0 0 321 700">
  <defs>
    <filter id="Rectangle_1414" x="-10.125" y="-5.5" width="344.295" height="706" filterUnits="userSpaceOnUse">
      <feOffset dy="5" input="SourceAlpha"/>
      <feGaussianBlur stdDeviation="3.5" result="blur"/>
      <feFlood flood-opacity="0.161"/>
      <feComposite operator="in" in2="blur"/>
      <feComposite in="SourceGraphic"/>
    </filter>
    <clipPath id="clip-MSDAT_-_Header_Hamburger">
      <rect width="321" height="700"/>
    </clipPath>
  </defs>
  <g id="MSDAT_-_Header_Hamburger" data-name="MSDAT - Header Hamburger" clip-path="url(#clip-MSDAT_-_Header_Hamburger)">
    <g id="menu" transform="translate(-1537.544 -306)">
      <g transform="matrix(1, 0, 0, 1, 1537.54, 306)" filter="url(#Rectangle_1414)">
        <g id="Rectangle_1414-2" data-name="Rectangle 1414" transform="translate(0.38)" fill="#fff" stroke="#cfcfcf" stroke-width="1">
          <path d="M0,0H318.295a5,5,0,0,1,5,5V680a5,5,0,0,1-5,5H5a5,5,0,0,1-5-5V0A0,0,0,0,1,0,0Z" stroke="none"/>
          <path d="M1,.5H318.295a4.5,4.5,0,0,1,4.5,4.5V680a4.5,4.5,0,0,1-4.5,4.5H5A4.5,4.5,0,0,1,.5,680V1A.5.5,0,0,1,1,.5Z" fill="none"/>
        </g>
      </g>
      <line id="Line_165" data-name="Line 165" x2="317.833" transform="translate(1538.711 749.097)" fill="none" stroke="#cfcfcf" stroke-width="1"/>
      <g id="Group_2224" data-name="Group 2224">
        <text id="About_Dashboard" data-name="About Dashboard" transform="translate(1594.544 343)" font-size="16" font-family="WorkSans-Regular, Work Sans"><tspan x="0" y="0">About Dashboard</tspan></text>
        <path id="ic_info_24px" d="M10.932,2a8.932,8.932,0,1,0,8.932,8.932A8.935,8.935,0,0,0,10.932,2Zm.893,13.4H10.039V10.039h1.786Zm0-7.146H10.039V6.466h1.786Z" transform="translate(1561.128 327)" fill="#515151"/>
      </g>
      <g id="Group_2455" data-name="Group 2455">
        <line id="Line_209" data-name="Line 209" x2="317.833" transform="translate(1538.711 412.648)" fill="none" stroke="#cfcfcf" stroke-width="1"/>
        <line id="Line_208" data-name="Line 208" x2="317.833" transform="translate(1538.711 562.745)" fill="none" stroke="#cfcfcf" stroke-width="1"/>
        <g id="Group_2457" data-name="Group 2457" transform="translate(0 -187)">
          <g id="uploading-archive" transform="translate(1564.319 665)">
            <g id="Group_1455" data-name="Group 1455" transform="translate(0 0)">
              <g id="Group_1454" data-name="Group 1454" transform="translate(0 0)">
                <path id="Path_929" data-name="Path 929" d="M19.129,0,15.181,4.226c-.393.411-.306.7.243.7h2.2v6.741h3V4.926h2.2c.548,0,.635-.29.242-.7Z" transform="translate(-11.034)" fill="#515151"/>
                <path id="Path_930" data-name="Path 930" d="M18.748,25.77H16.655a.394.394,0,0,0-.346.43v7.714H5.516V26.2a.4.4,0,0,0-.346-.43H3.077a.4.4,0,0,0-.346.43V35a2.184,2.184,0,0,0,1.911,2.375h12.54A2.184,2.184,0,0,0,19.093,35V26.2A.394.394,0,0,0,18.748,25.77Z" transform="translate(-2.731 -19.511)" fill="#515151"/>
              </g>
            </g>
          </g>
          <text id="Submit_New_Data_Source" data-name="Submit New Data Source" transform="translate(1594.544 679)" font-size="16" font-family="WorkSans-Regular, Work Sans"><tspan x="0" y="0">Submit New Data Source</tspan></text>
        </g>
        <g id="Group_2458" data-name="Group 2458" transform="translate(0 -143.337)">
          <text id="Suggest_Indicator_Data_Source" data-name="Suggest Indicator/Data Source" transform="translate(1594.544 679)" font-size="16" font-family="WorkSans-Regular, Work Sans"><tspan x="0" y="0">Suggest Indicator/Data Source</tspan></text>
          <g id="recommendation" transform="translate(1563.128 665.799)">
            <path id="Path_1091" data-name="Path 1091" d="M22.87,8.5H10.379A2.379,2.379,0,0,0,8,10.879V20.4a2.379,2.379,0,0,0,2.379,2.379h1.19l-1.19,2.974,6.246-2.974H22.87A2.379,2.379,0,0,0,25.25,20.4V10.879A2.379,2.379,0,0,0,22.87,8.5Zm-1.319,6.429-2.129,1.546a.6.6,0,0,0-.216.665l.813,2.5a.595.595,0,0,1-.915.665l-2.129-1.547a.6.6,0,0,0-.7,0l-2.129,1.547a.595.595,0,0,1-.915-.665l.813-2.5a.6.6,0,0,0-.215-.665L11.7,14.93a.595.595,0,0,1,.348-1.077H14.68a.6.6,0,0,0,.565-.411l.815-2.5a.595.595,0,0,1,1.13,0l.813,2.5a.6.6,0,0,0,.566.412H21.2a.595.595,0,0,1,.35,1.076Zm0,0" transform="translate(-7.692 -8.192)" fill="#515151"/>
            <path id="Path_1093" data-name="Path 1093" d="M15.185.5H2.68A2.683,2.683,0,0,0,0,3.18v9.528a2.683,2.683,0,0,0,2.68,2.68h.751L2.4,17.957a.3.3,0,0,0,.4.378L9,15.387h6.184a2.683,2.683,0,0,0,2.68-2.68V3.18A2.683,2.683,0,0,0,15.185.5Zm2.084,12.208a2.087,2.087,0,0,1-2.084,2.084H8.932a.3.3,0,0,0-.128.03l-5.565,2.65L4.147,15.2a.3.3,0,0,0-.277-.409H2.68A2.087,2.087,0,0,1,.6,12.708V3.18A2.087,2.087,0,0,1,2.68,1.1H15.185A2.087,2.087,0,0,1,17.269,3.18Zm0,0" transform="translate(0 -0.5)" fill="#515151"/>
            <path id="Path_1094" data-name="Path 1094" d="M92.889,55.039h0s0,0,0,0h0Zm0,0h0Zm0,0" transform="translate(-83.956 -47.515)" fill="#fff"/>
          </g>
        </g>
        <g id="Group_2456" data-name="Group 2456" transform="translate(1537.544 119)">
          <text id="Change_Select_Datasets" data-name="Change/Select Datasets" transform="translate(57 330)" font-size="16" font-family="WorkSans-Regular, Work Sans"><tspan x="0" y="0">Change/Select Datasets</tspan></text>
          <path id="ic_autorenew_24px" d="M12,6V9l4-4L12,1V4A7.986,7.986,0,0,0,5.24,16.26L6.7,14.8A5.87,5.87,0,0,1,6,12,6,6,0,0,1,12,6Zm6.76,1.74L17.3,9.2A5.99,5.99,0,0,1,12,18V15L8,19l4,4V20A7.986,7.986,0,0,0,18.76,7.74Z" transform="translate(22 314)" fill="#515151"/>
        </g>
      </g>
      <g id="Group_2452" data-name="Group 2452">
        <text id="Play_Tour_Guide" data-name="Play Tour Guide" transform="translate(1595.544 388)" font-size="16" font-family="WorkSans-Regular, Work Sans"><tspan x="0" y="0">Play Tour Guide</tspan></text>
        <path id="ic_play_circle_filled_24px" d="M10.932,2a8.932,8.932,0,1,0,8.932,8.932A8.935,8.935,0,0,0,10.932,2ZM9.146,14.951V6.913L14.5,10.932Z" transform="translate(1561.128 372.064)" fill="#515151"/>
      </g>
      <g id="Group_2451" data-name="Group 2451" transform="translate(0 149.449)">
        <text id="Print" transform="translate(1594.544 490)" font-size="16" font-family="WorkSans-Regular, Work Sans"><tspan x="0" y="0">Print</tspan></text>
        <path id="ic_local_printshop_24px" d="M18.872,7.962H4.977A2.973,2.973,0,0,0,2,10.94v5.955H5.97v3.97H17.879v-3.97h3.97V10.94A2.973,2.973,0,0,0,18.872,7.962ZM15.894,18.879H7.955V13.917h7.94Zm2.977-6.947a.992.992,0,1,1,.992-.992A1,1,0,0,1,18.872,11.932ZM17.879,3H5.97V6.97H17.879Z" transform="translate(1559.937 473.619)" fill="#515151"/>
      </g>
      <g id="Group_2449" data-name="Group 2449" transform="translate(0 149.449)">
        <text id="View_Fullscreen" data-name="View Fullscreen" transform="translate(1594.544 574)" font-size="16" font-family="WorkSans-Regular, Work Sans"><tspan x="0" y="0">View Fullscreen</tspan></text>
        <path id="ic_zoom_out_map_24px" d="M14.909,3l2.283,2.283L14.324,8.131,15.733,9.54l2.848-2.868,2.283,2.283V3ZM3,8.955,5.283,6.672,8.131,9.54,9.54,8.131,6.672,5.283,8.955,3H3ZM8.955,20.864,6.672,18.581,9.54,15.733,8.131,14.324,5.283,17.192,3,14.909v5.955Zm11.909-5.955-2.283,2.283-2.848-2.868-1.409,1.409,2.868,2.848-2.283,2.283h5.955Z" transform="translate(1560.128 556.365)" fill="#515151"/>
      </g>
      <g id="Group_2206" data-name="Group 2206" transform="translate(0 149.449)">
        <text id="Share" transform="translate(1594.544 448)" font-size="16" font-family="WorkSans-Regular, Work Sans"><tspan x="0" y="0">Share</tspan></text>
        <path id="ic_share_24px" d="M16.452,14.627a2.611,2.611,0,0,0-1.758.691L8.3,11.6a2.936,2.936,0,0,0,.081-.628A2.936,2.936,0,0,0,8.3,10.34l6.322-3.686a2.684,2.684,0,1,0-.861-1.964,2.936,2.936,0,0,0,.081.628L7.52,9a2.69,2.69,0,1,0,0,3.928L13.9,16.662a2.53,2.53,0,0,0-.072.583,2.619,2.619,0,1,0,2.619-2.619Z" transform="translate(1561.319 431.579)" fill="#515151"/>
      </g>
      <g id="Group_2203" data-name="Group 2203" transform="translate(0 39.097)">
        <text id="Help_and_FAQs" data-name="Help and FAQs" transform="translate(1594.544 875)" font-size="16" font-family="WorkSans-Regular, Work Sans"><tspan x="0" y="0">Help and FAQs</tspan></text>
        <path id="ic_help_24px" d="M10.932,2a8.932,8.932,0,1,0,8.932,8.932A8.935,8.935,0,0,0,10.932,2Zm.893,15.184H10.039V15.4h1.786Zm1.849-6.922-.8.822a3.041,3.041,0,0,0-1.045,2.528H10.039v-.447a3.6,3.6,0,0,1,1.045-2.528l1.108-1.125a1.746,1.746,0,0,0,.527-1.259,1.786,1.786,0,1,0-3.573,0H7.359a3.573,3.573,0,0,1,7.146,0A2.842,2.842,0,0,1,13.674,10.262Z" transform="translate(1561.128 859.136)" fill="#515151"/>
      </g>
      <g id="Group_2450" data-name="Group 2450" transform="translate(0 149.449)">
        <text id="Download_Data" data-name="Download Data" transform="translate(1594.544 531)" font-size="16" font-family="WorkSans-Regular, Work Sans"><tspan x="0" y="0">Download Data</tspan></text>
        <path id="ic_cloud_download_24px" d="M18.084,9.645A7,7,0,0,0,5,7.776a5.605,5.605,0,0,0,.607,11.177H17.757a4.659,4.659,0,0,0,.327-9.308Zm-2.2,2.766-4.673,4.673L6.542,12.411h2.8V8.673h3.738v3.738Z" transform="translate(1560.746 515.324)" fill="#515151"/>
      </g>
      <g id="Group_2453" data-name="Group 2453">
        <text id="Feedback" transform="translate(1594.544 827.097)" font-size="16" font-family="WorkSans-Regular, Work Sans"><tspan x="0" y="0">Feedback</tspan></text>
        <g id="Group_1732" data-name="Group 1732" transform="translate(1561.937 814.406)">
          <g id="Group_858" data-name="Group 858" transform="translate(0 0)">
            <path id="Path_743" data-name="Path 743" d="M17.736,28.529a.41.41,0,0,0-.446.088l-2.524,2.506a1.224,1.224,0,0,1-.626.333l-2.044.406a1.226,1.226,0,0,1-1.108-.333,1.211,1.211,0,0,1-.335-1.1l.361-1.791H4.5a.406.406,0,1,1,0-.812H11.36c.014-.016.022-.035.038-.05L12.982,26.2H4.5a.406.406,0,1,1,0-.812h8.994a.4.4,0,0,1,.23.079l2.653-2.634a2.364,2.364,0,0,1,.8-.52.405.405,0,0,0,.073-.716,1.641,1.641,0,0,0-.9-.268H1.635A1.632,1.632,0,0,0,0,22.954V38.788a.409.409,0,0,0,.7.287l3.969-3.941H16.353a1.632,1.632,0,0,0,1.635-1.624V28.9A.406.406,0,0,0,17.736,28.529ZM9.4,31.074H4.5a.406.406,0,1,1,0-.812H9.4a.406.406,0,1,1,0,.812Z" transform="translate(0 -21.33)" fill="#515151"/>
            <path id="Path_744" data-name="Path 744" d="M304.727,64a1.444,1.444,0,0,0-1.015.42l-4.563,4.563a.374.374,0,0,0-.1.191l-.375,1.875a.375.375,0,0,0,.368.448.383.383,0,0,0,.073-.007l1.874-.375a.373.373,0,0,0,.192-.1l4.564-4.563h0A1.435,1.435,0,0,0,304.727,64Zm-.595,3-.97-.97.53-.53.97.97Z" transform="translate(-286.674 -62.5)" fill="#515151"/>
          </g>
        </g>
      </g>
      <g id="Group_2204" data-name="Group 2204" transform="translate(0 39.097)">
        <text id="See_Updates" data-name="See Updates" transform="translate(1594.544 747)" font-size="16" font-family="WorkSans-Regular, Work Sans"><tspan x="0" y="0">See Updates</tspan></text>
        <g id="Group_1733" data-name="Group 1733" transform="translate(1560.746 733.795)">
          <path id="ic_cloud_download_24px-2" data-name="ic_cloud_download_24px" d="M18.084,9.645A7,7,0,0,0,5,7.776a5.605,5.605,0,0,0,.607,11.177H17.757a4.659,4.659,0,0,0,.327-9.308Z" transform="translate(0 -4)" fill="#515151"/>
          <g id="Group_1734" data-name="Group 1734" transform="translate(7.146 4.764)">
            <path id="Path_1095" data-name="Path 1095" d="M19.072,15.109a3.163,3.163,0,0,0-4.234-1.447c.168.343.369.783.369.783a2.314,2.314,0,0,1,2.728,3.638l-.031.032-.252-.514-.446,1.3,1.3.445-.218-.445.031-.027A3.166,3.166,0,0,0,19.072,15.109Z" transform="translate(-11.321 -14.338)" fill="#fff" stroke="#fff" stroke-width="1"/>
            <path id="Path_1096" data-name="Path 1096" d="M11.345,18.63a2.309,2.309,0,0,1,.367-2.576l.031-.033.251.512.445-1.3-1.3-.447.219.446-.032.025a3.165,3.165,0,0,0,3.484,5.218c-.169-.342-.369-.784-.369-.784A2.312,2.312,0,0,1,11.345,18.63Z" transform="translate(-10.249 -13.592)" fill="#fff" stroke="#fff" stroke-width="1"/>
          </g>
        </g>
      </g>
      <g id="Group_2205" data-name="Group 2205" transform="translate(0 39.097)">
        <text id="Contact" transform="translate(1597.544 833)" font-size="16" font-family="OpenSans, Open Sans"><tspan x="0" y="0">Contact</tspan></text>
        <path id="ic_markunread_24px" d="M18.875,4h-15A1.873,1.873,0,0,0,2.009,5.875L2,17.125A1.881,1.881,0,0,0,3.875,19h15a1.881,1.881,0,0,0,1.875-1.875V5.875A1.881,1.881,0,0,0,18.875,4Zm0,3.75-7.5,4.688L3.875,7.75V5.875l7.5,4.688,7.5-4.688Z" transform="translate(1560.544 816)" fill="#515151"/>
      </g>
      <g id="Group_2454" data-name="Group 2454">
        <text id="Subscribe_to_our_newsletter" data-name="Subscribe to our newsletter" transform="translate(1594.544 956.097)" font-size="16" font-family="WorkSans-Regular, Work Sans"><tspan x="0" y="0">Subscribe to our newsletter</tspan></text>
        <g id="email" transform="translate(1563.544 941.097)">
          <path id="Path_3692" data-name="Path 3692" d="M1.6,144H1.279a.964.964,0,0,0-.951.8l1.272.886Zm0,0" transform="translate(-0.315 -138.215)" fill="#515151"/>
          <path id="Path_3693" data-name="Path 3693" d="M56.9,11.571l5.244-3.649V2.571H60.535a.964.964,0,0,1-.964-.964V0H48.643A.643.643,0,0,0,48,.643V7.922l5.244,3.649Zm3.637-8.357a.321.321,0,0,1,0,.643H49.607a.321.321,0,1,1,0-.643Zm.321,2.25a.321.321,0,0,1-.321.321H49.607a.321.321,0,1,1,0-.643H60.535A.321.321,0,0,1,60.857,5.464ZM52.178,1.285h5.786a.321.321,0,1,1,0,.643H52.178a.321.321,0,1,1,0-.643ZM48.964,2.571a.321.321,0,0,1-.321-.321V1.607a.964.964,0,0,1,.964-.964h.643a.321.321,0,1,1,0,.643h-.643a.321.321,0,0,0-.321.321V2.25A.321.321,0,0,1,48.964,2.571Zm.321,4.821a.321.321,0,0,1,.321-.321H60.535a.321.321,0,0,1,0,.643H49.607A.321.321,0,0,1,49.286,7.392Zm1.929,1.929A.321.321,0,0,1,51.536,9h7.071a.321.321,0,1,1,0,.643H51.536A.321.321,0,0,1,51.214,9.321Zm0,0" transform="translate(-46.071)" fill="#515151"/>
          <path id="Path_3694" data-name="Path 3694" d="M352.321,12.787h1.153L352,11.313v1.153A.321.321,0,0,0,352.321,12.787Zm0,0" transform="translate(-337.858 -10.858)" fill="#515151"/>
          <path id="Path_3695" data-name="Path 3695" d="M0,183.3v9.67a.964.964,0,0,0,.836.956l5.745-6.048Zm0,0" transform="translate(0 -175.94)" fill="#515151"/>
          <path id="Path_3696" data-name="Path 3696" d="M48.136,304l-5.5,5.786H57.213L51.717,304Zm0,0" transform="translate(-40.927 -291.786)" fill="#515151"/>
          <path id="Path_3697" data-name="Path 3697" d="M289.96,193.931a.964.964,0,0,0,.836-.956V183.3l-6.58,4.578Zm0,0" transform="translate(-272.796 -175.94)" fill="#515151"/>
          <path id="Path_3698" data-name="Path 3698" d="M416.321,144H416v1.69l1.272-.885A.964.964,0,0,0,416.321,144Zm0,0" transform="translate(-399.286 -138.215)" fill="#515151"/>
        </g>
      </g>
    </g>
  </g>
</svg>
