<svg xmlns="http://www.w3.org/2000/svg" xmlns:xlink="http://www.w3.org/1999/xlink" width="635" height="156" viewBox="0 0 635 156">
  <defs>
    <filter id="Rectangle_2676" x="-19" y="-10" width="664" height="179" filterUnits="userSpaceOnUse">
      <feOffset dx="-5" dy="5" input="SourceAlpha"/>
      <feGaussianBlur stdDeviation="5" result="blur"/>
      <feFlood flood-opacity="0.161"/>
      <feComposite operator="in" in2="blur"/>
      <feComposite in="SourceGraphic"/>
    </filter>
    <clipPath id="clip-MSDAT_-_New_Update_Alert">
      <rect width="635" height="156"/>
    </clipPath>
  </defs>
  <g id="MSDAT_-_New_Update_Alert" data-name="MSDAT - New Update Alert" clip-path="url(#clip-MSDAT_-_New_Update_Alert)">
    <g id="Group_2126" data-name="Group 2126" transform="translate(82.999 -522)">
      <g transform="matrix(1, 0, 0, 1, -83, 522)" filter="url(#Rectangle_2676)">
        <rect id="Rectangle_2676-2" data-name="Rectangle 2676" width="634" height="149" rx="5" transform="translate(1)" fill="rgba(0,0,0,0.85)"/>
      </g>
      <text id="Click_here_to_learn_about_what_has_changed_on_the_MSDAT_Dashboard." data-name="Click here to learn about what has changed on the MSDAT Dashboard." transform="translate(25.001 585.98)" fill="#fff" font-size="20" font-family="WorkSans-Regular, Work Sans"><tspan x="0" y="19">Click here to learn about what has changed </tspan><tspan x="0" y="51">on the MSDAT Dashboard.</tspan></text>
      <text id="The_dashboard_has_been_updated" data-name="The dashboard has been updated" transform="translate(25.001 568.963)" fill="#fff" font-size="24" font-family="WorkSans-Bold, Work Sans" font-weight="700"><tspan x="0" y="0">The dashboard has been updated</tspan></text>
      <g id="Group_1110" data-name="Group 1110" transform="translate(483.753 522)">
        <path id="Rectangle_1466" data-name="Rectangle 1466" d="M0,0H65.431a3,3,0,0,1,3,3V68.431a0,0,0,0,1,0,0H0a0,0,0,0,1,0,0V0A0,0,0,0,1,0,0Z" fill="none"/>
        <g id="close" transform="translate(25.593 26.208)">
          <path id="Path_756" data-name="Path 756" d="M9.761,8.3l6.523-6.523A1.037,1.037,0,0,0,14.818.3L8.294,6.828,1.771.3A1.037,1.037,0,0,0,.3,1.772L6.828,8.3.3,14.818a1.037,1.037,0,1,0,1.467,1.467L8.294,9.762l6.523,6.523a1.037,1.037,0,0,0,1.467-1.467Z" transform="translate(0 -0.001)" fill="#fff"/>
        </g>
      </g>
      <g id="refresh" transform="translate(-58.55 553.433)">
        <path id="Path_4232" data-name="Path 4232" d="M281.122,224.635a1.032,1.032,0,0,1-1.032-1.032,9.956,9.956,0,0,1,9.816-9.816,9.837,9.837,0,0,1,6.3,2.324l-.035-1.382a1.032,1.032,0,1,1,2.063-.052l.1,3.922a1.032,1.032,0,0,1-1.266,1.27l-3.927-.1a1.032,1.032,0,0,1,.026-2.063h.026l1.746.044a7.716,7.716,0,0,0-12.787,5.852A1.032,1.032,0,0,1,281.122,224.635Zm0,0" transform="translate(-238.787 -182.178)" fill="#fff" stroke="#fff" stroke-width="0.5"/>
        <path id="Path_4233" data-name="Path 4233" d="M291.216,284.991a1.032,1.032,0,0,1-1.031-1.006l-.1-3.922a1.032,1.032,0,0,1,1.265-1.27l3.927.1a1.032,1.032,0,0,1-.052,2.063l-1.746-.044a7.715,7.715,0,0,0,12.786-5.852,1.032,1.032,0,0,1,2.063,0,9.955,9.955,0,0,1-9.816,9.816,9.843,9.843,0,0,1-6.3-2.324l.035,1.382a1.031,1.031,0,0,1-1.005,1.057h-.027Zm0,0" transform="translate(-247.279 -233.633)" fill="#fff" stroke="#fff" stroke-width="0.5"/>
        <path id="Path_4234" data-name="Path 4234" d="M251.618,202.094a16.508,16.508,0,1,1,16.508-16.508A16.526,16.526,0,0,1,251.618,202.094Zm0-30.952a14.444,14.444,0,1,0,14.444,14.444A14.461,14.461,0,0,0,251.618,171.142Zm0,0" transform="translate(-200.44 -144.161)" fill="#fff" stroke="#fff" stroke-width="0.5"/>
        <path id="Path_4235" data-name="Path 4235" d="M36.126,46.173H6.927A6.935,6.935,0,0,1,0,39.245V7.025A6.935,6.935,0,0,1,6.927.1H45.248a6.935,6.935,0,0,1,6.927,6.927V26.048a1.032,1.032,0,1,1-2.063,0V7.025a4.869,4.869,0,0,0-4.864-4.864H6.927A4.869,4.869,0,0,0,2.063,7.025v32.22a4.869,4.869,0,0,0,4.864,4.864h29.2a1.032,1.032,0,0,1,0,2.063Zm0,0" transform="translate(0.001 -0.098)" fill="#fff" stroke="#fff" stroke-width="0.5"/>
        <path id="Path_4236" data-name="Path 4236" d="M51.144,83.466H1.032a1.032,1.032,0,0,1,0-2.063H51.144a1.032,1.032,0,1,1,0,2.063Zm0,0" transform="translate(0 -69.413)" fill="#fff" stroke="#fff" stroke-width="0.5"/>
        <path id="Path_4237" data-name="Path 4237" d="M83.657,34.287A2.884,2.884,0,1,1,86.54,31.4,2.887,2.887,0,0,1,83.657,34.287Zm0-3.7a.82.82,0,1,0,.82.82A.821.821,0,0,0,83.657,30.583Zm0,0" transform="translate(-67.862 -24.328)" fill="#fff"/>
        <path id="Path_4238" data-name="Path 4238" d="M27.243,34.111a2.884,2.884,0,1,1,2.884-2.884A2.887,2.887,0,0,1,27.243,34.111Zm0-3.7a.82.82,0,1,0,.82.82A.821.821,0,0,0,27.243,30.407Zm0,0" transform="translate(-19.767 -24.179)" fill="#fff"/>
        <path id="Path_4239" data-name="Path 4239" d="M140.071,34.462a2.884,2.884,0,1,1,2.884-2.884A2.887,2.887,0,0,1,140.071,34.462Zm0-3.7a.82.82,0,1,0,.82.82A.821.821,0,0,0,140.071,30.759Zm0,0" transform="translate(-115.957 -24.478)" fill="#fff"/>
      </g>
    </g>
  </g>
</svg>
