<svg xmlns="http://www.w3.org/2000/svg" xmlns:xlink="http://www.w3.org/1999/xlink" width="232" height="342" viewBox="0 0 232 342">
  <defs>
    <filter id="Rectangle_2796" x="-6.5" y="-7.5" width="245" height="351" filterUnits="userSpaceOnUse">
      <feOffset dy="3" input="SourceAlpha"/>
      <feGaussianBlur stdDeviation="3.5" result="blur"/>
      <feFlood flood-opacity="0.161"/>
      <feComposite operator="in" in2="blur"/>
      <feComposite in="SourceGraphic"/>
    </filter>
    <clipPath id="clip-Other_Dashboards">
      <rect width="232" height="342"/>
    </clipPath>
  </defs>
  <g id="Other_Dashboards" data-name="Other Dashboards" clip-path="url(#clip-Other_Dashboards)">
    <g id="Group_2459" data-name="Group 2459" transform="translate(-1169 -134)">
      <g transform="matrix(1, 0, 0, 1, 1169, 134)" filter="url(#Rectangle_2796)">
        <path id="Rectangle_2796-2" data-name="Rectangle 2796" d="M0,0H219a5,5,0,0,1,5,5V325a5,5,0,0,1-5,5H5a5,5,0,0,1-5-5V0A0,0,0,0,1,0,0Z" transform="translate(4)" fill="#fff"/>
      </g>
      <rect id="Rectangle_2800" data-name="Rectangle 2800" width="224" height="55" transform="translate(1173 244)" fill="#fff"/>
      <rect id="Rectangle_2801" data-name="Rectangle 2801" width="224" height="55" transform="translate(1173 299)" fill="#fff"/>
      <rect id="Rectangle_2802" data-name="Rectangle 2802" width="224" height="55" transform="translate(1173 354)" fill="#fff"/>
      <rect id="Rectangle_2803" data-name="Rectangle 2803" width="224" height="55" rx="5" transform="translate(1173 409)" fill="#fff"/>
      <text id="Health_Financing" data-name="Health Financing" transform="translate(1197 278)" fill="#494949" font-size="14" font-family="WorkSans-Regular, Work Sans"><tspan x="0" y="0">HEALTH FINANCING</tspan></text>
      <text id="State_Profiles" data-name="State Profiles" transform="translate(1197 333)" fill="#494949" font-size="14" font-family="WorkSans-Regular, Work Sans"><tspan x="0" y="0">STATE PROFILES</tspan></text>
      <text id="Demographics" transform="translate(1197 388)" fill="#494949" font-size="14" font-family="WorkSans-Regular, Work Sans"><tspan x="0" y="0">DEMOGRAPHICS</tspan></text>
      <text id="Create_Dashboard_" data-name="Create Dashboard  +" transform="translate(1197 443)" fill="#494949" font-size="14" font-family="WorkSans-Regular, Work Sans"><tspan x="0" y="0" xml:space="preserve">CREATE DASHBOARD  +</tspan></text>
      <rect id="Rectangle_2799" data-name="Rectangle 2799" width="224" height="55" transform="translate(1173 189)" fill="#fff"/>
      <text id="Health_Facility_Surveys" data-name="Health Facility Surveys" transform="translate(1197 222)" fill="#494949" font-size="14" font-family="WorkSans-Regular, Work Sans"><tspan x="0" y="0">HEALTH FACILITY SURVEYS</tspan></text>
      <rect id="Rectangle_2798" data-name="Rectangle 2798" width="224" height="55" transform="translate(1173 134)" fill="#fff"/>
      <text id="NHMIS_Analysis" data-name="NHMIS Analysis" transform="translate(1197 168)" fill="#494949" font-size="14" font-family="WorkSans-Regular, Work Sans"><tspan x="0" y="0">NHMIS ANALYSIS</tspan></text>
    </g>
  </g>
</svg>
