<svg xmlns="http://www.w3.org/2000/svg" xmlns:xlink="http://www.w3.org/1999/xlink" width="668.67" height="370" viewBox="0 0 668.67 370">
  <defs>
    <filter id="Rectangle_143" x="-10.5" y="-5.5" width="689" height="368.121" filterUnits="userSpaceOnUse">
      <feOffset dy="5" input="SourceAlpha"/>
      <feGaussianBlur stdDeviation="3.5" result="blur"/>
      <feFlood flood-opacity="0.161"/>
      <feComposite operator="in" in2="blur"/>
      <feComposite in="SourceGraphic"/>
    </filter>
    <clipPath id="clip-tri_indicator_dropdown_">
      <rect width="668.67" height="370"/>
    </clipPath>
  </defs>
  <g id="tri_indicator_dropdown_" data-name="tri indicator dropdown " clip-path="url(#clip-tri_indicator_dropdown_)">
    <g id="main_ctrpnl_dropdown" data-name="main ctrpnl dropdown" transform="translate(-45 -293)">
      <g id="Group_466" data-name="Group 466" transform="translate(45 293)">
        <g id="main_ctrpnl_dropdown-2" data-name="main ctrpnl dropdown" transform="translate(0 0)">
          <g id="indicator_dropdown" data-name="indicator dropdown">
            <g transform="matrix(1, 0, 0, 1, 0, 0)" filter="url(#Rectangle_143)">
              <g id="Rectangle_143-2" data-name="Rectangle 143" transform="translate(0 0)" fill="#fff" stroke="#cfcfcf" stroke-width="1">
                <path d="M0,0H663a5,5,0,0,1,5,5V342.121a5,5,0,0,1-5,5H5a5,5,0,0,1-5-5V0A0,0,0,0,1,0,0Z" stroke="none"/>
                <path d="M1,.5H663A4.5,4.5,0,0,1,667.5,5V342.121a4.5,4.5,0,0,1-4.5,4.5H5a4.5,4.5,0,0,1-4.5-4.5V1A.5.5,0,0,1,1,.5Z" fill="none"/>
              </g>
            </g>
            <rect id="Rectangle_228" data-name="Rectangle 228" width="656" height="44" transform="translate(6 66.564)" fill="#fff"/>
            <rect id="Rectangle_1606" data-name="Rectangle 1606" width="656" height="44" transform="translate(6 214.028)" fill="#fff"/>
            <text id="MATERNAL_MORTALITY_RATIO" data-name="MATERNAL MORTALITY RATIO" transform="translate(19 94)" font-size="16" font-family="WorkSans-Regular, Work Sans"><tspan x="0" y="0">MATERNAL MORTALITY RATIO</tspan></text>
            <text id="ANC_COVERAGE_AT_LEAST_1_VISIT_" data-name="ANC COVERAGE (AT LEAST 1 VISIT)" transform="translate(19 265)" font-size="16" font-family="WorkSans-Regular, Work Sans"><tspan x="0" y="0">ANC COVERAGE (AT LEAST 1 VISIT)</tspan></text>
            <text id="UNDER_5_MORTALITY_RATE" data-name="UNDER 5 MORTALITY RATE" transform="translate(19 128)" font-size="16" font-family="WorkSans-Regular, Work Sans"><tspan x="0" y="0">UNDER 5 MORTALITY RATE</tspan></text>
            <text id="ANC_COVERAGE_4_VISITS_" data-name="ANC COVERAGE (4 VISITS)" transform="translate(19 299)" font-size="16" font-family="WorkSans-Regular, Work Sans"><tspan x="0" y="0">ANC COVERAGE (4 VISITS)</tspan></text>
            <text id="NEONATAL_MORTALITY_RATE" data-name="NEONATAL MORTALITY RATE" transform="translate(19 162)" font-size="16" font-family="WorkSans-Regular, Work Sans"><tspan x="0" y="0">NEONATAL MORTALITY RATE</tspan></text>
            <text id="CONTRACEPTIVE_PREVALENCE_RATE" data-name="CONTRACEPTIVE PREVALENCE RATE" transform="translate(19 333)" font-size="16" font-family="WorkSans-Regular, Work Sans"><tspan x="0" y="0">CONTRACEPTIVE PREVALENCE RATE</tspan></text>
            <g id="Rectangle_145" data-name="Rectangle 145" transform="translate(0 170.977)" fill="#d4e4de" stroke="#d9d6d6" stroke-width="1">
              <rect width="667" height="41" stroke="none"/>
              <rect x="0.5" y="0.5" width="666" height="40" fill="none"/>
            </g>
            <text id="RMNCH_N" data-name="RMNCH + N" transform="translate(19 197)" font-size="16" font-family="WorkSans-Regular, Work Sans"><tspan x="0" y="0">RMNCH + N</tspan></text>
            <text id="INFANT_MORTALITY_RATE" data-name="INFANT MORTALITY RATE" transform="translate(19 60)" font-size="16" font-family="WorkSans-Regular, Work Sans"><tspan x="0" y="0">INFANT MORTALITY RATE</tspan></text>
            <text id="SKILLED_ATTENDANCE_AT_DELIVERY_OR_BIRTH" data-name="SKILLED ATTENDANCE AT DELIVERY OR BIRTH" transform="translate(19 231)" font-size="16" font-family="WorkSans-Regular, Work Sans"><tspan x="0" y="0">SKILLED ATTENDANCE AT DELIVERY OR BIRTH</tspan></text>
            <g id="Rectangle_144" data-name="Rectangle 144" fill="#d4e4de" stroke="#e0e2e4" stroke-width="1">
              <rect width="667" height="41" stroke="none"/>
              <rect x="0.5" y="0.5" width="666" height="40" fill="none"/>
            </g>
            <text id="MORTALITY" transform="translate(19 26)" font-size="16" font-family="WorkSans-Regular, Work Sans"><tspan x="0" y="0">MORTALITY</tspan></text>
          </g>
        </g>
      </g>
    </g>
  </g>
</svg>
