<svg width="22" height="20" viewBox="0 0 22 20" fill="none" xmlns="http://www.w3.org/2000/svg">
<path d="M11 0C11.5304 0 12.0391 0.210714 12.4142 0.585786C12.7893 0.960859 13 1.46957 13 2C13 2.74 12.6 3.39 12 3.73V5H13C14.8565 5 16.637 5.7375 17.9497 7.05025C19.2625 8.36301 20 10.1435 20 12H21C21.2652 12 21.5196 12.1054 21.7071 12.2929C21.8946 12.4804 22 12.7348 22 13V16C22 16.2652 21.8946 16.5196 21.7071 16.7071C21.5196 16.8946 21.2652 17 21 17H20V18C20 18.5304 19.7893 19.0391 19.4142 19.4142C19.0391 19.7893 18.5304 20 18 20H4C3.46957 20 2.96086 19.7893 2.58579 19.4142C2.21071 19.0391 2 18.5304 2 18V17H1C0.734784 17 0.48043 16.8946 0.292893 16.7071C0.105357 16.5196 0 16.2652 0 16V13C0 12.7348 0.105357 12.4804 0.292893 12.2929C0.48043 12.1054 0.734784 12 1 12H2C2 10.1435 2.7375 8.36301 4.05025 7.05025C5.36301 5.7375 7.14348 5 9 5H10V3.73C9.4 3.39 9 2.74 9 2C9 1.46957 9.21071 0.960859 9.58579 0.585786C9.96086 0.210714 10.4696 0 11 0ZM6.5 11C5.83696 11 5.20107 11.2634 4.73223 11.7322C4.26339 12.2011 4 12.837 4 13.5C4 14.163 4.26339 14.7989 4.73223 15.2678C5.20107 15.7366 5.83696 16 6.5 16C7.16304 16 7.79893 15.7366 8.26777 15.2678C8.73661 14.7989 9 14.163 9 13.5C9 12.837 8.73661 12.2011 8.26777 11.7322C7.79893 11.2634 7.16304 11 6.5 11ZM15.5 11C14.837 11 14.2011 11.2634 13.7322 11.7322C13.2634 12.2011 13 12.837 13 13.5C13 14.163 13.2634 14.7989 13.7322 15.2678C14.2011 15.7366 14.837 16 15.5 16C16.163 16 16.7989 15.7366 17.2678 15.2678C17.7366 14.7989 18 14.163 18 13.5C18 12.837 17.7366 12.2011 17.2678 11.7322C16.7989 11.2634 16.163 11 15.5 11Z" fill="white"/>
</svg>
