<svg xmlns="http://www.w3.org/2000/svg" width="46.693" height="42.449" viewBox="0 0 46.693 42.449"><defs><style>.a{fill:#f58c00;}</style></defs><g transform="translate(0.001 -27.81)"><path class="a" d="M39.091,70.259H7.6A7.589,7.589,0,0,1,1.028,58.876L16.774,31.6a7.589,7.589,0,0,1,13.144,0L45.663,58.876a7.589,7.589,0,0,1-6.572,11.383ZM23.346,29.991a5.353,5.353,0,0,0-4.683,2.7L2.917,59.967A5.408,5.408,0,0,0,7.6,68.078H39.091a5.408,5.408,0,0,0,4.683-8.112L28.029,32.695A5.352,5.352,0,0,0,23.346,29.991Zm19.035,30.1L27.2,33.793a4.449,4.449,0,0,0-7.706,0L4.311,60.09a4.449,4.449,0,0,0,3.853,6.673H38.528a4.449,4.449,0,0,0,3.853-6.673ZM20.6,42a2.749,2.749,0,0,1,5.5,0v8.922a2.749,2.749,0,0,1-5.5,0Zm2.749,19.782a2.817,2.817,0,1,1,2.817-2.817A2.821,2.821,0,0,1,23.346,61.781Z" transform="translate(0)"/></g></svg>