<svg xmlns="http://www.w3.org/2000/svg" width="22.178" height="19.052" viewBox="0 0 22.178 19.052"><defs><style>.a{fill:#007d53;stroke:#007d53;stroke-width:0.3px;}</style></defs><g transform="translate(0.15 0.15)"><path class="a" d="M16.8,82.466h-.781a.377.377,0,0,0-.391.391v3.907a1.958,1.958,0,0,1-1.953,1.953H3.516a1.881,1.881,0,0,1-1.38-.574,1.881,1.881,0,0,1-.574-1.38V76.606a1.881,1.881,0,0,1,.574-1.379,1.881,1.881,0,0,1,1.38-.574h8.595a.376.376,0,0,0,.391-.391V73.48a.376.376,0,0,0-.391-.39H3.516a3.387,3.387,0,0,0-2.485,1.032A3.387,3.387,0,0,0,0,76.606V86.764a3.386,3.386,0,0,0,1.032,2.484A3.387,3.387,0,0,0,3.516,90.28H13.674a3.523,3.523,0,0,0,3.516-3.516V82.857a.377.377,0,0,0-.391-.391Z" transform="translate(0 -71.527)"/><path class="a" d="M208.851,36.779a.751.751,0,0,0-.549-.232h-6.251a.777.777,0,0,0-.549,1.331l2.149,2.149-7.96,7.96a.384.384,0,0,0,0,.562l1.392,1.392a.384.384,0,0,0,.562,0l7.96-7.96,2.149,2.149a.781.781,0,0,0,1.331-.549V37.328A.751.751,0,0,0,208.851,36.779Z" transform="translate(-187.205 -36.547)"/></g></svg>