<?xml version="1.0" encoding="UTF-8" standalone="no"?>
<!-- Created with Inkscape (http://www.inkscape.org/) -->

<svg
   width="210mm"
   height="297mm"
   viewBox="0 0 210 297"
   version="1.1"
   id="svg1"
   inkscape:version="1.3 (1:1.3+202307231459+0e150ed6c4)"
   sodipodi:docname="testMap.svg"
   xmlns:inkscape="http://www.inkscape.org/namespaces/inkscape"
   xmlns:sodipodi="http://sodipodi.sourceforge.net/DTD/sodipodi-0.dtd"
   xmlns="http://www.w3.org/2000/svg"
   xmlns:svg="http://www.w3.org/2000/svg">
  <sodipodi:namedview
     id="namedview1"
     pagecolor="#ffffff"
     bordercolor="#000000"
     borderopacity="0.25"
     inkscape:showpageshadow="2"
     inkscape:pageopacity="0.0"
     inkscape:pagecheckerboard="0"
     inkscape:deskcolor="#d1d1d1"
     inkscape:document-units="mm"
     inkscape:zoom="0.72693603"
     inkscape:cx="396.87124"
     inkscape:cy="561.25984"
     inkscape:window-width="1872"
     inkscape:window-height="1016"
     inkscape:window-x="0"
     inkscape:window-y="0"
     inkscape:window-maximized="1"
     inkscape:current-layer="layer1" />
  <defs
     id="defs1" />
  <g
     inkscape:label="Layer 1"
     inkscape:groupmode="layer"
     id="layer1">
    <path
       style="fill:#000000;stroke-width:0.264583"
       id="path5"
       d="m 9.1401139,87.46529 c 1.0587421,-1.07448 2.1211791,-2.146638 3.2205551,-3.179833 0.93129,-0.897848 1.981222,-1.641507 3.065701,-2.338383 0.824361,-0.57128 1.67623,-1.09711 2.546545,-1.59486 0.858096,-0.468617 1.742594,-0.895535 2.646712,-1.268074 0.689003,-0.293799 1.399547,-0.52382 2.13589,-0.660474 0.34688,-0.06653 0.699971,-0.04712 1.048495,-0.09538 0.357053,-0.121459 0.716981,-0.228605 1.078694,-0.336002 0.379545,-0.120936 0.752808,-0.255746 1.117226,-0.416584 0.666316,-0.322299 1.346671,-0.61582 2.030703,-0.899456 1.350997,-0.51113 2.749735,-0.881364 4.141605,-1.262465 2.071796,-0.581736 4.216683,-0.773387 6.354871,-0.916487 2.106269,-0.116721 4.216072,-0.156451 6.322975,-0.04636 1.830454,0.112011 3.63356,0.471567 5.423731,0.852204 1.945299,0.403101 3.853961,0.957276 5.79546,1.376029 1.796679,0.30489 3.589486,0.621546 5.37261,0.997988 1.925739,0.410596 3.882687,0.654835 5.831616,0.926922 2.135666,0.247616 4.277809,0.431044 6.411311,0.697212 2.065899,0.327006 4.122648,0.710684 6.16738,1.150903 1.805492,0.417732 3.607403,0.851154 5.396743,1.33368 2.140389,0.556268 4.298278,1.043344 6.449404,1.556213 2.236827,0.524436 4.34481,1.440275 6.444816,2.349161 2.229293,1.069221 4.476383,2.042978 6.853753,2.728582 2.96267,0.805987 6.00472,1.265362 9.05426,1.581491 2.72266,0.269526 5.45918,0.300593 8.19243,0.324832 2.6573,0.09937 5.30235,-0.128366 7.92113,-0.56097 2.23343,-0.380309 4.3574,-1.157819 6.42934,-2.050092 1.33139,-0.575794 2.62569,-1.229805 3.90109,-1.91934 1.06618,-0.588193 2.07858,-1.26509 3.11291,-1.906019 1.33595,-0.86278 2.76142,-1.5791 4.18607,-2.282111 1.54968,-0.740854 3.11577,-1.446307 4.65969,-2.199245 1.48004,-0.722646 2.97993,-1.403216 4.44661,-2.152931 1.37419,-0.789956 2.77095,-1.538367 4.16883,-2.285405 1.78286,-1.050607 3.70626,-1.787114 5.67171,-2.410666 2.15976,-0.581096 4.38786,-0.750623 6.61507,-0.698323 1.63056,0.07461 3.19141,0.47529 4.69235,1.094891 0.2066,0.109691 0.41319,0.219385 0.61979,0.329078 -0.91143,-0.519112 -1.81322,-1.055526 -2.73428,-1.557337 -0.21737,-0.118428 0.41683,0.267226 0.6216,0.406313 0.58456,0.397049 1.14891,0.824648 1.71661,1.245121 1.07156,0.775554 2.10316,1.603473 3.14201,2.42167 0.85697,0.670269 1.71808,1.335286 2.57246,2.00886 0.40829,0.319537 0.80464,0.654028 1.21367,0.972582 0,0 3.69572,1.453353 3.69572,1.453353 v 0 c -0.44954,-0.274701 -0.82978,-0.64453 -1.25028,-0.960091 -0.85981,-0.680704 -1.73091,-1.346959 -2.59717,-2.019371 -1.0406,-0.819806 -2.06858,-1.656377 -3.14192,-2.433492 -2.1804,-1.625449 -4.40746,-3.210994 -6.9333,-4.282083 -1.52725,-0.57232 -3.10987,-0.923181 -4.74788,-0.959914 -2.25128,-0.0026 -4.50259,0.195054 -6.67823,0.80758 -1.97971,0.652082 -3.92235,1.404533 -5.73157,2.452592 -1.40162,0.740649 -2.79855,1.489046 -4.17652,2.273144 -1.46146,0.748517 -2.95717,1.426607 -4.4294,2.153494 -1.55122,0.741601 -3.11506,1.455693 -4.665,2.199902 -1.43798,0.710938 -2.87133,1.442633 -4.22917,2.298944 -1.02857,0.638529 -2.04409,1.299961 -3.10502,1.884455 -1.25665,0.68744 -2.53546,1.335542 -3.84637,1.913818 -2.0366,0.888831 -4.13356,1.635014 -6.33482,1.998485 -2.60843,0.411965 -5.24056,0.60383 -7.88307,0.508612 -2.71895,-0.0235 -5.44108,-0.07181 -8.14906,-0.339479 -3.0394,-0.337638 -6.07348,-0.799016 -9.01887,-1.642759 -2.364863,-0.735943 -4.60904,-1.739474 -6.852405,-2.784096 -2.111592,-0.909926 -4.242067,-1.793042 -6.493378,-2.301505 -2.159973,-0.508283 -4.323447,-1.005131 -6.46607,-1.583332 -1.787249,-0.476878 -3.588583,-0.899973 -5.393229,-1.305605 -2.053257,-0.4332 -4.11762,-0.818478 -6.193441,-1.126988 C 68.448192,76.739377 66.30958,76.557997 64.180216,76.289934 62.228205,76.013246 60.271209,75.75101 58.34413,75.327917 56.561304,74.962356 54.767186,74.663583 52.978319,74.32975 51.042723,73.897262 49.131206,73.362841 47.18826,72.961762 45.38623,72.584164 43.568712,72.23737 41.724847,72.158108 c -2.109534,-0.08555 -4.221176,-0.03051 -6.328294,0.09727 -2.165892,0.151884 -4.330906,0.375809 -6.430928,0.956969 -1.413634,0.386016 -2.838479,0.748897 -4.207649,1.27676 -0.690676,0.284374 -1.37843,0.575196 -2.059227,0.882472 -0.359844,0.141965 -0.727747,0.263065 -1.09704,0.378082 -0.344053,0.101224 -0.685364,0.23255 -1.042896,0.27287 -0.356037,0.02548 -0.71264,0.04733 -1.059868,0.138621 -0.739613,0.179599 -1.454695,0.434816 -2.152616,0.738581 -0.910251,0.391269 -1.810259,0.81225 -2.666241,1.312892 -0.875095,0.504023 -1.741442,1.021807 -2.562334,1.611752 -1.088453,0.723659 -2.1388016,1.498367 -3.0767725,2.413947 -1.0991086,1.045355 -2.1576927,2.132494 -3.2691858,3.165102 z" />
    <path
       style="fill:#000000;stroke-width:0.264583"
       id="path6"
       d="m 5.9480203,87.448945 c -1.3472787,3.481937 -2.3637546,7.078498 -3.4056486,10.660062 -0.7277415,2.680333 -1.61135048,5.325733 -2.14278163,8.055063 -0.31432394,1.70664 -0.30697016,3.44583 -0.32041839,5.17421 -0.02973679,1.8957 0.27886555,3.77293 0.62234493,5.6305 0.44690699,2.06783 0.96926639,4.11977 1.57657009,6.14624 0.6016152,2.06965 1.4425666,4.04988 2.3279458,6.01039 1.2150979,2.5201 2.5735423,4.96765 3.9166165,7.42091 1.1023962,2.05441 2.210098,4.10695 3.425853,6.09696 0.919686,1.48133 1.960096,2.87497 2.815,4.3963 1.163809,2.21541 1.811344,4.65139 2.415859,7.06585 0.62935,2.56098 0.987478,5.17503 1.200143,7.80031 0.111597,1.56865 0.105327,3.14175 0.112819,4.7133 -0.01546,2.02692 -0.19646,4.04732 -0.441052,6.05793 -0.303872,2.02196 -0.614456,4.04409 -1.015739,6.04933 -0.291477,1.54699 -0.681312,3.0716 -1.085049,4.59219 -0.48239,1.84703 -0.979187,3.69016 -1.459464,5.53777 -0.543307,2.09567 -0.812262,4.24469 -1.145941,6.37957 -0.223026,1.56719 -0.504454,3.11844 -0.924435,4.64479 -0.253962,0.88875 -0.578948,1.75382 -0.908175,2.61653 -0.190689,0.52642 -0.369258,1.05683 -0.571282,1.57908 -0.711812,1.73702 -0.882594,3.62712 -1.082006,5.47518 -0.2572636,2.83028 -0.3586239,5.67369 -0.4093144,8.51454 -0.016439,1.42961 0.1105247,2.84513 0.5894854,4.1962 0.369335,0.80641 0.973501,1.4263 1.740503,1.86602 1.317454,0.75528 2.646973,1.48931 3.970459,2.23397 1.645265,0.70743 3.399908,1.08374 5.136675,1.48813 2.054294,0.52603 4.117143,0.98184 6.213962,1.29829 2.389754,0.33002 4.805593,0.35795 7.212989,0.30868 3.123988,-0.15443 6.247315,-0.30462 9.374365,-0.38159 3.49037,-0.10198 6.979631,0.096 10.458709,0.35784 3.608673,0.23717 7.170208,0.85677 10.698625,1.626 2.819681,0.67097 5.607227,1.48065 8.322424,2.49566 2.587895,1.15881 5.170784,1.9234 7.959481,2.41837 2.852574,0.38997 5.787036,0.61177 8.652735,0.19134 0.567558,-0.0833 1.125776,-0.22102 1.688661,-0.33153 3.521416,-0.8316 6.845366,-2.28799 10.131141,-3.77038 3.06861,-1.40414 6.17723,-2.71752 9.27384,-4.05791 2.51578,-1.00157 4.92151,-2.23347 7.28702,-3.54425 2.08073,-1.14245 4.03892,-2.48558 5.83896,-4.03073 1.70201,-1.5019 2.96633,-3.39837 4.21832,-5.27078 0.97945,-1.52884 2.01167,-3.02187 3.05817,-4.5052 1.31553,-1.70872 2.47679,-3.5173 3.59069,-5.36126 0.56223,-1.04922 1.24868,-2.04835 1.69005,-3.1604 0.5669,-1.42831 0.8209,-2.91704 1.06788,-4.42391 0.33808,-2.70382 0.61091,-5.43877 0.41457,-8.16258 -0.21069,-2.40875 -0.81479,-4.74818 -1.45262,-7.07156 -0.75828,-2.77851 -1.54906,-5.54855 -2.16383,-8.36317 -0.33225,-1.60196 -0.52313,-3.22909 -0.64573,-4.85927 -0.0598,-0.92763 -0.0654,-1.8575 -0.0776,-2.78662 0.004,-1.39267 0.028,-2.78782 0.21858,-4.1688 0.12001,-0.99824 0.62665,-1.78853 1.26579,-2.53091 0.73424,-0.75406 1.66055,-1.2689 2.61145,-1.69656 1.13905,-0.47151 2.36911,-0.60547 3.58488,-0.72358 1.40773,-0.0944 2.81668,-0.16996 4.22538,-0.24874 1.33431,-0.0694 2.67051,-0.0875 4.00638,-0.0942 1.17048,-0.0319 2.33081,-0.0241 3.48167,0.20381 1.2072,0.29664 2.36194,0.76227 3.55299,1.11333 1.52264,0.44618 3.10154,0.61604 4.67747,0.73577 1.95112,0.12086 3.90422,0.20205 5.85839,0.25016 1.25341,0.0179 2.50841,2.3e-4 3.69385,-0.44027 0.48473,-0.19849 0.8894,-0.51312 1.27285,-0.86139 0,0 -3.35877,-2.08728 -3.35877,-2.08728 v 0 c -0.3574,0.30519 -0.73277,0.57917 -1.18171,0.7372 -1.15366,0.36838 -2.36415,0.37773 -3.56653,0.3589 -1.94938,-0.0435 -3.89873,-0.11567 -5.84305,-0.26759 -1.56869,-0.14171 -3.13794,-0.34353 -4.64646,-0.81718 -1.19176,-0.37961 -2.3634,-0.83867 -3.59349,-1.08307 -1.16763,-0.1788 -2.34066,-0.16912 -3.51977,-0.14308 -1.33864,0.0172 -2.67759,0.034 -4.01444,0.11169 -1.4097,0.0827 -2.82,0.15743 -4.22786,0.26831 -1.25229,0.13378 -2.51825,0.28398 -3.67388,0.8205 -0.99012,0.47315 -1.96022,1.02206 -2.71945,1.83003 -0.67207,0.80518 -1.21648,1.66972 -1.35183,2.73518 -0.20882,1.39727 -0.21033,2.81117 -0.23875,4.22141 -0.0121,0.93537 -0.0427,1.87289 0.0445,2.80586 0.14723,1.66065 0.37488,3.31626 0.71129,4.9495 0.62187,2.82145 1.43047,5.59395 2.17099,8.38578 0.59941,2.30613 1.22234,4.61564 1.45802,6.99476 0.2113,2.70185 0.0222,5.42325 -0.31961,8.10796 -0.22466,1.30966 -0.26351,1.78325 -0.63289,3.02916 -0.46666,1.57408 -1.27003,2.99795 -2.10077,4.40386 -1.11177,1.83672 -2.30897,3.61177 -3.62167,5.3121 -1.04445,1.48824 -2.07084,2.98861 -3.03681,4.52957 -1.22392,1.8505 -2.47553,3.71027 -4.1589,5.18244 -1.78652,1.52708 -3.72609,2.84357 -5.78938,3.97214 -2.33983,1.32648 -4.74771,2.51202 -7.23848,3.53129 -3.07644,1.36366 -6.17439,2.67911 -9.228664,4.0925 -3.271086,1.46857 -6.593917,2.88018 -10.101852,3.68189 -0.558335,0.0994 -1.11292,0.2228 -1.675001,0.29816 -2.851388,0.38228 -5.757661,0.15855 -8.587377,-0.274 -2.748381,-0.54563 -5.399916,-1.37666 -7.968142,-2.50538 -2.70901,-0.98262 -5.489405,-1.75277 -8.295327,-2.40663 -3.55023,-0.7471 -7.128965,-1.35758 -10.753593,-1.60122 -3.483332,-0.23728 -6.97334,-0.40946 -10.466054,-0.31815 -3.136588,0.0761 -6.269151,0.22376 -9.403707,0.35577 -2.405327,0.0213 -4.818359,-0.0348 -7.202846,-0.38133 -2.09392,-0.33168 -4.149712,-0.82596 -6.207646,-1.33172 -1.736218,-0.41716 -3.493692,-0.8115 -5.114736,-1.58448 0.91399,0.54067 1.831128,1.07604 2.741969,1.622 0.175456,0.10517 -0.361653,-0.19191 -0.535619,-0.29953 -0.413951,-0.25606 -0.742371,-0.56562 -1.035083,-0.95328 -0.08963,-0.1187 -0.167446,-0.24588 -0.251169,-0.36882 -0.558547,-1.30058 -0.71605,-2.68976 -0.729281,-4.09946 -0.0092,-2.8358 0.07575,-5.67494 0.352389,-8.49843 0.213553,-1.80036 0.419841,-3.63958 1.153279,-5.31745 0.217298,-0.51996 0.411946,-1.0474 0.583452,-1.58441 0.319033,-0.88176 0.628238,-1.76789 0.879723,-2.67176 0.422342,-1.54475 0.709303,-3.11127 0.922469,-4.69862 0.303184,-2.12812 0.56037,-4.26982 1.109528,-6.35275 0.477117,-1.84458 1.001919,-3.67573 1.49634,-5.51553 0.403955,-1.53055 0.796761,-3.06499 1.079671,-4.62355 0.391412,-2.01977 0.688902,-4.05563 1.000131,-6.08903 0.252046,-2.01819 0.464751,-4.04431 0.502405,-6.0796 0.0084,-1.58489 0.0077,-3.17208 -0.118615,-4.75308 -0.233828,-2.6509 -0.647978,-5.28324 -1.226654,-7.88114 -0.595134,-2.42496 -1.202469,-4.88098 -2.315403,-7.12963 -0.831633,-1.54234 -1.845937,-2.95476 -2.809482,-4.41546 -1.245206,-1.98683 -2.379954,-4.03832 -3.490296,-6.10311 -1.333635,-2.43897 -2.6922167,-4.86675 -3.8890224,-7.37722 -0.888469,-1.94308 -1.7357241,-3.90626 -2.3394119,-5.96016 -0.6239013,-2.00882 -1.1418509,-4.05021 -1.5902615,-6.10517 -0.3480956,-1.83367 -0.6614281,-3.68727 -0.6479217,-5.56 0.010096,-1.708 0.020206,-3.42406 0.2838027,-5.11591 0.4839372,-2.73822 1.2811614,-5.40815 1.9987082,-8.091423 1.0061768,-3.561122 2.0163695,-7.14539 3.5412593,-10.526337 z" />
    <path
       style="fill:#000000;stroke-width:0.065;stroke-dasharray:none"
       id="path7"
       d="m 174.73914,155.3238 c 2.65756,-2.23896 5.6378,-4.05632 8.60469,-5.85006 1.50052,-0.91886 3.08539,-1.71734 4.51642,-2.74786 0.70633,-0.50864 1.32137,-1.05165 1.98421,-1.61314 1.42635,-1.19356 2.65131,-2.58589 3.83572,-4.01146 0.99366,-1.07972 1.07928,-1.70201 1.10011,-3.15673 -0.0335,-1.93409 -0.50618,-3.81099 -0.97544,-5.67492 -0.59547,-2.19596 -1.08573,-4.41391 -1.4362,-6.6617 -0.28724,-2.22598 -0.37343,-4.47015 -0.5758,-6.70459 -0.24195,-2.10455 -0.32637,-4.22215 -0.5536,-6.32768 -0.25711,-1.94414 -0.44753,-3.89325 -0.55107,-5.85144 -0.0866,-2.01794 -0.0879,-4.0384 -0.0857,-6.05782 -0.005,-1.696301 0.16492,-3.380758 0.60971,-5.017875 0.30026,-0.988142 0.66886,-1.958327 1.16193,-2.866832 0.34261,-0.607258 0.78138,-1.147694 1.23992,-1.669394 0.32194,-0.299625 0.57675,-0.636722 0.80334,-1.01093 0.31335,-0.537695 0.76235,-0.972815 1.12268,-1.475878 0.4632,-0.696918 0.71036,-1.496668 0.86386,-2.311781 0.13757,-0.955902 0.15407,-1.923444 0.0788,-2.884781 -0.0816,-0.904782 -0.33403,-1.778058 -0.63972,-2.629358 -0.24149,-0.665615 -0.58459,-1.284853 -0.96778,-1.877764 -1.22602,-1.631312 -3.24409,-2.572054 -5.2041,-3.062782 -0.671,-0.179422 -1.34658,-0.34045 -2.04014,-0.394062 -0.68452,-0.03114 -1.36728,0.07586 -2.0489,0.131717 -0.68715,0.02667 -1.35822,0.06153 -2.03242,0.201705 -0.93911,0.199409 -1.87231,0.425342 -2.81414,0.611788 -0.57765,0.125061 -1.16589,0.160251 -1.75479,0.172567 -0.55337,0.02289 -1.04906,-0.107765 -1.53767,-0.353687 6.36576,3.395575 3.25449,2.339925 2.49309,1.140846 -0.15142,-0.289184 -0.27742,-0.5905 -0.39892,-0.893146 0,0 -3.61175,-1.666547 -3.61175,-1.666547 v 0 c 0.1291,0.308121 0.24777,0.620443 0.38788,0.923936 0.6718,1.639514 3.01206,2.214041 4.24337,2.953954 0.53061,0.186534 1.07859,0.244028 1.64051,0.214405 0.59859,-0.0293 1.1927,-0.09906 1.7766,-0.239477 0.93527,-0.203748 1.86713,-0.42436 2.80769,-0.602867 0.67059,-0.100155 1.34588,-0.103319 2.02047,-0.166243 0.66837,-0.06083 1.34223,-0.149304 2.0126,-0.06403 0.67134,0.09162 1.33064,0.249528 1.98245,0.433488 0.13955,0.04342 0.28101,0.08114 0.41865,0.130275 0.124,0.04426 0.47776,0.21848 0.36554,0.149633 -5.8116,-3.565372 -3.25172,-2.192938 -2.3338,-1.206378 0.39772,0.564761 0.75516,1.155909 1.01571,1.798089 0.32284,0.81915 0.5893,1.661494 0.69724,2.538982 0.0954,0.9272 0.0788,1.860039 -0.0413,2.785231 -0.13005,0.75973 -0.34239,1.507887 -0.78122,2.152399 -0.37821,0.503497 -0.82778,0.952781 -1.15406,1.495134 -0.21853,0.351176 -0.47697,0.661294 -0.763,0.960596 -0.46658,0.551805 -0.92002,1.116164 -1.27032,1.751664 -0.50041,0.940027 -0.87203,1.942988 -1.17265,2.963611 -0.45225,1.673315 -0.62797,3.390987 -0.62108,5.124746 -0.0295,2.026406 0.014,4.052766 0.0772,6.078256 0.0899,1.96432 0.26362,3.92048 0.53174,5.86914 0.24851,2.10594 0.33358,4.22716 0.58386,6.33341 0.20553,2.23993 0.27025,4.4908 0.56046,6.72245 0.33105,2.2565 0.82455,4.48203 1.40593,6.68708 0.44961,1.83418 0.95538,3.67103 0.99546,5.57273 -0.0224,1.37441 -0.083,1.87503 -0.99159,2.91837 -1.13953,1.42631 -2.32943,2.811 -3.73234,3.99056 -2.01009,1.69741 -4.14823,3.02472 -6.42015,4.34368 -2.97618,1.85427 -5.94479,3.73123 -8.76324,5.8207 z" />
    <path
       style="fill:#000000;stroke-width:0.0649999;stroke-dasharray:none"
       id="path8"
       d="m 20.79739,143.05601 c 3.182748,-1.40551 6.550305,-2.35129 9.884304,-3.32508 2.195007,-0.6178 4.392943,-1.23558 6.648942,-1.58529 0.825884,-0.11201 1.656694,-0.17068 2.489616,-0.18412 0.481705,-0.002 0.963403,0.002 1.445103,0.004 0.430639,-0.006 0.861883,0.0149 1.292278,-0.002 1.257671,-0.40703 2.458511,-0.98022 3.677481,-1.48983 3.175614,-1.31639 6.35861,-2.61514 9.529432,-3.94307 2.484988,-1.03387 4.924343,-2.17311 7.339623,-3.3596 1.612572,-0.78964 3.225443,-1.58438 4.755793,-2.5259 0.662411,-0.40408 1.28025,-0.87366 1.86753,-1.37928 0.623252,-0.52144 1.098529,-1.16042 1.498049,-1.86127 0.364808,-0.65964 0.617088,-1.36547 0.827855,-2.08617 0.241311,-0.77771 0.412824,-1.57229 0.561697,-2.37191 0.166958,-1.09444 0.512083,-2.14317 0.879549,-3.18331 0.393825,-1.25136 1.047999,-2.3678 1.806409,-3.42784 0.879467,-1.08624 1.769925,-2.16545 2.700414,-3.20861 0.870087,-1.04696 1.935475,-1.86341 3.091413,-2.56607 1.306028,-0.69936 2.695583,-1.22349 4.074083,-1.75915 1.179676,-0.44244 2.336467,-0.93017 3.451955,-1.51604 0.77202,-0.44805 1.582253,-0.8131 2.415323,-1.12944 0.536067,-0.16913 1.020842,-0.44626 1.491832,-0.74684 0.53363,-0.32434 1.033907,-0.6744 1.4907,-1.10069 0.731366,-0.661753 1.251577,-1.477119 1.719633,-2.335039 0.507793,-0.955143 1.034301,-1.898454 1.445839,-2.899926 0.385704,-1.091599 0.645422,-2.220896 0.855702,-3.357618 0.129011,-0.731779 0.162282,-1.474869 0.196416,-2.215689 0.02951,-0.596136 0.04565,-1.192864 0.05163,-1.789674 0.0063,-0.388641 0.0047,-0.777327 0.0057,-1.165997 7.94e-4,-0.144376 0.0016,-0.288745 0.0019,-0.433123 0,0 -3.548835,-1.807872 -3.548835,-1.807872 v 0 c 5.29e-4,0.145198 0.0016,0.290383 0.0027,0.435579 0.0019,0.389141 0.0016,0.77829 0.0039,1.167431 -0.0021,0.594746 -0.0047,1.189588 -0.02866,1.783964 -0.03366,0.726972 -0.07128,1.455359 -0.164997,2.177407 -0.174355,1.115891 -0.420912,2.220701 -0.810625,3.283191 -0.405397,0.987319 -0.907547,1.92796 -1.410719,2.868427 -0.455411,0.81816 -0.974899,1.582608 -1.681951,2.207718 -0.448167,0.400491 -0.954942,0.710956 -1.45947,1.035071 -0.459478,0.280379 -0.94287,0.506349 -1.44975,0.688483 -0.828837,0.341237 -1.626878,0.744837 -2.410026,1.180637 -1.108808,0.56508 -2.249075,1.0562 -3.415261,1.49174 -1.393721,0.5527 -2.799701,1.09062 -4.115104,1.81659 -1.173535,0.73976 -2.262447,1.58674 -3.151751,2.66241 -0.934019,1.05777 -1.835748,2.14431 -2.715659,3.24737 -0.778733,1.08972 -1.477791,2.22427 -1.868157,3.51763 -0.379878,1.05258 -0.755364,2.11314 -0.937628,3.22136 -0.151638,0.78496 -0.297016,1.57198 -0.54506,2.3341 -0.212286,0.68873 -0.426127,1.37897 -0.783175,2.01032 -0.372816,0.66553 -0.836538,1.2556 -1.432943,1.7386 -0.575263,0.48443 -1.173991,0.94138 -1.807009,1.34841 -1.49933,0.94533 -3.076977,1.75558 -4.667245,2.53605 -2.405575,1.16802 -4.815107,2.32955 -7.277319,3.37497 -3.176442,1.33758 -6.35879,2.66123 -9.571916,3.90875 -1.207098,0.47305 -2.430005,1.07795 -3.713924,1.2922 -0.426027,0.002 -0.852059,0.002 -1.278084,-7.9e-4 -0.482906,-0.002 -0.966088,-0.008 -1.448744,0.0106 -0.830739,0.0378 -1.658361,0.12214 -2.479056,0.25834 -2.219743,0.41304 -4.376597,1.07643 -6.539317,1.71683 -3.37991,1.01801 -6.772915,2.01555 -10.082719,3.2458 z" />
    <path
       style="fill:#000000;stroke-width:0.0649999;stroke-dasharray:none"
       id="path9"
       d="m 76.493657,119.6161 c 6.357586,-0.0937 12.715042,0.36234 19.057797,0.75253 8.472296,0.45349 16.943926,0.91669 25.413526,1.41781 5.06907,0.269 10.13976,0.51794 15.19603,0.97499 2.43336,0.27168 4.87608,0.44233 7.31371,0.66558 2.31822,0.27375 4.59636,0.77514 6.86398,1.31639 3.34693,0.85925 6.73689,1.51435 10.13407,2.13643 2.96002,0.53686 5.92655,1.0372 8.88587,1.57783 1.99421,0.39707 3.9827,0.82154 5.97443,1.23079 1.4921,0.32502 2.9262,0.86572 4.30926,1.50533 1.04626,0.53853 3.08856,1.60016 -2.15019,-1.25372 -0.20172,-0.10989 0.38604,0.24915 0.57606,0.37823 0.49517,0.33635 0.96901,0.69987 1.44214,1.06605 0.67317,0.5043 1.32378,1.03552 1.9538,1.59248 0.46913,0.40601 0.88562,0.8664 1.32547,1.30246 1.41561,1.09956 2.99563,2.04279 4.67335,2.67985 0.39663,0.16132 0.80784,0.18633 1.229,0.19343 0.50472,0.007 1.00959,0.008 1.51437,0.006 0.39152,0.0118 0.79403,-0.0486 1.17368,0.0683 -0.0725,-0.0644 0.26053,0.19825 0.18907,0.15784 -1.07802,-0.60967 -2.1429,-1.24236 -3.22027,-1.85317 -0.10843,-0.0615 0.19341,0.15893 0.30101,0.22186 1.18287,0.69179 2.37186,1.37306 3.5578,2.0596 0.37233,0.1678 0.75715,0.29711 1.11319,0.50001 -1.07903,-0.6186 -2.15806,-1.23719 -3.23709,-1.85579 0,0 3.6915,1.47179 3.6915,1.47179 v 0 c -1.18627,-0.7005 -2.37255,-1.401 -3.55883,-2.1015 -0.37022,-0.16461 -0.7542,-0.30228 -1.10088,-0.51518 1.08066,0.62664 2.16245,1.25133 3.24197,1.87993 0.10724,0.0624 -0.21049,-0.13151 -0.31707,-0.19506 -1.18862,-0.70878 -2.37659,-1.41875 -3.57288,-2.1145 -0.0589,-0.0343 -0.20975,-0.0436 -0.26866,-0.0503 -0.40147,-0.0208 -0.80361,-0.003 -1.20541,-0.007 -0.49976,2.6e-4 -1.00001,0.007 -1.49915,-0.0233 -0.39884,-0.0383 -0.78302,-0.13205 -1.14836,-0.30135 -0.22833,-0.10414 -0.19599,-0.0841 -0.41399,-0.20427 -0.0705,-0.0389 -0.2797,-0.15987 -0.21003,-0.11946 5.5579,3.22317 3.93037,2.27248 2.7453,1.59486 -0.4985,-0.37445 -0.86644,-0.8973 -1.3395,-1.30321 -0.63646,-0.56555 -1.27636,-1.12702 -1.96781,-1.62579 -2.04067,-1.58911 -4.20172,-3.02443 -6.58161,-4.07907 -1.40059,-0.61021 -2.84632,-1.12708 -4.34816,-1.42604 -1.97887,-0.39698 -3.95305,-0.81678 -5.9363,-1.19156 -2.93806,-0.52553 -5.88514,-0.99971 -8.82215,-1.53147 -3.41277,-0.63442 -6.81618,-1.31372 -10.17615,-2.19249 -2.29511,-0.54218 -4.60135,-1.04743 -6.94839,-1.3093 -2.39993,-0.19908 -4.80545,-0.3334 -7.20148,-0.58231 -5.00468,-0.41632 -10.02404,-0.60222 -15.03929,-0.84497 -8.44153,-0.42465 -16.8821,-0.87328 -25.320638,-1.35309 -6.491449,-0.42019 -12.982639,-0.87859 -19.487338,-1.03785 z" />
    <path
       style="fill:#000000;stroke-width:0.0649999;stroke-dasharray:none"
       id="path10"
       d="m 68.037733,128.60838 c 0.886444,5.99258 1.192501,12.04797 1.503759,18.09131 0.314873,7.4611 0.728086,14.91735 1.031074,22.37907 0.164745,4.03795 0.352184,8.07633 0.811778,12.09262 0.425821,3.22963 1.349915,6.35638 2.182032,9.49628 0.869813,3.10392 1.406044,6.26912 1.714352,9.47285 0.293264,4.19985 0.321072,8.41317 0.279387,12.62129 -0.04247,2.38768 -0.135901,4.77397 -0.206021,7.16089 -0.02846,1.01103 -0.03582,2.02252 -0.04836,3.03384 -0.0053,0.61978 -0.0016,1.23959 -0.0043,1.85939 5.3e-4,0.57894 0.0019,1.15787 2.57e-4,1.73681 -7.94e-4,0.43534 -0.0034,0.87067 -0.0061,1.306 2.65e-4,0.33917 -0.0052,0.67844 0.0069,1.01742 0.06444,0.6907 0.276791,1.3592 0.436769,2.03258 0.12751,0.50906 0.193852,1.02753 0.22289,1.55048 0.0083,0.3668 0.02217,0.73315 0.0545,1.09864 0.01815,0.20769 0.05569,0.41286 0.09155,0.618 0,0 3.57106,1.74137 3.57106,1.74137 v 0 c -0.03508,-0.19543 -0.07694,-0.38975 -0.101381,-0.58691 -0.03632,-0.36077 -0.06483,-0.72247 -0.0706,-1.08524 -0.02016,-0.54686 -0.06642,-1.09176 -0.205414,-1.62333 -0.15108,-0.65198 -0.346758,-1.2977 -0.44908,-1.95851 -0.02127,-0.33246 -0.0087,-0.66543 -0.01252,-0.99841 -0.0028,-0.43743 -0.0054,-0.87486 -0.0062,-1.3123 -0.0019,-0.57908 -5.29e-4,-1.15814 -5.29e-4,-1.73722 -0.0035,-0.62107 -0.0011,-1.24215 -0.0054,-1.86321 -0.0088,-1.01682 -0.0062,-2.03362 0.0016,-3.05044 0.0173,-2.41235 0.05406,-4.8245 0.06717,-7.23688 0.01315,-4.21307 -0.02461,-8.43036 -0.236233,-12.63854 -0.246867,-3.22966 -0.814178,-6.40219 -1.676643,-9.52737 -0.829723,-3.12237 -1.745451,-6.2337 -2.19071,-9.44175 -0.512702,-4.03607 -0.763551,-8.09695 -1.001906,-12.15729 -0.402058,-7.48164 -0.836017,-14.9617 -1.164574,-22.44705 -0.279032,-5.968 -0.552201,-11.94009 -1.068404,-17.89297 z" />
    <path
       style="fill:#000000;stroke-width:0.0649999;stroke-dasharray:none"
       id="path11"
       d="m 72.260046,135.50302 c -0.02416,-1.21273 -0.0191,-2.42587 -0.01733,-3.63877 7.94e-4,-0.92843 0.0088,-1.85681 0.01722,-2.78519 0.0013,-0.51634 0.02649,-1.03307 -0.03259,-1.54672 -0.09119,-0.50359 -0.261123,-0.98775 -0.397725,-1.47999 -0.126111,-0.45947 -0.246935,-0.92036 -0.372901,-1.37987 -0.05698,-0.19512 -0.103319,-0.39292 -0.147179,-0.59128 0,0 -3.581168,-1.72998 -3.581168,-1.72998 v 0 c 0.04344,0.20674 0.08664,0.4137 0.144254,0.61711 0.131956,0.45791 0.24983,0.91962 0.371343,1.38037 0.139628,0.47988 0.281133,0.95894 0.421997,1.4384 0.101949,0.49253 0.05151,0.99465 0.06721,1.49498 0.0084,0.93424 0.01635,1.86847 0.01722,2.80275 0.0019,1.20701 0.007,2.41427 -0.01733,3.62109 z" />
    <path
       style="fill:#000000;stroke-width:0.0649999;stroke-dasharray:none"
       id="path12"
       d="m 75.131799,117.16164 c -0.967041,0.45711 -1.940269,0.90567 -2.951765,1.25605 -0.486066,0.1593 -0.991262,0.24448 -1.492843,0.33787 -0.465058,0.17953 -0.909365,0.40344 -1.388298,0.54522 0,0 3.28689,2.23109 3.28689,2.23109 v 0 c 0.454496,-0.16584 0.887047,-0.39719 1.361292,-0.50286 0.509383,-0.10467 1.018857,-0.21341 1.504114,-0.40632 1.005223,-0.39027 1.979792,-0.85299 2.97412,-1.2695 z" />
    <path
       style="fill:#000000;stroke-width:0.0649999;stroke-dasharray:none"
       id="path13"
       d="m 174.49827,72.295768 c 1.96815,-0.03717 3.93651,-0.02032 5.90468,-0.05696 1.56126,-0.03384 3.1202,-0.111969 4.67919,0.0024 1.07224,0.12336 2.12365,0.371028 3.19097,0.525571 1.71762,0.13938 3.51872,1.592221 -2.03352,-1.560591 0.35438,0.171849 0.5293,0.515818 0.67132,0.864034 0.14007,0.391331 0.21461,0.801404 0.31848,1.203033 0.12271,0.456579 0.32475,0.886111 0.54937,1.300327 0.15829,0.319069 0.41646,0.546656 0.68876,0.766082 0.27417,0.215734 0.55576,0.422014 0.81909,0.651085 0.26491,0.215132 0.48574,0.471228 0.6955,0.738298 0.21577,0.304528 0.41051,0.623438 0.5758,0.958017 0.10515,0.22416 0.0467,0.10051 0.17575,0.370718 0,0 3.61406,1.641938 3.61406,1.641938 v 0 c -0.12585,-0.260112 -0.0699,-0.137747 -0.16996,-0.366152 -0.16023,-0.350467 -0.33032,-0.694695 -0.54813,-1.014132 -0.18055,-0.301146 -0.40044,-0.58243 -0.65703,-0.822706 -0.2578,-0.243853 -0.52585,-0.474535 -0.81483,-0.681373 -0.25984,-0.196165 -0.54677,-0.365644 -0.74168,-0.632566 -0.25387,-0.371446 -0.45653,-0.777608 -0.6021,-1.203513 -0.12,-0.404087 -0.1896,-0.819967 -0.30372,-1.225312 -0.12044,-0.401455 -0.27207,-0.804878 -0.5621,-1.116869 -2.37827,-1.357736 -2.80285,-2.05553 -4.83811,-2.240865 -1.05794,-0.163055 -2.10795,-0.383593 -3.17633,-0.472337 -1.55553,-0.07859 -3.10915,5.29e-4 -4.66494,0.04719 -1.98973,0.04072 -3.98016,0.03771 -5.96997,1.88e-4 z" />
    <path
       style="fill:#000000;stroke-width:0.0649999;stroke-dasharray:none"
       id="path14"
       d="m 21.148931,140.91267 c -0.868976,0.49472 -1.753875,0.9649 -2.670379,1.36587 -0.495863,0.19874 -0.980685,0.42162 -1.467373,0.6414 -0.402626,0.17053 -0.828031,0.27729 -1.250373,0.38613 -0.775461,0.12727 -1.561898,0.15776 -2.346053,0.17925 -0.449341,0.0118 -0.898805,0.006 -1.348214,0.005 -0.05514,-2.2e-4 -0.110277,-5.2e-4 -0.165416,-7.9e-4 0,0 3.218418,2.33938 3.218418,2.33938 v 0 c 0.05519,2e-5 0.110377,3e-5 0.165566,5e-5 0.44527,-8e-4 0.89037,-0.014 1.335248,-0.0325 0.806113,-0.0372 1.617663,-0.0735 2.409379,-0.24093 0.439523,-0.11693 0.875554,-0.24534 1.287523,-0.44219 0.485054,-0.22079 0.975456,-0.42873 1.460365,-0.64972 0.903949,-0.44135 1.782871,-0.93106 2.678178,-1.38933 z" />
    <circle
       id="path15"
       style="fill:#000000;stroke:#000000;stroke-width:0.264583"
       cx="26.466064"
       cy="88.615463"
       r="0.011910177" />
  </g>
</svg>
