<svg xmlns="http://www.w3.org/2000/svg" width="17.864" height="17.864" viewBox="0 0 17.864 17.864">
  <path id="ic_help_24px" d="M10.932,2a8.932,8.932,0,1,0,8.932,8.932A8.935,8.935,0,0,0,10.932,2Zm.893,15.184H10.039V15.4h1.786Zm1.849-6.922-.8.822a3.041,3.041,0,0,0-1.045,2.528H10.039v-.447a3.6,3.6,0,0,1,1.045-2.528l1.108-1.125a1.746,1.746,0,0,0,.527-1.259,1.786,1.786,0,1,0-3.573,0H7.359a3.573,3.573,0,0,1,7.146,0A2.842,2.842,0,0,1,13.674,10.262Z" transform="translate(-2 -2)" fill="#515151"/>
</svg>
