<svg id="recommendation" xmlns="http://www.w3.org/2000/svg" width="17.865" height="17.864" viewBox="0 0 17.865 17.864">
  <path id="Path_1091" data-name="Path 1091" d="M22.87,8.5H10.379A2.379,2.379,0,0,0,8,10.879V20.4a2.379,2.379,0,0,0,2.379,2.379h1.19l-1.19,2.974,6.246-2.974H22.87A2.379,2.379,0,0,0,25.25,20.4V10.879A2.379,2.379,0,0,0,22.87,8.5Zm-1.319,6.429-2.129,1.546a.6.6,0,0,0-.216.665l.813,2.5a.595.595,0,0,1-.915.665l-2.129-1.547a.6.6,0,0,0-.7,0l-2.129,1.547a.595.595,0,0,1-.915-.665l.813-2.5a.6.6,0,0,0-.215-.665L11.7,14.93a.595.595,0,0,1,.348-1.077H14.68a.6.6,0,0,0,.565-.411l.815-2.5a.595.595,0,0,1,1.13,0l.813,2.5a.6.6,0,0,0,.566.412H21.2a.595.595,0,0,1,.35,1.076Zm0,0" transform="translate(-7.692 -8.192)" fill="#515151"/>
  <path id="Path_1093" data-name="Path 1093" d="M15.185.5H2.68A2.683,2.683,0,0,0,0,3.18v9.528a2.683,2.683,0,0,0,2.68,2.68h.751L2.4,17.957a.3.3,0,0,0,.4.378L9,15.387h6.184a2.683,2.683,0,0,0,2.68-2.68V3.18A2.683,2.683,0,0,0,15.185.5Zm2.084,12.208a2.087,2.087,0,0,1-2.084,2.084H8.932a.3.3,0,0,0-.128.03l-5.565,2.65L4.147,15.2a.3.3,0,0,0-.277-.409H2.68A2.087,2.087,0,0,1,.6,12.708V3.18A2.087,2.087,0,0,1,2.68,1.1H15.185A2.087,2.087,0,0,1,17.269,3.18Zm0,0" transform="translate(0 -0.5)" fill="#515151"/>
  <path id="Path_1094" data-name="Path 1094" d="M92.889,55.039h0s0,0,0,0h0Zm0,0h0Zm0,0" transform="translate(-83.956 -47.515)" fill="#fff"/>
</svg>
