<svg id="uploading-archive" xmlns="http://www.w3.org/2000/svg" width="16.362" height="17.864" viewBox="0 0 16.362 17.864">
  <g id="Group_1455" data-name="Group 1455" transform="translate(0 0)">
    <g id="Group_1454" data-name="Group 1454">
      <path id="Path_929" data-name="Path 929" d="M19.129,0,15.181,4.226c-.393.411-.306.7.243.7h2.2v6.741h3V4.926h2.2c.548,0,.635-.29.242-.7Z" transform="translate(-11.034)" fill="#515151"/>
      <path id="Path_930" data-name="Path 930" d="M18.748,25.77H16.655a.394.394,0,0,0-.346.43v7.714H5.516V26.2a.4.4,0,0,0-.346-.43H3.077a.4.4,0,0,0-.346.43V35a2.184,2.184,0,0,0,1.911,2.375h12.54A2.184,2.184,0,0,0,19.093,35V26.2A.394.394,0,0,0,18.748,25.77Z" transform="translate(-2.731 -19.511)" fill="#515151"/>
    </g>
  </g>
</svg>
