<svg id="Group_1733" data-name="Group 1733" xmlns="http://www.w3.org/2000/svg" width="22.429" height="14.953" viewBox="0 0 22.429 14.953">
  <path id="ic_cloud_download_24px" d="M18.084,9.645A7,7,0,0,0,5,7.776a5.605,5.605,0,0,0,.607,11.177H17.757a4.659,4.659,0,0,0,.327-9.308Z" transform="translate(0 -4)" fill="#515151"/>
  <g id="Group_1734" data-name="Group 1734" transform="translate(7.146 3.764)">
    <path id="Path_1095" data-name="Path 1095" d="M19.072,15.109a3.163,3.163,0,0,0-4.234-1.447c.168.343.369.783.369.783a2.314,2.314,0,0,1,2.728,3.638l-.031.032-.252-.514-.446,1.3,1.3.445-.218-.445.031-.027A3.166,3.166,0,0,0,19.072,15.109Z" transform="translate(-11.321 -13.338)" fill="#fff" stroke="#fff" stroke-width="1"/>
    <path id="Path_1096" data-name="Path 1096" d="M11.345,18.63a2.309,2.309,0,0,1,.367-2.576l.031-.033.251.512.445-1.3-1.3-.447.219.446-.032.025a3.165,3.165,0,0,0,3.484,5.218c-.169-.342-.369-.784-.369-.784A2.312,2.312,0,0,1,11.345,18.63Z" transform="translate(-10.249 -12.592)" fill="#fff" stroke="#fff" stroke-width="1"/>
  </g>
</svg>
