<svg xmlns="http://www.w3.org/2000/svg" width="17.438" height="17.438" viewBox="0 0 17.438 17.438">
  <path id="Icon_awesome-user-circle" data-name="Icon awesome-user-circle" d="M8.719.563a8.719,8.719,0,1,0,8.719,8.719A8.717,8.717,0,0,0,8.719.563Zm0,3.375A3.094,3.094,0,1,1,5.625,7.031,3.094,3.094,0,0,1,8.719,3.938Zm0,12.094a6.737,6.737,0,0,1-5.15-2.4,3.92,3.92,0,0,1,3.463-2.1.86.86,0,0,1,.25.039,4.655,4.655,0,0,0,1.438.243,4.637,4.637,0,0,0,1.438-.243.86.86,0,0,1,.25-.039,3.92,3.92,0,0,1,3.463,2.1A6.737,6.737,0,0,1,8.719,16.031Z" transform="translate(0 -0.563)" fill="#fff"/>
</svg>
