<svg id="cancel" xmlns="http://www.w3.org/2000/svg" width="23.706" height="23.706" viewBox="0 0 23.706 23.706">
  <circle id="Ellipse_141" data-name="Ellipse 141" cx="11.853" cy="11.853" r="11.853" transform="translate(0 0)" fill="#e24c4b"/>
  <path id="Path_4245" data-name="Path 4245" d="M70.89,59.039A11.888,11.888,0,0,1,59.037,70.892a11.664,11.664,0,0,1-9.26-4.445,11.694,11.694,0,0,0,7.408,2.593A11.888,11.888,0,0,0,69.038,57.187a11.694,11.694,0,0,0-2.593-7.408A11.663,11.663,0,0,1,70.89,59.039Z" transform="translate(-47.184 -47.186)" fill="#d1403f"/>
  <path id="Path_4246" data-name="Path 4246" d="M128.483,128.483a1.163,1.163,0,0,1-1.63,0l-3.778-3.778-3.778,3.778a1.152,1.152,0,1,1-1.63-1.63l3.778-3.778-3.778-3.778a1.152,1.152,0,1,1,1.63-1.63l3.778,3.778,3.778-3.778a1.152,1.152,0,1,1,1.63,1.63l-3.778,3.778,3.778,3.778A1.163,1.163,0,0,1,128.483,128.483Z" transform="translate(-111.222 -111.222)" fill="#fff"/>
</svg>
